<?xml version="1.0" ?>
<!DOCTYPE svg  PUBLIC '-//W3C//DTD SVG 1.1//EN'
  'http://www.w3.org/Graphics/SVG/1.1/DTD/svg11.dtd' [
        <!ENTITY stroke_color "#000000">
        <!ENTITY fill_color "#FFFFFF">
]><svg
   xmlns:dc="http://purl.org/dc/elements/1.1/"
   xmlns:cc="http://creativecommons.org/ns#"
   xmlns:rdf="http://www.w3.org/1999/02/22-rdf-syntax-ns#"
   xmlns:svg="http://www.w3.org/2000/svg"
   xmlns="http://www.w3.org/2000/svg"
   xmlns:sodipodi="http://sodipodi.sourceforge.net/DTD/sodipodi-0.dtd"
   xmlns:inkscape="http://www.inkscape.org/namespaces/inkscape"
   version="1.0"
   width="48.729118"
   height="50.036259"
   id="svg2381"
   sodipodi:version="0.32"
   inkscape:version="0.48.1 r9760"
   sodipodi:docname="logo_butia_vec.svg"
   inkscape:output_extension="org.inkscape.output.svg.inkscape">
  <g
     transform="matrix(0.89315942,0,0,0.89315942,-281.86152,-342.52147)"
     id="layer1">
    <path
       d="m 354.74583,388.98066 c 0,1.14875 2.09125,2.12625 2.90725,2.67 1.1245,0.75 2.056,1.6325 3.00025,2.57625 1.033,1.03125 1.62725,1.88625 2.51725,3.05875 0.52162,0.6875 1.78125,3.14125 2.43662,3.14125 0.88863,0 1.6145,-0.38125 1.6145,-1.32125 0,-1.275 -3.74687,-5.58 -4.66025,-6.4925 -1.00437,-1.005 -5.00525,-4.80625 -6.49462,-4.80625 -0.59113,0 -1.321,0.53 -1.321,1.17375 l 0,0 0,0 z m -35.66613,8.36375 c 0,0.71 0.46413,1.17375 1.17413,1.17375 1.3615,0 2.17675,-1.91375 2.8765,-2.84625 1.35512,-1.80625 3.75675,-4.39375 5.84162,-5.3125 0.8595,-0.3775 3.02388,-1.4825 3.02388,-2.5525 0,-0.5325 -0.17413,-0.515 -0.29363,-1.0275 -0.86437,-0.0712 -0.306,-0.2925 -0.88062,-0.2925 -2.39388,0 -11.74188,8.56 -11.74188,10.8575 l 0,0 0,0 z m 13.35638,6.75 c 0,1.88875 1.71625,2.9625 2.899,4.145 0.35675,0.3575 3.41237,3.38751 3.41237,3.48626 0,1.29875 -6.605,5.33125 -6.605,7.92375 0,1.615 1.088,2.7875 2.642,2.7875 2.51588,0 7.112,-6.60375 7.92588,-6.60375 0.6175,0 6.14062,6.33625 7.04512,6.45625 2.06013,0.21625 3.52275,-0.70875 3.52275,-2.78875 0,-2.33375 -6.4695,-6.29625 -6.60487,-7.9225 l 6.01775,-5.72376 c 0.312,-0.51625 0.2935,-0.45625 0.2935,-1.02625 0,-1.53375 -0.67363,-3.22875 -2.49513,-3.22875 -2.8235,0 -5.70175,4.92 -7.77912,6.31 -1.85175,-1.23875 -5.17525,-6.31 -7.4855,-6.31 -1.4,0 -2.78875,0.975 -2.78875,2.495 l 0,0 0,0 z m 25.87475,30.27001 c 1.17462,-0.8525 1.92025,-1.49125 2.92962,-2.5 0.76238,-0.7625 4.80713,-5.045 4.80713,-5.90625 0,-1.05875 -0.32963,-1.61375 -1.46788,-1.61375 -0.7505,0 -2.032,2.305 -2.60362,2.9725 -1.76375,2.06 -3.428,3.79 -5.70375,5.30375 -0.7265,0.4825 -2.99413,1.5025 -2.99413,2.435 0,0.80625 0.37825,1.4675 1.32088,1.4675 0.96062,0 2.88562,-1.55875 3.71175,-2.15875 l 0,0 0,0 z m -32.03925,-22.4925 c 0,-4.49001 2.144,-8.69501 4.43962,-10.96876 1.74888,-1.7325 2.151,-2.10125 4.41725,-3.36125 4.97063,-2.76125 10.74488,-2.13125 15.72163,0.3225 2.89275,1.4275 5.064,4.1625 6.56412,6.9375 3.35613,6.20625 1.4845,14.10001 -3.29175,18.91876 -3.18725,3.21625 -7.04062,4.39 -11.26262,4.62375 -4.67588,-0.595 -8.16875,-1.21375 -11.6345,-4.6975 -3.13913,-3.155 -4.95375,-7.32 -4.95375,-11.775 l 0,0 0,0 z m 0.84412,15.00375 c 1.48563,1.485 3.68463,3.37 5.656,4.32375 1.50763,0.72875 5.7005,2.2425 7.737,2.2425 l 2.93563,0 c 11.18037,0 20.84187,-9.83125 20.84187,-20.98375 l 0,-1.76001 c 0,-3.2775 -1.28637,-5.80625 -2.18387,-8.08875 -0.84325,-2.14375 -2.78088,-4.4325 -4.31063,-5.96125 -3.0085,-3.00875 -8.41575,-6.2 -14.34737,-6.2 -6.65488,0 -13.27625,2.53875 -17.49475,7.895 -2.55363,3.2425 -4.81513,7.805 -4.81513,13.52876 0,5.58625 1.99363,11.0175 5.98125,15.00375 l 0,0 0,0 z m 4.14625,8.18 c 0,-1.7675 -1.882,-2.07875 -3.02375,-2.84625 -2.17137,-1.45875 -4.28975,-3.34 -5.84387,-5.45625 -0.629,-0.8575 -1.61513,-2.84875 -2.72763,-2.84875 -1.00037,0 -1.17412,0.85375 -1.17412,1.61375 0,0.89 4.15375,5.55625 4.99025,6.1625 1.12662,0.8175 5.10012,4.4025 6.60487,4.4025 0.44275,0 1.17425,-0.59875 1.17425,-1.0275 l 0,0 0,0 z"
       id="path32"
       style="fill:&fill_color;;stroke:&stroke_color;;stroke-width:2"
       inkscape:connector-curvature="0" />
  </g>
</svg>
