<?xml version="1.0" ?>
<!DOCTYPE svg  PUBLIC '-//W3C//DTD SVG 1.1//EN'
  'http://www.w3.org/Graphics/SVG/1.1/DTD/svg11.dtd' [
        <!ENTITY stroke_color "#000000">
        <!ENTITY fill_color "#FFFFFF">
]><svg
   xmlns:dc="http://purl.org/dc/elements/1.1/"
   xmlns:cc="http://creativecommons.org/ns#"
   xmlns:rdf="http://www.w3.org/1999/02/22-rdf-syntax-ns#"
   xmlns:svg="http://www.w3.org/2000/svg"
   xmlns="http://www.w3.org/2000/svg"
   xmlns:sodipodi="http://sodipodi.sourceforge.net/DTD/sodipodi-0.dtd"
   xmlns:inkscape="http://www.inkscape.org/namespaces/inkscape"
   version="1.1"
   id="Pippy_activity"
   width="47.585"
   height="49.326"
   viewBox="0 0 47.585 49.326"
   overflow="visible"
   enable-background="new 0 0 47.585 49.326"
   xml:space="preserve"
   inkscape:version="0.48.1 r9760"
   sodipodi:docname="activity-default.svg"><metadata
   id="metadata11"><rdf:RDF><cc:Work
       rdf:about=""><dc:format>image/svg+xml</dc:format><dc:type
         rdf:resource="http://purl.org/dc/dcmitype/StillImage" /></cc:Work></rdf:RDF></metadata><defs
   id="defs9" /><sodipodi:namedview
   pagecolor="#ffffff"
   bordercolor="#666666"
   borderopacity="1"
   objecttolerance="10"
   gridtolerance="10"
   guidetolerance="10"
   inkscape:pageopacity="0"
   inkscape:pageshadow="2"
   inkscape:window-width="640"
   inkscape:window-height="480"
   id="namedview7"
   showgrid="false"
   inkscape:zoom="5.8387057"
   inkscape:cx="23.7925"
   inkscape:cy="24.663"
   inkscape:window-x="7"
   inkscape:window-y="0"
   inkscape:window-maximized="0"
   inkscape:current-layer="Pippy_activity" />

<path
   fill="&fill_color;"
   stroke="&stroke_color;"
   stroke-width="2"
   d="M 30.689595,16.460324 L 24.320145,12.001708 L 2.7550028,23.830689 L 23.319231,38.662412 L 45.157349,26.742438 L 36.877062,21.100925"
   id="path3195" />



<path
   inkscape:connector-curvature="0"
   id="77668656"
   style="fill:&fill_color;;stroke:&stroke_color;;stroke-width:1.73075128;stroke-miterlimit:4;stroke-dasharray:none"
   d="m 31.50898,7.917836 0,0 c 0.543621,0.54362 0.543621,1.436712 0,1.980331 l -3.074046,3.074047 c -0.550092,0.550093 -1.443184,0.550093 -1.986804,0.0064 l 0,0 c -0.543622,-0.54362 -0.543622,-1.436712 0.0064,-1.986804 l 3.074047,-3.074046 c 0.543619,-0.543621 1.436712,-0.543621 1.980331,0 z m -9.379327,9.379325 0,0 c 0.54362,0.543622 0.54362,1.436713 0,1.980334 l -3.074046,3.074046 c -0.54362,0.543621 -1.436715,0.543621 -1.980334,0 l 0,0 c -0.543619,-0.543621 -0.543619,-1.436712 0,-1.980333 l 3.074048,-3.074047 c 0.54362,-0.543619 1.436712,-0.543619 1.980332,0 z m 9.379327,5.05438 0,0 c -0.54362,0.543621 -1.436713,0.543621 -1.980333,0 l -3.074046,-3.074046 c -0.550093,-0.550094 -0.550093,-1.443185 -0.0064,-1.986805 l 0,0 c 0.543621,-0.54362 1.436713,-0.54362 1.986803,0.0064 l 3.074048,3.074046 c 0.543621,0.543621 0.543621,1.436712 0,1.980334 z m -9.379327,-9.379327 0,0 c -0.54362,0.543621 -1.436712,0.543621 -1.980332,0 L 17.075273,9.898167 c -0.543619,-0.543619 -0.543619,-1.436711 0,-1.980331 l 0,0 c 0.543619,-0.543622 1.436714,-0.543622 1.980334,0 l 3.074046,3.074046 c 0.54362,0.543621 0.54362,1.436712 0,1.980332 z M 15.90876,23.765307 c 4.821821,4.821821 12.686664,4.821821 17.508487,0 4.821821,-4.821823 4.821821,-12.686665 0,-17.508488 -4.821823,-4.8218223 -12.686666,-4.8218223 -17.508487,0 -4.821825,4.821823 -4.821825,12.686665 0,17.508488 z" /></svg>
