<?xml version="1.0" encoding="UTF-8" standalone="no"?>
<!-- Created with Inkscape (http://www.inkscape.org/) -->

<svg
   xmlns:svg="http://www.w3.org/2000/svg"
   xmlns="http://www.w3.org/2000/svg"
   version="1.0"
   width="44"
   height="44"
   id="svg2">

  <path
     transform="matrix(0.86854798,0.25388726,-0.23730632,0.8128907,39.445755,-2.1269695)"
     inkscape:transform-center-y="-0.22172215"
     inkscape:transform-center-x="0.45339864"
     d="m -0.30555571,18.486112 -4.71907559,0.06625 -2.620738,3.925022 -1.5212854,-4.467634 -4.5427703,-1.279571 3.7788693,-2.827403 -0.1868483,-4.7158411 3.856755,2.7202031 4.4272917,-1.634979 -1.3952636,4.508581 z"
     inkscape:randomized="0"
     inkscape:rounded="0"
     inkscape:flatsided="false"
     sodipodi:arg2="1.0727377"
     sodipodi:arg1="0.44441921"
     sodipodi:r2="3.5535204"
     sodipodi:r1="7.1070409"
     sodipodi:cy="15.430556"
     sodipodi:cx="-6.7222223"
     sodipodi:sides="5"
     id="path3764"
     style="fill:#ffff00;fill-rule:evenodd;stroke:#ff0000;stroke-width:1px;stroke-linecap:butt;stroke-linejoin:miter;stroke-opacity:1"
     sodipodi:type="star" />
  <path
     sodipodi:type="star"
     style="fill:#ffff00;fill-rule:evenodd;stroke:#ff0000;stroke-width:1px;stroke-linecap:butt;stroke-linejoin:miter;stroke-opacity:1"
     id="path2994"
     sodipodi:sides="5"
     sodipodi:cx="-6.7222223"
     sodipodi:cy="15.430556"
     sodipodi:r1="7.1070409"
     sodipodi:r2="3.5535204"
     sodipodi:arg1="0.44441921"
     sodipodi:arg2="1.0727377"
     inkscape:flatsided="false"
     inkscape:rounded="0"
     inkscape:randomized="0"
     d="m -0.30555571,18.486112 -4.71907559,0.06625 -2.620738,3.925022 -1.5212854,-4.467634 -4.5427703,-1.279571 3.7788693,-2.827403 -0.1868483,-4.7158411 3.856755,2.7202031 4.4272917,-1.634979 -1.3952636,4.508581 z"
     inkscape:transform-center-x="-0.97284744"
     inkscape:transform-center-y="0.023120212"
     transform="matrix(1.5210677,-0.67824266,0.64601651,1.4487954,12.021243,-13.469474)" />
  <path
     inkscape:connector-curvature="0"
     style="fill:#c44000;fill-opacity:1;stroke:#a00000;stroke-width:1.40640068;stroke-linecap:butt;stroke-linejoin:round;stroke-opacity:1;stroke-dasharray:none"
     id="path2394"
     d="m 17.129876,22.847222 0.458333,-6.083333 -7.474794,-8.1527779 0.401974,6.3749999 z"
     sodipodi:nodetypes="ccccc" />
  <path
     inkscape:connector-curvature="0"
     style="fill:#c44000;fill-opacity:1;stroke:#a00000;stroke-width:1.40600002;stroke-linejoin:round;stroke-miterlimit:4;stroke-opacity:1;stroke-dasharray:none"
     id="path2390"
     d="M 21.840861,16.305556 15.167528,8.9166667 10.113415,8.6111111 17.588209,16.763889 z"
     sodipodi:nodetypes="ccccc" />
  <path
     inkscape:connector-curvature="0"
     style="fill:#c4a000;fill-opacity:1;stroke:#a00000;stroke-width:1.40640068;stroke-linejoin:round;stroke-opacity:1;stroke-dasharray:none"
     id="path2392"
     d="M 33.163848,40.055556 32.935337,34.333333 17.588209,16.763889 17.129876,22.847222 z"
     sodipodi:nodetypes="ccccc" />
  <path
     inkscape:connector-curvature="0"
     style="fill:#c4a000;fill-opacity:1;stroke:#a00000;stroke-width:1.40640068;stroke-linejoin:round;stroke-opacity:1;stroke-dasharray:none"
     id="path2388"
     d="M 38.735648,34.638889 21.840861,16.305556 17.588209,16.763889 33.25099,34.333333 z"
     sodipodi:nodetypes="ccccc" />
  <path
     inkscape:connector-curvature="0"
     style="fill:#e0d000;fill-opacity:1;stroke:#a00000;stroke-width:1.40640068;stroke-linejoin:round;stroke-opacity:1;stroke-dasharray:none"
     id="path2384"
     d="m 38.457206,40.055556 0.357356,-5.416667 -5.484658,-0.305556 -0.308736,6.027778 z"
     sodipodi:nodetypes="ccccc" />
  <path
     sodipodi:type="star"
     style="fill:#ffff00;fill-rule:evenodd;stroke:#ff0000;stroke-width:1px;stroke-linecap:butt;stroke-linejoin:miter;stroke-opacity:1"
     id="path3766"
     sodipodi:sides="5"
     sodipodi:cx="-6.7222223"
     sodipodi:cy="15.430556"
     sodipodi:r1="7.1070409"
     sodipodi:r2="3.5535204"
     sodipodi:arg1="0.44441921"
     sodipodi:arg2="1.0727377"
     inkscape:flatsided="false"
     inkscape:rounded="0"
     inkscape:randomized="0"
     d="m -0.30555571,18.486112 -4.71907559,0.06625 -2.620738,3.925022 -1.5212854,-4.467634 -4.5427703,-1.279571 3.7788693,-2.827403 -0.1868483,-4.7158411 3.856755,2.7202031 4.4272917,-1.634979 -1.3952636,4.508581 z"
     inkscape:transform-center-x="1.7734802"
     inkscape:transform-center-y="3.2797783"
     transform="matrix(0.33730801,0.31160785,-0.2936294,0.32824654,47.132396,8.4894889)" />
</svg>
