<?xml version="1.0" encoding="UTF-8" standalone="no"?>
<!-- Created with Inkscape (http://www.inkscape.org/) -->

<svg
   xmlns:dc="http://purl.org/dc/elements/1.1/"
   xmlns:cc="http://creativecommons.org/ns#"
   xmlns:rdf="http://www.w3.org/1999/02/22-rdf-syntax-ns#"
   xmlns:svg="http://www.w3.org/2000/svg"
   xmlns="http://www.w3.org/2000/svg"
   xmlns:xlink="http://www.w3.org/1999/xlink"
   xmlns:sodipodi="http://sodipodi.sourceforge.net/DTD/sodipodi-0.dtd"
   xmlns:inkscape="http://www.inkscape.org/namespaces/inkscape"
   version="1.0"
   width="55"
   height="55"
   id="svg2381"
   sodipodi:version="0.32"
   inkscape:version="0.48.1 r9760"
   sodipodi:docname="butiaon.svg"
   inkscape:output_extension="org.inkscape.output.svg.inkscape">
  <metadata
     id="metadata3470">
    <rdf:RDF>
      <cc:Work
         rdf:about="">
        <dc:format>image/svg+xml</dc:format>
        <dc:type
           rdf:resource="http://purl.org/dc/dcmitype/StillImage" />
      </cc:Work>
    </rdf:RDF>
  </metadata>
  <sodipodi:namedview
     inkscape:window-height="776"
     inkscape:window-width="1280"
     inkscape:pageshadow="2"
     inkscape:pageopacity="0.0"
     guidetolerance="10.0"
     gridtolerance="10.0"
     objecttolerance="10.0"
     borderopacity="1.0"
     bordercolor="#666666"
     pagecolor="#ffffff"
     id="base"
     showgrid="false"
     inkscape:zoom="8"
     inkscape:cx="11.472576"
     inkscape:cy="22.330244"
     inkscape:window-x="0"
     inkscape:window-y="24"
     inkscape:current-layer="layer1"
     showborder="true"
     inkscape:window-maximized="1" />
  <defs
     id="defs2383">
    <inkscape:perspective
       sodipodi:type="inkscape:persp3d"
       inkscape:vp_x="0 : 250.18124 : 1"
       inkscape:vp_y="0 : 1000 : 0"
       inkscape:vp_z="487.29123 : 250.18124 : 1"
       inkscape:persp3d-origin="243.64561 : 166.7875 : 1"
       id="perspective3472" />
    <inkscape:perspective
       id="perspective3554"
       inkscape:persp3d-origin="372.04724 : 350.78739 : 1"
       inkscape:vp_z="744.09448 : 526.18109 : 1"
       inkscape:vp_y="0 : 1000 : 0"
       inkscape:vp_x="0 : 526.18109 : 1"
       sodipodi:type="inkscape:persp3d" />
  </defs>
  <g
     transform="translate(-319.91163,-386.76719)"
     id="layer1">
    <path
       sodipodi:type="arc"
       style="fill:#ffd000;fill-opacity:1;stroke:none"
       id="path3033"
       sodipodi:cx="27"
       sodipodi:cy="26.9375"
       sodipodi:rx="17.125"
       sodipodi:ry="16.9375"
       d="m 44.125,26.9375 a 17.125,16.9375 0 1 1 -34.25,0 17.125,16.9375 0 1 1 34.25,0 z"
       transform="matrix(0.9,0,0,0.9,323.3498,390.6533)" />
    <path
       d="m 358.35993,394.40404 c 0,1.0187 1.90265,1.88552 2.64507,2.36772 1.02309,0.66509 1.87059,1.44767 2.72969,2.28457 0.93984,0.9145 1.4805,1.67271 2.29024,2.71246 0.47458,0.60967 1.62062,2.78562 2.21689,2.78562 0.8085,0 1.46891,-0.3381 1.46891,-1.17167 0,-1.13065 -3.40898,-4.94826 -4.23999,-5.75745 -0.9138,-0.89123 -4.55389,-4.26212 -5.90894,-4.26212 -0.53783,0 -1.20187,0.47 -1.20187,1.04087 l 0,0 0,0 z m -32.44978,7.41685 c 0,0.62961 0.42227,1.04086 1.06824,1.04086 1.23873,0 1.98045,-1.69708 2.61711,-2.52402 1.23291,-1.60175 3.41796,-3.8963 5.31482,-4.71104 0.78199,-0.33476 2.75119,-1.31465 2.75119,-2.26352 0,-0.47221 -0.15843,-0.4567 -0.26715,-0.91117 -0.78642,-0.0632 -0.27841,-0.25938 -0.8012,-0.25938 -2.17801,0 -10.68301,7.59088 -10.68301,9.62827 l 0,0 0,0 z m 12.15191,5.98579 c 0,1.67492 1.56148,2.62711 2.63756,3.67573 0.32459,0.31702 3.10465,3.004 3.10465,3.09157 0,1.1517 -6.00936,4.72766 -6.00936,7.02666 0,1.43216 0.98988,2.4719 2.40374,2.4719 2.289,0 6.47065,-5.8561 7.21113,-5.8561 0.56182,0 5.58686,5.6189 6.4098,5.72531 1.87435,0.19176 3.20506,-0.62851 3.20506,-2.47302 0,-2.06954 -5.88608,-5.58342 -6.00924,-7.02557 l 5.47507,-5.07573 c 0.28386,-0.45781 0.26703,-0.4046 0.26703,-0.91007 0,-1.3601 -0.61289,-2.86321 -2.27012,-2.86321 -2.56887,0 -5.18756,4.36299 -7.0776,5.59562 -1.68476,-1.0985 -4.70855,-5.59562 -6.81046,-5.59562 -1.27374,0 -2.53726,0.86462 -2.53726,2.21253 l 0,0 0,0 z m 23.54138,26.843 c 1.06869,-0.75599 1.74708,-1.32242 2.66542,-2.21696 0.69363,-0.67617 4.37363,-4.47383 4.37363,-5.23757 0,-0.93889 -0.29991,-1.43106 -1.33551,-1.43106 -0.68282,0 -1.84875,2.04404 -2.36883,2.63597 -1.6047,1.82677 -3.11886,3.36091 -5.18938,4.70329 -0.66099,0.42787 -2.72413,1.3324 -2.72413,2.15933 0,0.71497 0.34414,1.30134 1.20176,1.30134 0.87399,0 2.6254,-1.38226 3.37704,-1.91434 l 0,0 0,0 z m -29.14997,-19.94602 c 0,-3.98167 1.95066,-7.7106 4.03926,-9.72693 1.59116,-1.53635 1.95703,-1.86336 4.0189,-2.9807 4.52238,-2.44864 9.77591,-1.88996 14.30385,0.28598 2.63189,1.26589 4.60735,3.69125 5.97218,6.15208 3.05348,5.50361 1.35063,12.50367 -2.99489,16.77687 -2.89984,2.85212 -6.40571,3.89299 -10.24697,4.10027 -4.25421,-0.52764 -7.43209,-1.07633 -10.58531,-4.16567 -2.85605,-2.7978 -4.50702,-6.49127 -4.50702,-10.4419 l 0,0 0,0 z m 0.768,13.30511 c 1.35166,1.31688 3.35235,2.98846 5.14594,3.83424 1.37168,0.64623 5.18643,1.98861 7.03928,1.98861 l 2.6709,0 c 10.17213,0 18.96236,-8.71821 18.96236,-18.60808 l 0,-1.56075 c 0,-2.90643 -1.17037,-5.1489 -1.98693,-7.17298 -0.7672,-1.90104 -2.53011,-3.93068 -3.92189,-5.28635 -2.73721,-2.66812 -7.65683,-5.49806 -13.05354,-5.49806 -6.05475,0 -12.079,2.25132 -15.91708,7.00116 -2.32335,2.8754 -4.3809,6.92136 -4.3809,11.9971 0,4.95381 1.81384,9.77016 5.44186,13.30511 l 0,0 0,0 z m 3.77234,7.25391 c 0,-1.56741 -1.71229,-1.84341 -2.75106,-2.52403 -1.97556,-1.29358 -3.90291,-2.96186 -5.31688,-4.83851 -0.57228,-0.76042 -1.46948,-2.52623 -2.48165,-2.52623 -0.91015,0 -1.06825,0.75709 -1.06825,1.43105 0,0.78924 3.77917,4.9272 4.54024,5.46481 1.02502,0.72495 4.64019,3.90408 6.00925,3.90408 0.40282,0 1.06835,-0.53097 1.06835,-0.91117 l 0,0 0,0 z"
       id="path32"
       style="fill:#85c229;stroke:none"
       inkscape:connector-curvature="0" />
    <image
       sodipodi:absref="/home/xopxe/workspace/butia/butialo/Butialo.activity/icons/pastedpic_12032010_005538.png"
       xlink:href="pastedpic_12032010_005538.png"
       style="fill:#ffd000;fill-opacity:1"
       width="1280"
       height="800"
       id="image3556"
       x="763.28656"
       y="-444.59464" />
    <path
       style="opacity:1;fill:#ffd000;fill-opacity:1;fill-rule:nonzero;stroke:none;stroke-width:1;stroke-linecap:butt;stroke-linejoin:miter;marker:none;marker-start:none;marker-mid:none;marker-end:none;stroke-miterlimit:4;stroke-dasharray:none;stroke-dashoffset:0;stroke-opacity:1;visibility:visible;display:inline;overflow:visible;enable-background:accumulate"
       d=""
       id="path3562"
       transform="translate(318.49258,386.48691)" />
    <path
       style="fill:#ffd000;fill-opacity:1;fill-rule:nonzero;stroke:none;stroke-width:1;marker:none;visibility:visible;display:inline;overflow:visible;enable-background:accumulate"
       d="m 332.7467,417.54643 c -0.007,-0.0232 -0.067,-0.33995 -0.0918,-0.48503 -0.13094,-0.76883 -0.19685,-1.55508 -0.19694,-2.34948 -4e-5,-0.42568 0.0132,-0.73013 0.0496,-1.1392 l 0.009,-0.0963 0.045,0 0.045,0 -0.003,0.0186 c -0.007,0.0528 -0.0335,0.39514 -0.0433,0.5694 -0.0257,0.45663 -0.0266,1.01251 -0.003,1.46873 0.034,0.63791 0.11068,1.26277 0.2312,1.88391 0.0141,0.0728 0.0256,0.13364 0.0256,0.13522 0,0.002 -0.0148,0.003 -0.0328,0.003 -0.0268,0 -0.0332,-0.002 -0.0355,-0.009 l 0,0 z"
       id="path3572"
       inkscape:connector-curvature="0" />
    <path
       style="opacity:1;fill:#ffd000;fill-opacity:1;fill-rule:nonzero;stroke:none;stroke-width:1;stroke-linecap:butt;stroke-linejoin:miter;marker:none;marker-start:none;marker-mid:none;marker-end:none;stroke-miterlimit:4;stroke-dasharray:none;stroke-dashoffset:0;stroke-opacity:1;visibility:visible;display:inline;overflow:visible;enable-background:accumulate"
       d=""
       id="path3584"
       transform="translate(318.49258,386.48691)" />
    <path
       style="opacity:1;fill:#ffd000;fill-opacity:1;fill-rule:nonzero;stroke:none;stroke-width:1;stroke-linecap:butt;stroke-linejoin:miter;marker:none;marker-start:none;marker-mid:none;marker-end:none;stroke-miterlimit:4;stroke-dasharray:none;stroke-dashoffset:0;stroke-opacity:1;visibility:visible;display:inline;overflow:visible;enable-background:accumulate"
       d=""
       id="path3588"
       transform="translate(318.49258,386.48691)" />
    <path
       style="opacity:1;fill:#ffd000;fill-opacity:1;fill-rule:nonzero;stroke:none;stroke-width:1;stroke-linecap:butt;stroke-linejoin:miter;marker:none;marker-start:none;marker-mid:none;marker-end:none;stroke-miterlimit:4;stroke-dasharray:none;stroke-dashoffset:0;stroke-opacity:1;visibility:visible;display:inline;overflow:visible;enable-background:accumulate"
       d=""
       id="path3600"
       transform="translate(318.49258,386.48691)" />
    <path
       style="fill:#ffd000;fill-opacity:1;fill-rule:nonzero;stroke:none;stroke-width:1;marker:none;visibility:visible;display:inline;overflow:visible;enable-background:accumulate"
       d="m 362.15174,416.30308 c 0,-0.003 0.004,-0.0344 0.009,-0.071 0.0137,-0.10314 0.0392,-0.34273 0.0533,-0.49965 0.0349,-0.39184 0.0553,-0.83919 0.0551,-1.20721 -1.3e-4,-0.16104 -0.005,-0.43486 -0.009,-0.49622 l -0.003,-0.0373 0.0321,0 0.0321,0 0.002,0.0285 c 0.009,0.12193 0.0123,0.64979 0.005,0.89285 -0.0122,0.43597 -0.0486,0.92277 -0.0983,1.31696 l -0.009,0.0752 -0.0349,9e-4 c -0.0263,8.3e-4 -0.0349,10e-6 -0.0349,-0.004 l 0,0 z"
       id="path3620"
       inkscape:connector-curvature="0" />
  </g>
</svg>
