<?xml version="1.0" encoding="UTF-8" standalone="no"?>
<!-- Creator: CorelDRAW -->

<svg
   xmlns:dc="http://purl.org/dc/elements/1.1/"
   xmlns:cc="http://creativecommons.org/ns#"
   xmlns:rdf="http://www.w3.org/1999/02/22-rdf-syntax-ns#"
   xmlns:svg="http://www.w3.org/2000/svg"
   xmlns="http://www.w3.org/2000/svg"
   xmlns:sodipodi="http://sodipodi.sourceforge.net/DTD/sodipodi-0.dtd"
   xmlns:inkscape="http://www.inkscape.org/namespaces/inkscape"
   xml:space="preserve"
   x="-382.63501"
   y="495.13501"
   width="2104.7244"
   height="1488.189"
   viewBox="-4252 0 23386.494 16535.899"
   id="svg2"
   version="1.1"
   inkscape:version="0.47 r22583"
   sodipodi:docname="plancha_butia1.svg"><metadata
   id="metadata297"><rdf:RDF><cc:Work
       rdf:about=""><dc:format>image/svg+xml</dc:format><dc:type
         rdf:resource="http://purl.org/dc/dcmitype/StillImage" /></cc:Work></rdf:RDF></metadata><sodipodi:namedview
   pagecolor="#ffffff"
   bordercolor="#666666"
   borderopacity="1"
   objecttolerance="10"
   gridtolerance="10"
   guidetolerance="10"
   inkscape:pageopacity="0"
   inkscape:pageshadow="2"
   inkscape:window-width="1158"
   inkscape:window-height="744"
   id="namedview295"
   showgrid="false"
   inkscape:zoom="0.25"
   inkscape:cx="1417.4595"
   inkscape:cy="743.31801"
   inkscape:window-x="0"
   inkscape:window-y="24"
   inkscape:window-maximized="0"
   inkscape:current-layer="svg2" />
 <defs
   id="defs4"><inkscape:perspective
   sodipodi:type="inkscape:persp3d"
   inkscape:vp_x="0 : 797.3775 : 1"
   inkscape:vp_y="0 : 1000 : 0"
   inkscape:vp_z="2834.9189 : 797.3775 : 1"
   inkscape:persp3d-origin="1417.4595 : 531.585 : 1"
   id="perspective299" />
  <style
   type="text/css"
   id="style6">
   
    .str0 {stroke:#1F1A17;stroke-width:3}
    .fil0 {fill:none}
   
  </style>
 
  
  
  
  
  
  
  
  
  
  
 </defs>
 <g
   id="g9"
   transform="translate(0,-1184.1005)">
   <rect
   style="fill:none;stroke:#1f1a17;stroke-width:3"
   height="1278"
   width="197"
   y="12290"
   x="-2390"
   class="fil0 str0"
   id="21293240" />
   <rect
   style="fill:none;stroke:#1f1a17;stroke-width:3"
   height="236"
   width="236"
   y="11423"
   x="-2956"
   class="fil0 str0"
   id="21293328" />
   <rect
   style="fill:none;stroke:#1f1a17;stroke-width:3"
   height="236"
   width="236"
   y="13758"
   x="-2956"
   class="fil0 str0"
   id="21293416" />
   <path
   style="fill:none;stroke:#1f1a17;stroke-width:3"
   d="m 4933,12290 -196,0 0,1278 196,0 0,-1278 z"
   class="fil0 str0"
   id="21293768" />
   <path
   style="fill:none;stroke:#1f1a17;stroke-width:3"
   d="m 1262,17718 4724,0 c 433,0 788,-354 788,-787 l 0,-2756 -788,0 0,-607 -197,0 0,-1278 197,0 0,-2052 788,0 0,-2756 c 0,-433 -355,-788 -788,-788 l -4724,0 m 0,11024 -4725,0 c -433,0 -787,-354 -787,-787 l 0,-2756 787,0 0,-607 197,0 0,-1278 -197,0 0,-2052 -787,0 0,-2756 c 0,-433 354,-788 787,-788 l 4725,0"
   class="fil0 str0"
   id="21293856" />
   <rect
   style="fill:none;stroke:#1f1a17;stroke-width:3"
   height="236"
   width="236"
   y="11423"
   x="5243"
   class="fil0 str0"
   id="21293944" />
   <rect
   style="fill:none;stroke:#1f1a17;stroke-width:3"
   height="236"
   width="236"
   y="13758"
   x="5243"
   class="fil0 str0"
   id="21294032" />
   <rect
   style="fill:none;stroke:#1f1a17;stroke-width:3"
   height="2953"
   width="2362"
   y="7335"
   x="81"
   class="fil0 str0"
   id="21294120" />
   <rect
   style="fill:none;stroke:#1f1a17;stroke-width:3"
   height="787"
   width="189"
   y="16179"
   x="-3459"
   class="fil0 str0"
   id="21294208" />
   <path
   style="fill:none;stroke:#1f1a17;stroke-width:3"
   d="m 5797,16179 189,0 0,788 -189,0 0,-788 z"
   class="fil0 str0"
   id="21294296" />
   <rect
   style="fill:none;stroke:#1f1a17;stroke-width:3"
   height="787"
   width="189"
   y="8305"
   x="-3459"
   class="fil0 str0"
   id="21294384" />
   <path
   style="fill:none;stroke:#1f1a17;stroke-width:3"
   d="m 5797,8305 189,0 0,788 -189,0 0,-788 z"
   class="fil0 str0"
   id="21294472" />
   <ellipse
   style="fill:none;stroke:#1f1a17;stroke-width:3"
   sodipodi:ry="79"
   sodipodi:rx="79"
   sodipodi:cy="7088"
   sodipodi:cx="5947"
   ry="79"
   rx="79"
   cy="7088"
   cx="5947"
   class="fil0 str0"
   id="21137408"
   d="m 6026,7088 c 0,43.6305 -35.3695,79 -79,79 -43.6305,0 -79,-35.3695 -79,-79 0,-43.6305 35.3695,-79 79,-79 43.6305,0 79,35.3695 79,79 z" />
   <ellipse
   style="fill:none;stroke:#1f1a17;stroke-width:3"
   sodipodi:ry="79"
   sodipodi:rx="79"
   sodipodi:cy="17325"
   sodipodi:cx="5947"
   ry="79"
   rx="79"
   cy="17325"
   cx="5947"
   class="fil0 str0"
   id="64114752"
   d="m 6026,17325 c 0,43.63 -35.3695,79 -79,79 -43.6305,0 -79,-35.37 -79,-79 0,-43.63 35.3695,-79 79,-79 43.6305,0 79,35.37 79,79 z" />
   <ellipse
   style="fill:none;stroke:#1f1a17;stroke-width:3"
   sodipodi:ry="79"
   sodipodi:rx="79"
   sodipodi:cy="7088"
   sodipodi:cx="5396"
   ry="79"
   rx="79"
   cy="7088"
   cx="5396"
   class="fil0 str0"
   id="53705792"
   d="m 5475,7088 c 0,43.6305 -35.3695,79 -79,79 -43.6305,0 -79,-35.3695 -79,-79 0,-43.6305 35.3695,-79 79,-79 43.6305,0 79,35.3695 79,79 z" />
   <ellipse
   style="fill:none;stroke:#1f1a17;stroke-width:3"
   sodipodi:ry="79"
   sodipodi:rx="79"
   sodipodi:cy="17325"
   sodipodi:cx="5396"
   ry="79"
   rx="79"
   cy="17325"
   cx="5396"
   class="fil0 str0"
   id="64114840"
   d="m 5475,17325 c 0,43.63 -35.3695,79 -79,79 -43.6305,0 -79,-35.37 -79,-79 0,-43.63 35.3695,-79 79,-79 43.6305,0 79,35.37 79,79 z" />
   <ellipse
   style="fill:none;stroke:#1f1a17;stroke-width:3"
   sodipodi:ry="79"
   sodipodi:rx="79"
   sodipodi:cy="7088"
   sodipodi:cx="4844"
   ry="79"
   rx="79"
   cy="7088"
   cx="4844"
   class="fil0 str0"
   id="53705616"
   d="m 4923,7088 c 0,43.6305 -35.3695,79 -79,79 -43.6305,0 -79,-35.3695 -79,-79 0,-43.6305 35.3695,-79 79,-79 43.6305,0 79,35.3695 79,79 z" />
   <ellipse
   style="fill:none;stroke:#1f1a17;stroke-width:3"
   sodipodi:ry="79"
   sodipodi:rx="79"
   sodipodi:cy="17325"
   sodipodi:cx="4844"
   ry="79"
   rx="79"
   cy="17325"
   cx="4844"
   class="fil0 str0"
   id="64114928"
   d="m 4923,17325 c 0,43.63 -35.3695,79 -79,79 -43.6305,0 -79,-35.37 -79,-79 0,-43.63 35.3695,-79 79,-79 43.6305,0 79,35.37 79,79 z" />
   <ellipse
   style="fill:none;stroke:#1f1a17;stroke-width:3"
   sodipodi:ry="79"
   sodipodi:rx="79"
   sodipodi:cy="7088"
   sodipodi:cx="4293"
   ry="79"
   rx="79"
   cy="7088"
   cx="4293"
   class="fil0 str0"
   id="53705440"
   d="m 4372,7088 c 0,43.6305 -35.3695,79 -79,79 -43.6305,0 -79,-35.3695 -79,-79 0,-43.6305 35.3695,-79 79,-79 43.6305,0 79,35.3695 79,79 z" />
   <ellipse
   style="fill:none;stroke:#1f1a17;stroke-width:3"
   sodipodi:ry="79"
   sodipodi:rx="79"
   sodipodi:cy="17325"
   sodipodi:cx="4293"
   ry="79"
   rx="79"
   cy="17325"
   cx="4293"
   class="fil0 str0"
   id="64115016"
   d="m 4372,17325 c 0,43.63 -35.3695,79 -79,79 -43.6305,0 -79,-35.37 -79,-79 0,-43.63 35.3695,-79 79,-79 43.6305,0 79,35.37 79,79 z" />
   <ellipse
   style="fill:none;stroke:#1f1a17;stroke-width:3"
   sodipodi:ry="79"
   sodipodi:rx="79"
   sodipodi:cy="7088"
   sodipodi:cx="3742"
   ry="79"
   rx="79"
   cy="7088"
   cx="3742"
   class="fil0 str0"
   id="53705264"
   d="m 3821,7088 c 0,43.6305 -35.3695,79 -79,79 -43.6305,0 -79,-35.3695 -79,-79 0,-43.6305 35.3695,-79 79,-79 43.6305,0 79,35.3695 79,79 z" />
   <ellipse
   style="fill:none;stroke:#1f1a17;stroke-width:3"
   sodipodi:ry="79"
   sodipodi:rx="79"
   sodipodi:cy="17325"
   sodipodi:cx="3742"
   ry="79"
   rx="79"
   cy="17325"
   cx="3742"
   class="fil0 str0"
   id="64115104"
   d="m 3821,17325 c 0,43.63 -35.3695,79 -79,79 -43.6305,0 -79,-35.37 -79,-79 0,-43.63 35.3695,-79 79,-79 43.6305,0 79,35.37 79,79 z" />
   <ellipse
   style="fill:none;stroke:#1f1a17;stroke-width:3"
   sodipodi:ry="79"
   sodipodi:rx="79"
   sodipodi:cy="7088"
   sodipodi:cx="3191"
   ry="79"
   rx="79"
   cy="7088"
   cx="3191"
   class="fil0 str0"
   id="53705088"
   d="m 3270,7088 c 0,43.6305 -35.3695,79 -79,79 -43.6305,0 -79,-35.3695 -79,-79 0,-43.6305 35.3695,-79 79,-79 43.6305,0 79,35.3695 79,79 z" />
   <ellipse
   style="fill:none;stroke:#1f1a17;stroke-width:3"
   sodipodi:ry="79"
   sodipodi:rx="79"
   sodipodi:cy="17325"
   sodipodi:cx="3191"
   ry="79"
   rx="79"
   cy="17325"
   cx="3191"
   class="fil0 str0"
   id="64115192"
   d="m 3270,17325 c 0,43.63 -35.3695,79 -79,79 -43.6305,0 -79,-35.37 -79,-79 0,-43.63 35.3695,-79 79,-79 43.6305,0 79,35.37 79,79 z" />
   <ellipse
   style="fill:none;stroke:#1f1a17;stroke-width:3"
   sodipodi:ry="79"
   sodipodi:rx="79"
   sodipodi:cy="7088"
   sodipodi:cx="2640"
   ry="79"
   rx="79"
   cy="7088"
   cx="2640"
   class="fil0 str0"
   id="53704912"
   d="m 2719,7088 c 0,43.6305 -35.3695,79 -79,79 -43.6305,0 -79,-35.3695 -79,-79 0,-43.6305 35.3695,-79 79,-79 43.6305,0 79,35.3695 79,79 z" />
   <ellipse
   style="fill:none;stroke:#1f1a17;stroke-width:3"
   sodipodi:ry="79"
   sodipodi:rx="79"
   sodipodi:cy="17325"
   sodipodi:cx="2640"
   ry="79"
   rx="79"
   cy="17325"
   cx="2640"
   class="fil0 str0"
   id="64115280"
   d="m 2719,17325 c 0,43.63 -35.3695,79 -79,79 -43.6305,0 -79,-35.37 -79,-79 0,-43.63 35.3695,-79 79,-79 43.6305,0 79,35.37 79,79 z" />
   <ellipse
   style="fill:none;stroke:#1f1a17;stroke-width:3"
   sodipodi:ry="79"
   sodipodi:rx="79"
   sodipodi:cy="7088"
   sodipodi:cx="2089"
   ry="79"
   rx="79"
   cy="7088"
   cx="2089"
   class="fil0 str0"
   id="53704736"
   d="m 2168,7088 c 0,43.6305 -35.3695,79 -79,79 -43.6305,0 -79,-35.3695 -79,-79 0,-43.6305 35.3695,-79 79,-79 43.6305,0 79,35.3695 79,79 z" />
   <ellipse
   style="fill:none;stroke:#1f1a17;stroke-width:3"
   sodipodi:ry="79"
   sodipodi:rx="79"
   sodipodi:cy="7088"
   sodipodi:cx="1537"
   ry="79"
   rx="79"
   cy="7088"
   cx="1537"
   class="fil0 str0"
   id="53704560"
   d="m 1616,7088 c 0,43.6305 -35.3695,79 -79,79 -43.6305,0 -79,-35.3695 -79,-79 0,-43.6305 35.3695,-79 79,-79 43.6305,0 79,35.3695 79,79 z" />
   <ellipse
   style="fill:none;stroke:#1f1a17;stroke-width:3"
   sodipodi:ry="79"
   sodipodi:rx="79"
   sodipodi:cy="7088"
   sodipodi:cx="986"
   ry="79"
   rx="79"
   cy="7088"
   cx="986"
   class="fil0 str0"
   id="64117832"
   d="m 1065,7088 c 0,43.6305 -35.3695,79 -79,79 -43.6305,0 -79,-35.3695 -79,-79 0,-43.6305 35.3695,-79 79,-79 43.6305,0 79,35.3695 79,79 z" />
   <ellipse
   style="fill:none;stroke:#1f1a17;stroke-width:3"
   sodipodi:ry="79"
   sodipodi:rx="79"
   sodipodi:cy="7088"
   sodipodi:cx="435"
   ry="79"
   rx="79"
   cy="7088"
   cx="435"
   class="fil0 str0"
   id="64117656"
   d="m 514,7088 c 0,43.6305 -35.3695,79 -79,79 -43.6305,0 -79,-35.3695 -79,-79 0,-43.6305 35.3695,-79 79,-79 43.6305,0 79,35.3695 79,79 z" />
   <ellipse
   style="fill:none;stroke:#1f1a17;stroke-width:3"
   sodipodi:ry="79"
   sodipodi:rx="79"
   sodipodi:cy="7088"
   sodipodi:cx="-116"
   ry="79"
   rx="79"
   cy="7088"
   cx="-116"
   class="fil0 str0"
   id="64117480"
   d="m -37,7088 c 0,43.6305 -35.369505,79 -79,79 -43.6305,0 -79,-35.3695 -79,-79 0,-43.6305 35.3695,-79 79,-79 43.630495,0 79,35.3695 79,79 z" />
   <ellipse
   style="fill:none;stroke:#1f1a17;stroke-width:3"
   sodipodi:ry="79"
   sodipodi:rx="79"
   sodipodi:cy="17325"
   sodipodi:cx="-116"
   ry="79"
   rx="79"
   cy="17325"
   cx="-116"
   class="fil0 str0"
   id="64115720"
   d="m -37,17325 c 0,43.63 -35.369505,79 -79,79 -43.6305,0 -79,-35.37 -79,-79 0,-43.63 35.3695,-79 79,-79 43.630495,0 79,35.37 79,79 z" />
   <ellipse
   style="fill:none;stroke:#1f1a17;stroke-width:3"
   sodipodi:ry="79"
   sodipodi:rx="79"
   sodipodi:cy="7088"
   sodipodi:cx="-667"
   ry="79"
   rx="79"
   cy="7088"
   cx="-667"
   class="fil0 str0"
   id="64117304"
   d="m -588,7088 c 0,43.6305 -35.3695,79 -79,79 -43.6305,0 -79,-35.3695 -79,-79 0,-43.6305 35.3695,-79 79,-79 43.6305,0 79,35.3695 79,79 z" />
   <ellipse
   style="fill:none;stroke:#1f1a17;stroke-width:3"
   sodipodi:ry="79"
   sodipodi:rx="79"
   sodipodi:cy="17325"
   sodipodi:cx="-667"
   ry="79"
   rx="79"
   cy="17325"
   cx="-667"
   class="fil0 str0"
   id="64115808"
   d="m -588,17325 c 0,43.63 -35.3695,79 -79,79 -43.6305,0 -79,-35.37 -79,-79 0,-43.63 35.3695,-79 79,-79 43.6305,0 79,35.37 79,79 z" />
   <ellipse
   style="fill:none;stroke:#1f1a17;stroke-width:3"
   sodipodi:ry="79"
   sodipodi:rx="79"
   sodipodi:cy="7088"
   sodipodi:cx="-1219"
   ry="79"
   rx="79"
   cy="7088"
   cx="-1219"
   class="fil0 str0"
   id="64117128"
   d="m -1140,7088 c 0,43.6305 -35.3695,79 -79,79 -43.6305,0 -79,-35.3695 -79,-79 0,-43.6305 35.3695,-79 79,-79 43.6305,0 79,35.3695 79,79 z" />
   <ellipse
   style="fill:none;stroke:#1f1a17;stroke-width:3"
   sodipodi:ry="79"
   sodipodi:rx="79"
   sodipodi:cy="17325"
   sodipodi:cx="-1219"
   ry="79"
   rx="79"
   cy="17325"
   cx="-1219"
   class="fil0 str0"
   id="64115896"
   d="m -1140,17325 c 0,43.63 -35.3695,79 -79,79 -43.6305,0 -79,-35.37 -79,-79 0,-43.63 35.3695,-79 79,-79 43.6305,0 79,35.37 79,79 z" />
   <ellipse
   style="fill:none;stroke:#1f1a17;stroke-width:3"
   sodipodi:ry="79"
   sodipodi:rx="79"
   sodipodi:cy="7088"
   sodipodi:cx="-1770"
   ry="79"
   rx="79"
   cy="7088"
   cx="-1770"
   class="fil0 str0"
   id="64116952"
   d="m -1691,7088 c 0,43.6305 -35.3695,79 -79,79 -43.6305,0 -79,-35.3695 -79,-79 0,-43.6305 35.3695,-79 79,-79 43.6305,0 79,35.3695 79,79 z" />
   <ellipse
   style="fill:none;stroke:#1f1a17;stroke-width:3"
   sodipodi:ry="79"
   sodipodi:rx="79"
   sodipodi:cy="17325"
   sodipodi:cx="-1770"
   ry="79"
   rx="79"
   cy="17325"
   cx="-1770"
   class="fil0 str0"
   id="64115984"
   d="m -1691,17325 c 0,43.63 -35.3695,79 -79,79 -43.6305,0 -79,-35.37 -79,-79 0,-43.63 35.3695,-79 79,-79 43.6305,0 79,35.37 79,79 z" />
   <ellipse
   style="fill:none;stroke:#1f1a17;stroke-width:3"
   sodipodi:ry="79"
   sodipodi:rx="79"
   sodipodi:cy="7088"
   sodipodi:cx="-2321"
   ry="79"
   rx="79"
   cy="7088"
   cx="-2321"
   class="fil0 str0"
   id="64116776"
   d="m -2242,7088 c 0,43.6305 -35.3695,79 -79,79 -43.6305,0 -79,-35.3695 -79,-79 0,-43.6305 35.3695,-79 79,-79 43.6305,0 79,35.3695 79,79 z" />
   <ellipse
   style="fill:none;stroke:#1f1a17;stroke-width:3"
   sodipodi:ry="79"
   sodipodi:rx="79"
   sodipodi:cy="17325"
   sodipodi:cx="-2321"
   ry="79"
   rx="79"
   cy="17325"
   cx="-2321"
   class="fil0 str0"
   id="64116072"
   d="m -2242,17325 c 0,43.63 -35.3695,79 -79,79 -43.6305,0 -79,-35.37 -79,-79 0,-43.63 35.3695,-79 79,-79 43.6305,0 79,35.37 79,79 z" />
   <ellipse
   style="fill:none;stroke:#1f1a17;stroke-width:3"
   sodipodi:ry="79"
   sodipodi:rx="79"
   sodipodi:cy="7088"
   sodipodi:cx="-2872"
   ry="79"
   rx="79"
   cy="7088"
   cx="-2872"
   class="fil0 str0"
   id="64116600"
   d="m -2793,7088 c 0,43.6305 -35.3695,79 -79,79 -43.6305,0 -79,-35.3695 -79,-79 0,-43.6305 35.3695,-79 79,-79 43.6305,0 79,35.3695 79,79 z" />
   <ellipse
   style="fill:none;stroke:#1f1a17;stroke-width:3"
   sodipodi:ry="79"
   sodipodi:rx="79"
   sodipodi:cy="17325"
   sodipodi:cx="-2872"
   ry="79"
   rx="79"
   cy="17325"
   cx="-2872"
   class="fil0 str0"
   id="64116160"
   d="m -2793,17325 c 0,43.63 -35.3695,79 -79,79 -43.6305,0 -79,-35.37 -79,-79 0,-43.63 35.3695,-79 79,-79 43.6305,0 79,35.37 79,79 z" />
   <ellipse
   style="fill:none;stroke:#1f1a17;stroke-width:3"
   sodipodi:ry="79"
   sodipodi:rx="79"
   sodipodi:cy="7088"
   sodipodi:cx="-3423"
   ry="79"
   rx="79"
   cy="7088"
   cx="-3423"
   class="fil0 str0"
   id="64116424"
   d="m -3344,7088 c 0,43.6305 -35.3695,79 -79,79 -43.6305,0 -79,-35.3695 -79,-79 0,-43.6305 35.3695,-79 79,-79 43.6305,0 79,35.3695 79,79 z" />
   <ellipse
   style="fill:none;stroke:#1f1a17;stroke-width:3"
   sodipodi:ry="79"
   sodipodi:rx="79"
   sodipodi:cy="17325"
   sodipodi:cx="-3423"
   ry="79"
   rx="79"
   cy="17325"
   cx="-3423"
   class="fil0 str0"
   id="64116248"
   d="m -3344,17325 c 0,43.63 -35.3695,79 -79,79 -43.6305,0 -79,-35.37 -79,-79 0,-43.63 35.3695,-79 79,-79 43.6305,0 79,35.37 79,79 z" />
   <g
   id="g55">
    <path
   style="fill:none;stroke:#1f1a17;stroke-width:3"
   d="m 671,17521 c 54,0 99,-44 99,-98 0,-54 -45,-99 -99,-99 -54,0 -98,45 -98,99 0,54 44,98 98,98 z"
   class="fil0 str0"
   id="21138376" />
    <path
   style="fill:none;stroke:#1f1a17;stroke-width:3"
   d="m 671,16340 c 54,0 99,-44 99,-98 0,-55 -45,-99 -99,-99 -54,0 -98,44 -98,99 0,54 44,98 98,98 z"
   class="fil0 str0"
   id="21138464" />
    <path
   style="fill:none;stroke:#1f1a17;stroke-width:3"
   d="m 1852,17521 c 55,0 99,-44 99,-98 0,-54 -44,-99 -99,-99 -54,0 -98,45 -98,99 0,54 44,98 98,98 z"
   class="fil0 str0"
   id="21138552" />
    <path
   style="fill:none;stroke:#1f1a17;stroke-width:3"
   d="m 1852,16340 c 55,0 99,-44 99,-98 0,-55 -44,-99 -99,-99 -54,0 -98,44 -98,99 0,54 44,98 98,98 z"
   class="fil0 str0"
   id="21138640" />
   </g>
   <rect
   style="fill:none;stroke:#1f1a17;stroke-width:3"
   height="748"
   width="512"
   y="7931"
   x="6126"
   class="fil0 str0"
   id="21138816" />
   <path
   style="fill:none;stroke:#1f1a17;stroke-width:3"
   d="m 1852,10907 c 44,0 79,-35 79,-79 0,-43 -35,-79 -79,-79 -43,0 -78,36 -78,79 0,44 35,79 78,79 z"
   class="fil0 str0"
   id="21138904" />
   <path
   style="fill:none;stroke:#1f1a17;stroke-width:3"
   d="m 671,10907 c 44,0 79,-35 79,-79 0,-43 -35,-79 -79,-79 -43,0 -78,36 -78,79 0,44 35,79 78,79 z"
   class="fil0 str0"
   id="21138992" />
   <ellipse
   style="fill:none;stroke:#1f1a17;stroke-width:3"
   sodipodi:ry="79"
   sodipodi:rx="79"
   sodipodi:cy="16984"
   sodipodi:cx="6380"
   ry="79"
   rx="79"
   cy="16984"
   cx="6380"
   class="fil0 str0"
   id="21141720"
   d="m 6459,16984 c 0,43.63 -35.3695,79 -79,79 -43.6305,0 -79,-35.37 -79,-79 0,-43.63 35.3695,-79 79,-79 43.6305,0 79,35.37 79,79 z" />
   <ellipse
   style="fill:none;stroke:#1f1a17;stroke-width:3"
   sodipodi:ry="79"
   sodipodi:rx="79"
   sodipodi:cy="16984"
   sodipodi:cx="-3856"
   ry="79"
   rx="79"
   cy="16984"
   cx="-3856"
   class="fil0 str0"
   id="64113520"
   d="m -3777,16984 c 0,43.63 -35.3695,79 -79,79 -43.6305,0 -79,-35.37 -79,-79 0,-43.63 35.3695,-79 79,-79 43.6305,0 79,35.37 79,79 z" />
   <ellipse
   style="fill:none;stroke:#1f1a17;stroke-width:3"
   sodipodi:ry="79"
   sodipodi:rx="79"
   sodipodi:cy="9634"
   sodipodi:cx="-3856"
   ry="79"
   rx="79"
   cy="9634"
   cx="-3856"
   class="fil0 str0"
   id="64112552"
   d="m -3777,9634 c 0,43.6305 -35.3695,79 -79,79 -43.6305,0 -79,-35.3695 -79,-79 0,-43.6305 35.3695,-79 79,-79 43.6305,0 79,35.3695 79,79 z" />
   <ellipse
   style="fill:none;stroke:#1f1a17;stroke-width:3"
   sodipodi:ry="79"
   sodipodi:rx="79"
   sodipodi:cy="16432"
   sodipodi:cx="6380"
   ry="79"
   rx="79"
   cy="16432"
   cx="6380"
   class="fil0 str0"
   id="64114576"
   d="m 6459,16432 c 0,43.63 -35.3695,79 -79,79 -43.6305,0 -79,-35.37 -79,-79 0,-43.63 35.3695,-79 79,-79 43.6305,0 79,35.37 79,79 z" />
   <ellipse
   style="fill:none;stroke:#1f1a17;stroke-width:3"
   sodipodi:ry="79"
   sodipodi:rx="79"
   sodipodi:cy="16432"
   sodipodi:cx="-3856"
   ry="79"
   rx="79"
   cy="16432"
   cx="-3856"
   class="fil0 str0"
   id="64113608"
   d="m -3777,16432 c 0,43.63 -35.3695,79 -79,79 -43.6305,0 -79,-35.37 -79,-79 0,-43.63 35.3695,-79 79,-79 43.6305,0 79,35.37 79,79 z" />
   <ellipse
   style="fill:none;stroke:#1f1a17;stroke-width:3"
   sodipodi:ry="79"
   sodipodi:rx="79"
   sodipodi:cy="9082"
   sodipodi:cx="-3856"
   ry="79"
   rx="79"
   cy="9082"
   cx="-3856"
   class="fil0 str0"
   id="64112640"
   d="m -3777,9082 c 0,43.6305 -35.3695,79 -79,79 -43.6305,0 -79,-35.3695 -79,-79 0,-43.6305 35.3695,-79 79,-79 43.6305,0 79,35.3695 79,79 z" />
   <ellipse
   style="fill:none;stroke:#1f1a17;stroke-width:3"
   sodipodi:ry="79"
   sodipodi:rx="79"
   sodipodi:cy="15881"
   sodipodi:cx="6380"
   ry="79"
   rx="79"
   cy="15881"
   cx="6380"
   class="fil0 str0"
   id="64114400"
   d="m 6459,15881 c 0,43.63 -35.3695,79 -79,79 -43.6305,0 -79,-35.37 -79,-79 0,-43.63 35.3695,-79 79,-79 43.6305,0 79,35.37 79,79 z" />
   <ellipse
   style="fill:none;stroke:#1f1a17;stroke-width:3"
   sodipodi:ry="79"
   sodipodi:rx="79"
   sodipodi:cy="15881"
   sodipodi:cx="-3856"
   ry="79"
   rx="79"
   cy="15881"
   cx="-3856"
   class="fil0 str0"
   id="64113696"
   d="m -3777,15881 c 0,43.63 -35.3695,79 -79,79 -43.6305,0 -79,-35.37 -79,-79 0,-43.63 35.3695,-79 79,-79 43.6305,0 79,35.37 79,79 z" />
   <ellipse
   style="fill:none;stroke:#1f1a17;stroke-width:3"
   sodipodi:ry="79"
   sodipodi:rx="79"
   sodipodi:cy="8531"
   sodipodi:cx="-3856"
   ry="79"
   rx="79"
   cy="8531"
   cx="-3856"
   class="fil0 str0"
   id="64112728"
   d="m -3777,8531 c 0,43.6305 -35.3695,79 -79,79 -43.6305,0 -79,-35.3695 -79,-79 0,-43.6305 35.3695,-79 79,-79 43.6305,0 79,35.3695 79,79 z" />
   <ellipse
   style="fill:none;stroke:#1f1a17;stroke-width:3"
   sodipodi:ry="79"
   sodipodi:rx="79"
   sodipodi:cy="15330"
   sodipodi:cx="6380"
   ry="79"
   rx="79"
   cy="15330"
   cx="6380"
   class="fil0 str0"
   id="64114224"
   d="m 6459,15330 c 0,43.63 -35.3695,79 -79,79 -43.6305,0 -79,-35.37 -79,-79 0,-43.63 35.3695,-79 79,-79 43.6305,0 79,35.37 79,79 z" />
   <ellipse
   style="fill:none;stroke:#1f1a17;stroke-width:3"
   sodipodi:ry="79"
   sodipodi:rx="79"
   sodipodi:cy="15330"
   sodipodi:cx="-3856"
   ry="79"
   rx="79"
   cy="15330"
   cx="-3856"
   class="fil0 str0"
   id="64113784"
   d="m -3777,15330 c 0,43.63 -35.3695,79 -79,79 -43.6305,0 -79,-35.37 -79,-79 0,-43.63 35.3695,-79 79,-79 43.6305,0 79,35.37 79,79 z" />
   <ellipse
   style="fill:none;stroke:#1f1a17;stroke-width:3"
   sodipodi:ry="79"
   sodipodi:rx="79"
   sodipodi:cy="7980"
   sodipodi:cx="-3856"
   ry="79"
   rx="79"
   cy="7980"
   cx="-3856"
   class="fil0 str0"
   id="64112816"
   d="m -3777,7980 c 0,43.6305 -35.3695,79 -79,79 -43.6305,0 -79,-35.3695 -79,-79 0,-43.6305 35.3695,-79 79,-79 43.6305,0 79,35.3695 79,79 z" />
   <ellipse
   style="fill:none;stroke:#1f1a17;stroke-width:3"
   sodipodi:ry="79"
   sodipodi:rx="79"
   sodipodi:cy="14779"
   sodipodi:cx="6380"
   ry="79"
   rx="79"
   cy="14779"
   cx="6380"
   class="fil0 str0"
   id="64114048"
   d="m 6459,14779 c 0,43.63 -35.3695,79 -79,79 -43.6305,0 -79,-35.37 -79,-79 0,-43.63 35.3695,-79 79,-79 43.6305,0 79,35.37 79,79 z" />
   <ellipse
   style="fill:none;stroke:#1f1a17;stroke-width:3"
   sodipodi:ry="79"
   sodipodi:rx="79"
   sodipodi:cy="7429"
   sodipodi:cx="6380"
   ry="79"
   rx="79"
   cy="7429"
   cx="6380"
   class="fil0 str0"
   id="64113344"
   d="m 6459,7429 c 0,43.6305 -35.3695,79 -79,79 -43.6305,0 -79,-35.3695 -79,-79 0,-43.6305 35.3695,-79 79,-79 43.6305,0 79,35.3695 79,79 z" />
   <ellipse
   style="fill:none;stroke:#1f1a17;stroke-width:3"
   sodipodi:ry="79"
   sodipodi:rx="79"
   sodipodi:cy="14779"
   sodipodi:cx="-3856"
   ry="79"
   rx="79"
   cy="14779"
   cx="-3856"
   class="fil0 str0"
   id="64113872"
   d="m -3777,14779 c 0,43.63 -35.3695,79 -79,79 -43.6305,0 -79,-35.37 -79,-79 0,-43.63 35.3695,-79 79,-79 43.6305,0 79,35.37 79,79 z" />
   <ellipse
   style="fill:none;stroke:#1f1a17;stroke-width:3"
   sodipodi:ry="79"
   sodipodi:rx="79"
   sodipodi:cy="7429"
   sodipodi:cx="-3856"
   ry="79"
   rx="79"
   cy="7429"
   cx="-3856"
   class="fil0 str0"
   id="64112904"
   d="m -3777,7429 c 0,43.6305 -35.3695,79 -79,79 -43.6305,0 -79,-35.3695 -79,-79 0,-43.6305 35.3695,-79 79,-79 43.6305,0 79,35.3695 79,79 z" />
   <path
   style="fill:none;stroke:#1f1a17;stroke-width:3"
   d="m 6166,9534 433,0 0,472 -433,0 0,-472 z"
   class="fil0 str0"
   id="21773688" />
   <rect
   style="fill:none;stroke:#1f1a17;stroke-width:3"
   height="236"
   width="236"
   y="10595"
   x="-2243"
   class="fil0 str0"
   id="21772544" />
   <rect
   style="fill:none;stroke:#1f1a17;stroke-width:3"
   height="236"
   width="236"
   y="9453"
   x="-2243"
   class="fil0 str0"
   id="53712304" />
   <rect
   style="fill:none;stroke:#1f1a17;stroke-width:3"
   height="236"
   width="236"
   y="10595"
   x="80"
   class="fil0 str0"
   id="21772192" />
   <path
   style="fill:none;stroke:#1f1a17;stroke-width:3"
   d="m 1791,11703 c 38,38 38,101 0,139 -39,39 -101,39 -139,0 -39,-38 -39,-101 0,-139 38,-38 100,-38 139,0 z"
   class="fil0 str0"
   id="21773248" />
   <path
   style="fill:none;stroke:#1f1a17;stroke-width:3"
   d="m 1515,11427 c 38,39 38,101 0,140 -38,38 -101,38 -139,0 -38,-39 -38,-101 0,-140 38,-38 101,-38 139,0 z"
   class="fil0 str0"
   id="53705968" />
   <path
   style="fill:none;stroke:#1f1a17;stroke-width:3"
   d="m -464,13958 c 38,38 38,101 0,139 -39,39 -101,39 -139,0 -39,-38 -39,-101 0,-139 38,-38 100,-38 139,0 z"
   class="fil0 str0"
   id="53708256" />
   <path
   style="fill:none;stroke:#1f1a17;stroke-width:3"
   d="m -858,13564 c 38,39 38,101 0,139 -38,39 -101,39 -139,0 -38,-38 -38,-100 0,-139 38,-38 101,-38 139,0 z"
   class="fil0 str0"
   id="21775888" />
   <path
   style="fill:none;stroke:#1f1a17;stroke-width:3"
   d="m 3127,13039 c 38,39 38,101 0,140 -38,38 -101,38 -139,-1 -39,-38 -39,-100 0,-139 38,-38 101,-38 139,0 z"
   class="fil0 str0"
   id="53708432" />
   <path
   style="fill:none;stroke:#1f1a17;stroke-width:3"
   d="m 3521,13433 c 38,38 38,101 0,139 -39,39 -101,39 -139,0 -39,-38 -39,-101 0,-139 38,-38 100,-38 139,0 z"
   class="fil0 str0"
   id="21141192" />
   <path
   style="fill:none;stroke:#1f1a17;stroke-width:3"
   d="m 1039,15127 c 38,39 38,101 0,139 -38,39 -101,39 -139,0 -38,-38 -38,-100 0,-139 38,-38 101,-38 139,0 z"
   class="fil0 str0"
   id="53708080" />
   <path
   style="fill:none;stroke:#1f1a17;stroke-width:3"
   d="m 1315,15403 c 38,38 38,101 0,139 -39,38 -101,38 -139,0 -39,-38 -39,-101 -1,-139 39,-39 101,-39 140,0 z"
   class="fil0 str0"
   id="53706144" />
  </g><g
   id="g271"
   transform="translate(1777.8285,682.61946)">
   <path
   style="fill:none;stroke:#1f1a17;stroke-width:3"
   d="m 4024,2705 c -216,0 -399,-179 -399,-395 l -1,0 0,-401 394,0 0,-189 -394,0 -3343,0 c -64,1 -128,1 -193,1 -65,0 -129,0 -194,-1 l -3350,0 c 0,197 0,395 0,591 0,217 -177,394 -394,394 -216,0 -399,-179 -399,-395 l -1,-401 394,0 0,-189 -2,0 -392,0 0,-481 0,0 c 0,-50 10,-98 27,-142 C -4017,484 -2229,1 88,1 c 2316,0 4331,544 4331,1210 0,6 -1,13 -1,19 0,3 0,6 0,9 0,323 0,744 0,1072 0,217 -177,394 -394,394 z"
   class="fil0 str0"
   id="80544032" />
   <path
   style="fill:none;stroke:#1f1a17;stroke-width:3"
   d="m 88,486 c 1263,0 2293,23 2293,419 0,396 -1030,325 -2293,325 -1263,0 -2293,71 -2293,-325 0,-396 1030,-419 2293,-419 z"
   class="fil0 str0"
   id="80541304" />
   <path
   style="fill:none;stroke:#1f1a17;stroke-width:3"
   d="m -3854,2389 c -44,0 -79,-35 -79,-79 0,-43 35,-78 79,-78 43,0 78,35 78,78 0,44 -35,79 -78,79 z"
   class="fil0 str0"
   id="80541568" />
   <path
   style="fill:none;stroke:#1f1a17;stroke-width:3"
   d="m 4020,2389 c -44,0 -79,-35 -79,-79 0,-43 35,-78 79,-78 43,0 78,35 78,78 0,44 -35,79 -78,79 z"
   class="fil0 str0"
   id="80544560" />
  </g><g
   id="g283"
   transform="translate(-88.891427,-206.29481)">
   <path
   style="fill:none;stroke:#1f1a17;stroke-width:3"
   d="m 4024,2705 c -216,0 -399,178 -399,394 l -1,0 0,401 394,0 0,189 -394,0 -3343,0 c -64,0 -128,-1 -193,-1 -65,0 -129,1 -194,1 l -3350,0 c 0,-196 0,-395 0,-591 0,-217 -177,-393 -394,-393 -216,0 -399,178 -399,394 l -1,401 394,0 0,189 -2,0 -392,0 0,482 0,0 c 0,49 10,97 27,141 206,613 1994,1096 4311,1096 2316,0 4331,-544 4331,-1210 0,-6 -1,-13 -1,-19 0,-3 0,-6 0,-9 0,-323 0,-744 0,-1072 0,-217 -177,-393 -394,-393 z"
   class="fil0 str0"
   id="80543240" />
   <path
   style="fill:none;stroke:#1f1a17;stroke-width:3"
   d="m 88,4923 c 1263,0 2293,-23 2293,-419 0,-396 -1030,-325 -2293,-325 -1263,0 -2293,-71 -2293,325 0,396 1030,419 2293,419 z"
   class="fil0 str0"
   id="80543504" />
   <path
   style="fill:none;stroke:#1f1a17;stroke-width:3"
   d="m -3854,3020 c -44,0 -79,35 -79,79 0,43 35,79 79,79 43,0 78,-36 78,-79 0,-44 -35,-79 -78,-79 z"
   class="fil0 str0"
   id="80546232" />
   <path
   style="fill:none;stroke:#1f1a17;stroke-width:3"
   d="m 4020,3020 c -44,0 -79,35 -79,79 0,43 35,79 79,79 43,0 78,-36 78,-79 0,-44 -35,-79 -78,-79 z"
   class="fil0 str0"
   id="80546496" />
  </g>
</svg>