<?xml version="1.0" encoding="UTF-8" standalone="no"?>
<!-- Creator: CorelDRAW -->

<svg
   xmlns:dc="http://purl.org/dc/elements/1.1/"
   xmlns:cc="http://creativecommons.org/ns#"
   xmlns:rdf="http://www.w3.org/1999/02/22-rdf-syntax-ns#"
   xmlns:svg="http://www.w3.org/2000/svg"
   xmlns="http://www.w3.org/2000/svg"
   xmlns:sodipodi="http://sodipodi.sourceforge.net/DTD/sodipodi-0.dtd"
   xmlns:inkscape="http://www.inkscape.org/namespaces/inkscape"
   xml:space="preserve"
   x="-382.63501"
   y="495.58499"
   width="1052.3622"
   height="744.09448"
   viewBox="-4252 0 11693.247 8267.8568"
   id="svg2"
   version="1.1"
   inkscape:version="0.47 r22583"
   sodipodi:docname="rueda_butia1.svg"><metadata
   id="metadata1789"><rdf:RDF><cc:Work
       rdf:about=""><dc:format>image/svg+xml</dc:format><dc:type
         rdf:resource="http://purl.org/dc/dcmitype/StillImage" /></cc:Work></rdf:RDF></metadata><sodipodi:namedview
   pagecolor="#ffffff"
   bordercolor="#666666"
   borderopacity="1"
   objecttolerance="10"
   gridtolerance="10"
   guidetolerance="10"
   inkscape:pageopacity="0"
   inkscape:pageshadow="2"
   inkscape:window-width="1280"
   inkscape:window-height="776"
   id="namedview1787"
   showgrid="false"
   inkscape:zoom="0.25"
   inkscape:cx="1417.4595"
   inkscape:cy="743.66195"
   inkscape:window-x="0"
   inkscape:window-y="24"
   inkscape:window-maximized="1"
   inkscape:current-layer="svg2" />
 <defs
   id="defs4"><inkscape:perspective
   sodipodi:type="inkscape:persp3d"
   inkscape:vp_x="0 : 797.74646 : 1"
   inkscape:vp_y="0 : 1000 : 0"
   inkscape:vp_z="2834.9189 : 797.74646 : 1"
   inkscape:persp3d-origin="1417.4595 : 531.83097 : 1"
   id="perspective1791" />
  <style
   type="text/css"
   id="style6">
   
    .str0 {stroke:#1F1A17;stroke-width:3}
    .fil0 {fill:none}
   
  </style>
 
  
  
  
  
  
  
  
  
  
  
  
  
  
  
  
  
  
  
  
  
  
  
  
  
  
  
  
  
  
  
  
  
  
  
  
  
  
  
  
  
  
  
  
  
  
  
  
  
  
  
  
  
  
  
  
  
  
  
  
  
  
  
  
  
  
  
  
  
  
  
  
  
  
  
  
  
  
  
  
  
  
  
  
  
  
  
  
  
  
  
  
  
  
  
  
  
  
  
  
  
  
  
  
  
  
  
  
  
  
  
  
  
  
  
  
  
  
  
  
  
  
  
  
  
  
  
  
  
  
  
  
  
  
  
  
  
  
  
  
  
  
  
  
  
  
  
  
  
  
  
  
  
  
  
  
  
  
  
  
  
  
  
  
  
  
  
  
  
  
  
  
  
  
  
  
  
  
  
  
  
  
  
  
  
  
  
  
  
  
  
  
  
  
  
  
  
  
  
  
  
  
  
  
  
  
  
  
  
  
  
  
  
  
  
  
  
  
  
  
  
  
  
  
  
  
  
  
  
  
  
  
  
  
  
  
  
  
  
  
  
  
  
  
  
  
  
  
  
  
  
  
  
  
  
  
  
  
  
  
  
  
  
  
  
  
  
  
  
  
  
  
  
  
  
  
  
  
  
  
  
  
  
  
  
  
  
  
  
  
  
  
  
  
  
  
  
  
  
  
  
  
  
  
  
  
  
  
  
  
  
  
  
  
  
  
  
  
  
  
  
  
  
  
  
  
  
  
  
  
  
  
  
  
  
  
  
  
  
  
  
  
  
  
  
  
  
  
  
  
  
  
  
  
  
  
  
  
  
  
  
  
  
  
  
  
  
  
  
  
  
  
  
  
  
  
  
  
  
  
  
  
  
  
  
  
  
  
  
  
  
  
  
  
  
  
  
  
  
  
  
  
  
  
  
  
  
  
  
  
  
  
  
 </defs>
 <g
   id="g10"
   transform="translate(3244.5372,-12126.996)">
   <path
   style="fill:none;stroke:#1f1a17;stroke-width:3"
   d="m -3269,16343 0,0 c 0,84 -69,153 -153,153 l -475,0 c -84,0 -153,-69 -153,-153 l 0,0 c 0,-84 69,-153 153,-153 l 475,0 c 84,0 153,69 153,153 z"
   class="fil0 str0"
   id="77668392" />
   <path
   style="fill:none;stroke:#1f1a17;stroke-width:3"
   d="m -1694,16343 0,0 c 0,84 -69,153 -153,153 l -475,0 c -85,0 -154,-69 -154,-153 l 0,0 c 0,-84 69,-153 154,-153 l 475,0 c 84,0 153,69 153,153 z"
   class="fil0 str0"
   id="77668480" />
   <path
   style="fill:none;stroke:#1f1a17;stroke-width:3"
   d="m -2872,16740 0,0 c 84,0 153,69 153,153 l 0,475 c 0,84 -69,153 -153,153 l 0,0 c -84,0 -153,-69 -153,-153 l 0,-475 c 0,-84 69,-153 153,-153 z"
   class="fil0 str0"
   id="77668568" />
   <path
   style="fill:none;stroke:#1f1a17;stroke-width:3"
   d="m -2872,15165 0,0 c 84,0 153,69 153,153 l 0,475 c 0,85 -69,154 -153,154 l 0,0 c -84,0 -153,-69 -153,-154 l 0,-475 c 0,-84 69,-153 153,-153 z"
   class="fil0 str0"
   id="77668656" />
   <path
   style="fill:none;stroke:#1f1a17;stroke-width:3"
   d="m -2621,16148 c 15,-15 15,-40 0,-56 -16,-15 -41,-15 -56,0 -16,16 -16,41 0,56 15,16 40,16 56,0 z"
   class="fil0 str0"
   id="77668744" />
   <path
   style="fill:none;stroke:#1f1a17;stroke-width:3"
   d="m -3067,16594 c 15,-16 15,-41 0,-56 -15,-15 -40,-15 -56,0 -15,15 -15,40 0,56 16,15 41,15 56,0 z"
   class="fil0 str0"
   id="77668832" />
   <path
   style="fill:none;stroke:#1f1a17;stroke-width:3"
   d="m -2677,16594 c 15,15 40,15 56,0 15,-16 15,-41 0,-56 -16,-15 -41,-15 -56,0 -16,15 -16,40 0,56 z"
   class="fil0 str0"
   id="77668920" />
   <path
   style="fill:none;stroke:#1f1a17;stroke-width:3"
   d="m -3123,16148 c 16,16 41,16 56,0 15,-15 15,-40 0,-56 -15,-15 -40,-15 -56,0 -15,16 -15,41 0,56 z"
   class="fil0 str0"
   id="77669008" />
   <path
   style="fill:none;stroke:#1f1a17;stroke-width:3"
   d="m -2872,17721 c 759,0 1378,-619 1378,-1378 0,-759 -619,-1378 -1378,-1378 -759,0 -1378,619 -1378,1378 0,759 619,1378 1378,1378 z"
   class="fil0 str0"
   id="77669096" />
  </g><g
   id="g76"
   transform="translate(5511.2687,2006.7409)">
   <path
   style="fill:none;stroke:#1f1a17;stroke-width:3"
   d="m -3566,243 c 15,-16 15,-41 0,-56 -16,-15 -41,-15 -56,0 -15,15 -15,40 0,56 15,15 40,15 56,0 z"
   class="fil0 str0"
   id="85464640" />
   <path
   style="fill:none;stroke:#1f1a17;stroke-width:3"
   d="m -4012,688 c 16,-15 16,-40 0,-56 -15,-15 -40,-15 -55,0 -16,16 -16,41 0,56 15,15 40,15 55,0 z"
   class="fil0 str0"
   id="85464552" />
   <path
   style="fill:none;stroke:#1f1a17;stroke-width:3"
   d="m -3622,688 c 15,15 40,15 56,0 15,-15 15,-40 0,-56 -16,-15 -41,-15 -56,0 -15,16 -15,41 0,56 z"
   class="fil0 str0"
   id="85464464" />
   <path
   style="fill:none;stroke:#1f1a17;stroke-width:3"
   d="m -4067,243 c 15,15 40,15 55,0 16,-16 16,-41 0,-56 -15,-15 -40,-15 -55,0 -16,15 -16,40 0,56 z"
   class="fil0 str0"
   id="85400688" />
   <ellipse
   style="fill:none;stroke:#1f1a17;stroke-width:3"
   sodipodi:ry="433"
   sodipodi:rx="433"
   sodipodi:cy="438"
   sodipodi:cx="-3817"
   ry="433"
   rx="433"
   cy="438"
   cx="-3817"
   class="fil0 str0"
   id="85400072"
   d="m -3384,438 c 0,239.1393 -193.8607,433 -433,433 -239.1393,0 -433,-193.8607 -433,-433 0,-239.1393 193.8607,-433 433,-433 239.1393,0 433,193.8607 433,433 z" />
  </g>
</svg>