<?xml version="1.0" encoding="UTF-8" standalone="no"?>
<!-- Created with Inkscape (http://www.inkscape.org/) -->

<svg
   xmlns:dc="http://purl.org/dc/elements/1.1/"
   xmlns:cc="http://creativecommons.org/ns#"
   xmlns:rdf="http://www.w3.org/1999/02/22-rdf-syntax-ns#"
   xmlns:svg="http://www.w3.org/2000/svg"
   xmlns="http://www.w3.org/2000/svg"
   xmlns:sodipodi="http://sodipodi.sourceforge.net/DTD/sodipodi-0.dtd"
   xmlns:inkscape="http://www.inkscape.org/namespaces/inkscape"
   version="1.0"
   width="55"
   height="55"
   id="svg2"
   inkscape:version="0.48.3.1 r9886"
   sodipodi:docname="FollowMeoff.svg">
  <metadata
     id="metadata22">
    <rdf:RDF>
      <cc:Work
         rdf:about="">
        <dc:format>image/svg+xml</dc:format>
        <dc:type
           rdf:resource="http://purl.org/dc/dcmitype/StillImage" />
      </cc:Work>
    </rdf:RDF>
  </metadata>
  <sodipodi:namedview
     pagecolor="#ffffff"
     bordercolor="#666666"
     borderopacity="1"
     objecttolerance="10"
     gridtolerance="10"
     guidetolerance="10"
     inkscape:pageopacity="0"
     inkscape:pageshadow="2"
     inkscape:window-width="1366"
     inkscape:window-height="744"
     id="namedview20"
     showgrid="false"
     showguides="true"
     inkscape:guide-bbox="true"
     inkscape:zoom="8.5818182"
     inkscape:cx="33.019383"
     inkscape:cy="19.785191"
     inkscape:window-x="0"
     inkscape:window-y="24"
     inkscape:window-maximized="1"
     inkscape:current-layer="svg2" />
  <defs
     id="defs5">
    <inkscape:perspective
       sodipodi:type="inkscape:persp3d"
       inkscape:vp_x="0 : 27.5 : 1"
       inkscape:vp_y="0 : 1000 : 0"
       inkscape:vp_z="55 : 27.5 : 1"
       inkscape:persp3d-origin="27.5 : 18.333333 : 1"
       id="perspective24" />
    <inkscape:perspective
       id="perspective2822"
       inkscape:persp3d-origin="0.5 : 0.33333333 : 1"
       inkscape:vp_z="1 : 0.5 : 1"
       inkscape:vp_y="0 : 1000 : 0"
       inkscape:vp_x="0 : 0.5 : 1"
       sodipodi:type="inkscape:persp3d" />
  </defs>
  <rect
     style="fill:#282828;fill-opacity:1;fill-rule:nonzero;stroke:#666666;stroke-width:0;stroke-linejoin:round;stroke-miterlimit:4;stroke-opacity:1;stroke-dasharray:none"
     id="rect2913"
     width="45"
     height="45"
     x="5"
     y="5" />
  <g
     id="g3018"
     transform="matrix(0.88462443,0,0,0.87890499,2.7380998,3.6987535)">
    <path
       id="path2846"
       d="m 13.954317,46.252615 c -0.717233,-0.31395 -1.267099,-0.767971 -1.737884,-1.434959 -1.324436,-1.876408 -1.99689,-4.586574 -1.732036,-6.980562 0.07778,-0.703051 0.313687,-1.700022 0.510576,-2.157758 0.04797,-0.11153 0.0194,-0.137797 -0.149915,-0.137797 -0.436712,0 -1.6262033,-0.81511 -1.8626563,-1.276402 -0.246675,-0.481233 -0.165499,-2.030714 0.106388,-2.030714 0.03686,0 0.102335,-0.101309 0.1455,-0.225132 0.07547,-0.216504 0.2533181,-0.329319 1.2125503,-0.769175 0.129922,-0.05958 0.413389,-0.130771 0.629927,-0.158213 0.373159,-0.04728 0.752281,-0.17831 0.5315,-0.183681 -0.05413,-0.0013 -0.09843,-0.04689 -0.09843,-0.101245 0,-0.05437 -0.141734,-0.249325 -0.314963,-0.433235 -0.195095,-0.207123 -0.314963,-0.409644 -0.314963,-0.532141 0,-0.108769 -0.03162,-0.259289 -0.07027,-0.33449 -0.03865,-0.0752 -0.111247,-0.225313 -0.161333,-0.333582 -0.05009,-0.108269 -0.14887,-0.303152 -0.219522,-0.433075 -0.13281,-0.244224 -0.5130974,-1.258358 -0.6791202,-1.811041 -0.05204,-0.173229 -0.13792,-0.39236 -0.190852,-0.486953 -0.05293,-0.0946 -0.09624,-0.230549 -0.09624,-0.302121 0,-0.07157 -0.3183661,-0.939512 -0.7074801,-1.928757 -0.891371,-2.266149 -0.926135,-2.393081 -0.808716,-2.952875 l 0.09119,-0.434759 -0.797194,-2.10254 -0.797194,-2.102543 -0.557249,-0.558467 c -0.601679,-0.602996 -0.664139,-0.699319 -0.917266,-1.41456 -0.09196,-0.259845 -0.358618,-0.865471 -0.592574,-1.345837 -0.233955,-0.480365 -0.425373,-0.932141 -0.425373,-1.003946 0,-0.0718 -0.03258,-0.130554 -0.07241,-0.130554 -0.03983,0 -0.133636,-0.186026 -0.208463,-0.41339 -0.07483,-0.227364 -0.164025,-0.431818 -0.198218,-0.45434 -0.03419,-0.02252 -0.134933,-0.210706 -0.223868,-0.418184 -0.194678,-0.454167 -0.263216,-1.6377099 -0.104055,-1.7968709 0.05409,-0.05409 0.09835,-0.163375 0.09835,-0.242852 0,-0.295667 0.428784,-0.821648 0.842554,-1.033544 0.298725,-0.152981 0.758609,-0.169112 0.873076,-0.03062 0.138591,0.167674 1.197129,2.1847594 1.19754,2.2819579 1.57e-4,0.03164 0.118241,0.24424 0.262462,0.472445 0.144221,0.228206 0.286345,0.468069 0.315831,0.533031 0.02949,0.06496 0.123561,0.224411 0.209056,0.354333 0.08549,0.129923 0.191773,0.319223 0.236173,0.420666 0.07314,0.167102 0.115816,0.18002 0.453929,0.137383 0.35614,-0.04491 2.4196453,0.09985 3.7590573,0.263708 1.561691,0.191049 2.092692,0.248095 2.738907,0.294246 0.380406,0.02717 0.710257,0.07951 0.733002,0.116309 0.02274,0.0368 0.211594,0.06691 0.419663,0.06691 0.208071,0 0.569172,0.03886 0.802447,0.08636 0.5013,0.102072 1.168837,0.195456 2.195806,0.307181 0.411422,0.04476 0.996072,0.119402 1.299225,0.165875 0.303152,0.04648 0.870087,0.115888 1.259853,0.154257 0.389767,0.03836 1.133869,0.13928 1.653558,0.224247 1.267498,0.207232 2.008682,0.254018 2.056346,0.129804 0.03473,-0.09052 -0.418666,-1.121541 -0.583677,-1.327259 -0.04182,-0.05214 -0.09344,-0.236532 -0.114685,-0.409762 -0.03075,-0.250689 0.0075,-0.391532 0.187521,-0.690165 0.124391,-0.206362 0.226166,-0.410104 0.226166,-0.452761 0,-0.04266 0.03174,-0.07756 0.07053,-0.07756 0.0388,0 0.184221,-0.177168 0.323172,-0.393705 0.138952,-0.216538 0.302097,-0.393705 0.362543,-0.393705 0.178577,0 0.368422,0.245566 0.656616,0.849336 0.149116,0.3124 0.295501,0.568001 0.3253,0.568001 0.0298,0 0.09451,0.160132 0.143786,0.355849 0.04928,0.195717 0.159789,0.426034 0.24557,0.511816 0.08578,0.08578 0.156754,0.217975 0.157718,0.293763 9.07e-4,0.07578 0.07104,0.226379 0.155729,0.334648 0.08469,0.108269 0.154769,0.274046 0.155731,0.368395 9.08e-4,0.09435 0.05721,0.226999 0.124987,0.294777 0.06778,0.06778 0.137757,0.203325 0.155507,0.301213 0.04529,0.249727 0.418689,1.305192 0.55503,1.568846 0.128493,0.24848 0.07454,0.829389 -0.08065,0.868354 -0.09187,0.02308 0.32784,0.854671 1.671117,3.311075 0.325635,0.595477 0.622062,1.082687 0.658728,1.082687 0.03667,0 0.06667,0.04962 0.06667,0.11027 0,0.06065 0.247491,0.547859 0.549981,1.082688 0.302489,0.534828 0.550524,1.041247 0.551186,1.125374 0.0012,0.14848 0.951081,1.964007 1.606645,3.070715 0.17804,0.300566 0.39759,0.672617 0.487886,0.826779 0.124755,0.212996 0.228738,0.289749 0.433075,0.319666 0.235644,0.0345 0.2689,0.06781 0.2689,0.269243 0,0.187735 -0.05775,0.260627 -0.314963,0.397625 -0.17323,0.09226 -0.53944,0.333646 -0.813799,0.536408 l -0.498834,0.368658 1.123042,-0.01825 1.123041,-0.01824 0.106381,0.551186 c 0.05852,0.303151 0.09651,0.790441 0.08446,1.082864 -0.01668,0.404542 0.0034,0.531636 0.08429,0.531501 0.08369,-1.58e-4 0.100388,-0.161615 0.07874,-0.761306 -0.0195,-0.54 -2.36e-4,-0.770225 0.06633,-0.792432 0.186965,-0.06238 0.339267,0.422789 0.339267,1.080773 l 0,0.637405 0.295278,-0.0545 c 0.162404,-0.02998 0.478771,-0.157553 0.703039,-0.283501 0.247968,-0.139256 0.708683,-0.289528 1.175652,-0.383466 0.732863,-0.147425 0.800463,-0.148615 1.482019,-0.02607 0.580146,0.104314 0.759408,0.171285 0.955458,0.356979 0.132731,0.125718 0.363048,0.266383 0.511816,0.312589 0.158801,0.04933 2.156238,0.129414 4.837458,0.193969 4.113064,0.09903 5.052436,0.151634 5.554752,0.311065 0.279945,0.08885 0.196581,0.475063 -0.203666,0.943556 l -0.357625,0.418606 0.692274,0.0508 c 0.992618,0.07283 1.417335,0.184749 1.724444,0.454392 0.233552,0.205062 0.267055,0.281644 0.267055,0.610437 0,0.365265 -0.01176,0.383971 -0.41339,0.657705 -0.227364,0.15496 -0.767724,0.410829 -1.200798,0.568599 -2.099278,0.764771 -2.631671,0.953074 -4.094525,1.4482 -0.866149,0.293162 -2.177185,0.747782 -2.913412,1.01027 -0.736227,0.262487 -1.604345,0.55588 -1.929152,0.651985 -0.324805,0.0961 -0.634102,0.208979 -0.687327,0.25083 -0.127213,0.100029 8.35e-4,0.345952 0.215626,0.414123 0.106998,0.03396 0.158212,0.118725 0.157841,0.261242 -3.16e-4,0.116033 0.01525,0.388136 0.03456,0.604673 0.01931,0.216537 0.0369,0.488615 0.03909,0.604617 0.0022,0.116002 0.05197,0.258914 0.110654,0.317584 0.115142,0.115142 0.130502,0.179774 0.321124,1.35139 0.09118,0.560424 0.104696,0.846235 0.04839,1.023631 -0.04296,0.135365 -0.137101,0.438181 -0.209194,0.672927 -0.251318,0.818326 -1.23117,1.502341 -2.152106,1.502341 -0.855016,0 -1.820355,-0.27381 -1.692827,-0.480156 0.02354,-0.03807 -0.0122,-0.04812 -0.07941,-0.02233 -0.116012,0.04452 -0.127606,0.02154 -0.153698,-0.304605 -0.0094,-0.118119 -0.253638,-0.374019 -0.356903,-0.374019 -0.104663,0 -0.155424,-0.217709 -0.15234,-0.653323 0.0015,-0.207751 -0.03808,-0.426847 -0.08791,-0.48688 -0.06155,-0.07417 -0.07311,-0.286544 -0.03607,-0.662495 0.04879,-0.495066 0.03407,-0.59306 -0.139772,-0.930454 -0.106863,-0.207412 -0.260388,-0.564108 -0.341164,-0.792659 -0.11172,-0.316108 -0.175933,-0.403291 -0.268332,-0.36433 -0.06681,0.02817 -0.263199,0.07995 -0.43643,0.115078 -0.289903,0.05879 -0.553613,0.154495 -1.181112,0.428691 -0.129923,0.05678 -0.337945,0.126012 -0.462271,0.153867 -0.124328,0.02786 -0.277451,0.10205 -0.340274,0.164869 -0.06282,0.06282 -0.173701,0.114758 -0.246396,0.11541 -0.195845,0.0018 -0.684678,0.184176 -0.84084,0.313778 -0.330785,0.274528 -1.388728,0.430185 -1.585618,0.233296 -0.05256,-0.05256 -0.149388,-0.05598 -0.271655,-0.0096 -0.104494,0.03964 -0.969524,0.08296 -1.922287,0.09624 -1.568498,0.02186 -1.791864,0.0082 -2.362227,-0.144599 -0.34646,-0.09281 -0.895677,-0.20707 -1.220484,-0.253909 -0.933244,-0.134575 -1.100955,-0.17041 -1.14712,-0.245104 -0.02381,-0.03852 -0.227221,-0.07017 -0.452029,-0.07033 -0.262214,-1.57e-4 -0.496488,-0.0538 -0.653507,-0.149549 -0.134621,-0.08209 -0.435806,-0.166792 -0.669298,-0.188231 -0.523378,-0.04805 -1.16561,-0.189136 -1.28229,-0.281692 -0.08651,-0.06864 -0.294217,-0.116892 -1.012338,-0.235247 l -0.374019,-0.06165 0,0.458329 c 0,0.354909 -0.02664,0.458328 -0.11811,0.458328 -0.06496,0 -0.118112,0.05315 -0.118112,0.118111 0,0.09076 -0.100886,0.118111 -0.435545,0.118111 -0.314516,0 -0.448142,0.03282 -0.480871,0.118112 -0.02492,0.06496 -0.138974,0.118595 -0.253436,0.119185 -0.506469,0.0026 -0.562448,0.05827 -0.562448,0.559296 0,0.347255 -0.02794,0.463262 -0.111586,0.463262 -0.10133,0 -0.282117,0.582748 -0.282117,0.909396 0,0.06283 -0.02657,0.114462 -0.05905,0.114741 -0.03247,3.16e-4 -0.14551,0.230104 -0.251176,0.510722 -0.198702,0.527693 -0.853585,1.4162 -1.101918,1.495018 -0.07676,0.02436 -0.233613,0.149856 -0.348572,0.278877 -0.114958,0.129021 -0.288467,0.235712 -0.385574,0.237089 -0.09711,0.0014 -0.245341,0.05453 -0.329406,0.118111 -0.263665,0.199425 -1.101928,0.14089 -1.694056,-0.118299 z m 0.529263,-2.364544 c -0.289366,-1.199681 -0.35521,-1.329904 -0.76216,-1.50737 -0.198644,-0.08664 -0.467469,-0.205673 -0.597392,-0.264549 -0.129922,-0.05887 -0.319445,-0.130696 -0.421163,-0.159599 -0.1656,-0.04705 -0.17898,-0.03321 -0.127947,0.13239 0.08156,0.264686 0.552376,1.062028 0.903556,1.53022 0.165178,0.220214 0.489618,0.526957 0.720977,0.681652 0.23136,0.154695 0.426259,0.275704 0.43311,0.268908 0.0069,-0.0068 -0.0602,-0.313539 -0.148981,-0.681652 z m 1.580145,-0.650467 c 0.08617,-0.270201 0.178014,-0.588031 0.204106,-0.706289 0.04499,-0.203891 0.03694,-0.211018 -0.155658,-0.137797 -0.111702,0.04247 -0.303322,0.07721 -0.425822,0.07721 -0.220593,0 -0.222051,0.0032 -0.152245,0.334649 0.139407,0.661895 0.248519,1.000399 0.310179,0.962291 0.03452,-0.02134 0.133275,-0.259871 0.21944,-0.530071 z m 23.08416,-2.066093 c 0,-0.454729 -0.0325,-0.826779 -0.07222,-0.826779 -0.07936,0 -0.242747,0.674165 -0.242747,1.001622 0,0.113553 -0.05662,0.269027 -0.125825,0.345496 -0.164589,0.181869 -0.07954,0.30644 0.209214,0.30644 l 0.231575,0 0,-0.826779 z m -23.077952,0.531501 0.242105,-0.137796 4.73e-4,-0.846465 c 2.35e-4,-0.465555 -0.01669,-0.846464 -0.03768,-0.846464 -0.02101,0 -0.215887,0.10934 -0.433076,0.242975 l -0.39486,0.242978 8.66e-4,0.446006 c 0.002,1.028778 0.112725,1.188727 0.622181,0.898766 z m -2.197866,-0.01969 c 0,-0.04331 -0.0502,-0.07873 -0.11155,-0.07873 -0.06135,0 -0.123359,-0.02995 -0.137796,-0.06655 -0.04012,-0.101742 -0.459321,-0.186095 -0.459321,-0.09242 0,0.04414 0.06409,0.08024 0.142431,0.08024 0.07834,0 0.211213,0.05202 0.295279,0.115607 0.180556,0.136565 0.270957,0.150536 0.270957,0.04188 z m 24.516765,-1.257267 c 0.101435,-0.805823 0.135959,-0.922115 0.321029,-1.081306 0.125884,-0.108281 0.801907,-0.364761 1.720348,-0.652694 1.734616,-0.543804 1.518891,-0.471622 4.465759,-1.494233 1.234262,-0.428308 2.793331,-0.964419 3.464597,-1.191357 3.496516,-1.182083 4.330291,-1.560784 4.330596,-1.966968 3.14e-4,-0.374397 -0.530262,-0.714919 -1.003794,-0.644272 -0.146434,0.02184 -0.255909,0.0038 -0.255909,-0.04215 0,-0.04492 -0.32116,-0.104272 -0.728353,-0.13463 -0.895741,-0.06677 -1.659679,0.09522 -1.909867,0.405016 -0.246541,0.305278 -1.60425,0.672904 -2.558677,0.692812 -0.629974,0.01315 -1.021448,0.08793 -2.480335,0.473811 -0.952766,0.252014 -1.88717,0.495703 -2.076454,0.541529 l -0.344152,0.08332 0.344152,0.08298 c 0.331463,0.07991 0.345029,0.09499 0.367929,0.4087 0.01973,0.270289 -0.01005,0.352358 -0.175271,0.482286 l -0.199046,0.156571 0.47507,0.133297 c 0.783525,0.219847 0.721037,0.473126 -0.186731,0.756849 -0.312248,0.09759 -0.913526,0.297824 -1.336172,0.444958 -1.496207,0.520864 -6.09253,1.920392 -6.239395,1.899824 -0.04335,-0.0061 -0.209428,0.04708 -0.369044,0.118098 -0.687597,0.305967 -1.791651,0.5194 -3.11334,0.601863 -2.083602,0.129998 -3.829099,-0.03979 -6.754022,-0.656972 -0.51969,-0.10966 -1.299225,-0.253171 -1.7323,-0.318917 -0.62084,-0.09425 -2.546085,-0.509646 -4.114209,-0.887696 -0.152836,-0.03685 -0.176807,-0.01171 -0.174547,0.183005 0.0051,0.433264 0.185989,0.534663 1.496425,0.838505 2.120587,0.491686 4.38188,0.982538 6.453781,1.400903 1.864854,0.376558 2.094838,0.406218 3.228376,0.416358 1.083251,0.0097 2.596248,-0.05421 3.385858,-0.142984 0.151576,-0.01704 0.488192,-0.139047 0.748037,-0.271122 0.259846,-0.132076 1.09253,-0.438845 1.850412,-0.68171 0.757879,-0.242864 1.609032,-0.527262 1.89145,-0.631994 0.552049,-0.204725 0.902108,-0.241908 0.986831,-0.104824 0.0291,0.04709 0.01347,0.125035 -0.03472,0.17323 -0.04819,0.04819 -0.08763,0.252422 -0.08763,0.453835 0,0.201414 -0.03753,0.473892 -0.08343,0.605507 -0.06567,0.188371 -0.05542,0.30399 0.04816,0.543251 0.129756,0.299737 0.132504,0.30122 0.198252,0.107098 0.03668,-0.108269 0.117819,-0.603172 0.180329,-1.099785 z m 11.467809,-6.971156 c 0,-0.06496 0.05315,-0.118111 0.118112,-0.118111 0.06496,0 0.118111,0.05315 0.118111,0.118111 0,0.06496 -0.05315,0.118112 -0.118111,0.118112 -0.06496,0 -0.118112,-0.05315 -0.118112,-0.118112 z m -34.519666,7.226115 c -0.02617,-0.02616 -0.04478,0.02034 -0.04136,0.103351 0.0038,0.09173 0.02244,0.110387 0.04756,0.04758 0.02274,-0.05684 0.01994,-0.124755 -0.0063,-0.15092 z m 22.314833,-0.336288 c 0,-0.164472 -0.03845,-0.236222 -0.126536,-0.236222 -0.08304,0 -0.110104,0.04281 -0.07873,0.12455 0.02629,0.06851 0.04779,0.174804 0.04779,0.236224 0,0.06142 0.03543,0.11167 0.07874,0.11167 0.04331,0 0.07873,-0.1063 0.07873,-0.236222 z m -5.964655,-0.262792 c 0.184076,-0.06138 0.547283,-0.137059 0.807128,-0.168203 0.259844,-0.03114 0.515481,-0.09194 0.568079,-0.1351 0.05259,-0.04317 0.245237,-0.08617 0.428087,-0.09556 0.192886,-0.0099 0.347038,-0.06083 0.367186,-0.121281 0.0191,-0.0573 -0.01157,-0.297201 -0.06816,-0.533103 -0.08766,-0.365387 -0.08623,-0.439635 0.0096,-0.501325 0.09177,-0.05906 0.08349,-0.08069 -0.04497,-0.117229 -0.08662,-0.02464 -0.273602,-0.197676 -0.415527,-0.384509 l -0.258048,-0.339695 -1.316771,-0.04849 c -0.724223,-0.02667 -1.96267,-0.07056 -2.752102,-0.09752 -1.076007,-0.03676 -1.45788,-0.07619 -1.525401,-0.157555 -0.06151,-0.07411 -0.272703,-0.10853 -0.665862,-0.10853 -0.316684,0 -0.675538,-0.03934 -0.797452,-0.08744 -0.121916,-0.04808 -0.744922,-0.101024 -1.384459,-0.117627 -0.844793,-0.02193 -1.243174,-0.06514 -1.456707,-0.157952 -0.310727,-0.135066 -0.952074,-0.222627 -2.498653,-0.341136 -0.519691,-0.03983 -1.007351,-0.09652 -1.08369,-0.126013 -0.07634,-0.02949 -0.189798,-0.01128 -0.252129,0.04045 -0.147377,0.122311 -0.435506,0.0295 -0.437055,-0.1408 -9.99e-4,-0.108321 -0.01405,-0.112214 -0.07158,-0.02133 -0.05884,0.09295 -0.161061,0.09618 -0.624204,0.01969 -0.869051,-0.143523 -0.946508,-0.132576 -0.884991,0.125071 0.02843,0.119097 0.119995,0.328119 0.203468,0.464496 0.16672,0.272386 0.243394,0.287524 1.988741,0.392664 0.400595,0.02413 0.728353,0.07666 0.728353,0.116704 0,0.04005 0.08859,0.11319 0.196852,0.162521 0.108269,0.04933 0.196852,0.117827 0.196852,0.152215 0,0.08162 -0.382201,0.463385 -0.463926,0.463385 -0.108877,0 -0.571339,0.250836 -0.53305,0.289124 0.02005,0.02005 0.226008,0.05252 0.457667,0.07216 0.231659,0.01963 0.492064,0.06881 0.57868,0.109304 0.337475,0.157776 1.78586,0.487824 1.954751,0.445434 0.09813,-0.02463 0.97405,0.136839 1.9465,0.358814 0.972449,0.221974 1.989549,0.418737 2.260221,0.437252 0.270672,0.0185 0.49213,0.07009 0.49213,0.114622 0,0.04962 0.129592,0.06405 0.334649,0.03727 0.184057,-0.02404 0.395548,-0.01912 0.469981,0.01091 0.07442,0.03003 0.827378,0.06481 1.67321,0.07726 1.16674,0.01719 1.618646,-0.0042 1.872559,-0.08892 z m -19.05742,-0.367129 c 0.173245,0 0.179149,-0.145236 0.01541,-0.379009 -0.08994,-0.128417 -0.109903,-0.264539 -0.07182,-0.489898 0.04048,-0.23962 0.0038,-0.44005 -0.157921,-0.863324 -0.115856,-0.303189 -0.242982,-0.551254 -0.282503,-0.551254 -0.03953,0 -0.07186,0.194884 -0.07186,0.433074 0,0.238191 -0.03544,0.433075 -0.07874,0.433075 -0.135693,0 -0.09731,1.277038 0.04447,1.479454 0.11346,0.161988 0.136643,0.166487 0.293113,0.05689 0.09345,-0.06545 0.232891,-0.119008 0.30987,-0.119008 z m 22.585722,-0.561456 c 0.365576,-0.135571 0.822308,-0.277549 1.01496,-0.315505 0.192653,-0.03796 0.493837,-0.133455 0.669298,-0.212218 0.175461,-0.07877 0.567054,-0.203342 0.870206,-0.276842 0.597105,-0.14477 0.748037,-0.271075 0.748037,-0.625976 0,-0.189231 0.02423,-0.218952 0.137798,-0.169057 0.07578,0.03329 0.270671,0.07624 0.433075,0.09543 0.162403,0.01919 0.295278,0.06661 0.295278,0.105374 0,0.03876 0.04992,0.07047 0.110923,0.07047 0.159251,0 2.02821,-0.538071 2.191178,-0.630837 0.07521,-0.0428 0.234651,-0.08034 0.354335,-0.08339 0.199572,-0.0051 0.189872,-0.01788 -0.117044,-0.154252 -0.184056,-0.08178 -0.334649,-0.202183 -0.334649,-0.26756 0,-0.07217 -0.04541,-0.101436 -0.115621,-0.0745 -0.06359,0.0244 -0.107883,0.0853 -0.09842,0.135325 0.02731,0.144494 -0.542012,0.146779 -1.36077,0.0055 -0.41142,-0.071 -0.996071,-0.145998 -1.299224,-0.166638 -0.303151,-0.02063 -0.588859,-0.06864 -0.634905,-0.10667 -0.0774,-0.06394 -2.909696,0.631468 -3.131599,0.768882 -0.0505,0.03126 -0.233531,0.07599 -0.406761,0.0994 l -0.314964,0.04257 0.01583,0.391998 c 0.0087,0.215599 0.05301,0.404386 0.09843,0.419526 0.04542,0.01514 0.08257,0.09432 0.08257,0.175974 0,0.106977 -0.03848,0.135182 -0.137797,0.10096 -0.122358,-0.04218 -0.121462,-0.03474 0.0081,0.06631 0.08987,0.07015 0.161753,0.255425 0.187408,0.483037 0.02288,0.203079 0.04794,0.36923 0.05567,0.36923 0.0077,0 0.313165,-0.11092 0.678741,-0.246491 z m 6.060011,0.04774 c 0.149044,-0.179586 0.06707,-0.203889 -0.393285,-0.116587 -0.229459,0.04352 -0.57181,0.07912 -0.760784,0.07912 -0.188972,0 -0.343585,0.03543 -0.343585,0.07873 0,0.04659 0.285501,0.07874 0.699026,0.07874 0.530222,0 0.723078,-0.02898 0.798628,-0.120016 z M 15.135834,38.376213 c 0.110248,0 0.153569,-0.05413 0.153569,-0.191864 0,-0.158905 -0.04395,-0.196102 -0.255907,-0.216537 -0.224534,-0.02165 -0.268892,-0.06569 -0.361807,-0.359323 -0.08459,-0.267291 -0.14272,-0.334649 -0.288839,-0.334649 -0.10062,0 -0.234415,-0.01975 -0.29733,-0.04389 -0.176709,-0.06782 -0.208403,0.134163 -0.09656,0.615318 0.13388,0.575934 0.160106,0.60969 0.473658,0.60969 0.146464,0 0.291011,0.03998 0.321214,0.08885 0.03754,0.06075 0.07762,0.0483 0.12667,-0.03937 0.03947,-0.07052 0.140864,-0.128222 0.225327,-0.128222 z m 3.267757,-0.09356 c 0.13208,-0.07312 0.486415,-0.176275 0.787409,-0.229243 0.300994,-0.05297 0.574643,-0.11974 0.608111,-0.148385 0.03346,-0.02865 -0.40268,-0.133045 -0.969215,-0.232002 -0.566535,-0.09896 -1.046323,-0.163663 -1.066195,-0.14379 -0.01987,0.01987 0.03458,0.191999 0.121022,0.382504 0.08643,0.190505 0.158472,0.417239 0.160087,0.503854 0.0015,0.08662 0.02896,0.122048 0.06079,0.07874 0.03182,-0.04331 0.165917,-0.138562 0.297998,-0.211678 z M 15.59449,37.569127 c -0.150018,-0.282272 -0.494452,-0.802723 -0.565348,-0.854258 -0.03568,-0.02594 -0.151176,-0.03067 -0.256645,-0.01048 -0.154335,0.02951 -0.191763,0.0041 -0.191763,-0.130003 0,-0.09565 0.05033,-0.166663 0.118111,-0.166663 0.06496,0 0.118112,-0.03109 0.118112,-0.06909 0,-0.159238 -0.263944,-0.265765 -0.669489,-0.270204 -0.398678,-0.0043 -0.432883,-0.01915 -0.432883,-0.187051 0,-0.159835 -0.0364,-0.181165 -0.295278,-0.172998 -0.293877,0.0093 -0.294158,0.0096 -0.05905,0.06943 0.148184,0.03771 0.179332,0.06358 0.08358,0.06942 -0.14142,0.0087 -0.138727,0.02228 0.03663,0.185656 0.104103,0.09699 0.261376,0.168758 0.349496,0.15949 0.08812,-0.0093 0.115926,0.0029 0.06179,0.02707 -0.05414,0.02416 -0.09843,0.09412 -0.09843,0.155475 0,0.06135 -0.03543,0.11155 -0.07873,0.11155 -0.04331,0 -0.07874,0.04902 -0.07874,0.108927 0,0.11103 0.22836,0.202675 0.511816,0.205401 0.08662,8.33e-4 0.289367,0.03814 0.450558,0.0829 0.250054,0.06945 0.305301,0.126793 0.376353,0.390657 0.08878,0.329706 0.243473,0.465697 0.53414,0.469565 0.162164,0.0021 0.170638,-0.01511 0.08578,-0.174772 z m 17.254124,-0.216548 c 0,-0.04331 -0.03752,-0.07873 -0.08339,-0.07873 -0.04587,0 -0.06149,0.03543 -0.03472,0.07873 0.02677,0.04331 0.06429,0.07874 0.08339,0.07874 0.0191,0 0.03472,-0.03543 0.03472,-0.07874 z m 0.86615,-0.348137 c 0.709698,-0.153859 1.483484,-0.338455 1.811041,-0.432046 0.151575,-0.04331 0.435042,-0.118915 0.629927,-0.168013 0.583947,-0.147122 1.135499,-0.330121 1.239715,-0.411328 0.05388,-0.04198 0.187093,-0.05931 0.296016,-0.03849 0.208511,0.03986 0.887307,-0.128777 1.613902,-0.400948 0.238192,-0.08922 1.10631,-0.324163 1.929153,-0.522089 1.793726,-0.431463 5.055198,-1.281706 5.275637,-1.375322 0.08662,-0.03679 0.823445,-0.227004 1.6374,-0.422715 1.493177,-0.359024 1.895911,-0.533773 2.097275,-0.910025 0.06894,-0.128834 0.01729,-0.124915 -0.609184,0.0462 -0.828625,0.226342 -1.744706,0.448617 -2.849898,0.69149 -1.829511,0.402046 -3.476695,0.799158 -4.055154,0.977639 -0.259846,0.08017 -0.968513,0.260269 -1.574818,0.400212 -0.606305,0.139944 -1.59844,0.371209 -2.204744,0.513924 -0.606304,0.142714 -1.244105,0.281861 -1.417335,0.309217 -0.17323,0.02736 -0.811032,0.170612 -1.417336,0.318352 -1.401946,0.341618 -3.496411,0.613253 -3.937043,0.510605 -0.53245,-0.12404 -0.646332,-0.101119 -0.692536,0.139407 -0.02287,0.119095 -0.02657,0.231737 -0.0083,0.250313 0.01836,0.01857 0.178033,-0.04343 0.354821,-0.137796 0.395463,-0.211085 0.464037,-0.213664 0.464037,-0.01745 0,0.186943 -0.416015,0.531773 -0.879633,0.729117 l -0.340851,0.145087 1.063002,-0.04219 c 0.584652,-0.02321 1.293318,-0.09213 1.574817,-0.153155 z m -4.803193,-0.130206 c -0.281499,-0.1331 -0.634262,-0.335317 -0.783919,-0.449375 -0.289015,-0.220264 -0.53908,-0.270128 -2.050752,-0.408934 -1.76304,-0.161887 -3.630861,-0.317962 -4.724451,-0.394775 -0.627958,-0.04411 -1.511987,-0.117421 -1.964507,-0.162917 -0.45252,-0.0455 -0.956145,-0.06019 -1.119167,-0.03265 -0.163022,0.02755 -0.341996,0.02144 -0.39772,-0.01356 -0.05573,-0.035 -0.207616,-0.06795 -0.337537,-0.07323 -0.129922,-0.0054 -0.401443,-0.04525 -0.603379,-0.08883 -0.322034,-0.06951 -0.361277,-0.06393 -0.319334,0.04537 0.157255,0.409805 0.903786,0.659675 1.907159,0.638347 0.73174,-0.01555 0.881212,-0.005 0.97365,0.06892 0.112264,0.08973 1.608328,0.266962 1.712112,0.20282 0.04229,-0.02614 0.11962,-0.01301 0.171857,0.02914 0.126024,0.101722 0.589528,0.164197 1.839215,0.2479 0.569564,0.03815 1.366816,0.109407 1.771669,0.15835 0.404855,0.04894 1.072717,0.122097 1.484138,0.162564 1.764427,0.173554 2.327525,0.236256 2.401597,0.267415 0.04331,0.01822 0.18504,0.0359 0.314962,0.03928 0.197555,0.0053 0.15244,-0.03346 -0.275593,-0.235842 z m 1.653559,0.163379 c 0,-0.04331 -0.03752,-0.07874 -0.08339,-0.07874 -0.04587,0 -0.06149,0.03543 -0.03472,0.07874 0.02676,0.04331 0.06429,0.07874 0.08339,0.07874 0.0191,0 0.03472,-0.03543 0.03472,-0.07874 z m -1.330079,-0.676594 c -0.408668,-0.367428 -0.524444,-0.662 -0.260185,-0.662 0.07812,0 0.264145,0.126924 0.413389,0.282056 0.149245,0.155131 0.340897,0.319859 0.425894,0.366063 0.151317,0.08226 0.151588,0.07951 0.013,-0.131989 -0.0929,-0.14177 -0.124158,-0.285207 -0.09098,-0.417382 l 0.05054,-0.201382 -0.713166,0.0462 c -0.588553,0.03813 -0.713167,0.02645 -0.713167,-0.0668 0,-0.09038 -0.153719,-0.113205 -0.767723,-0.114037 -0.84835,-0.0012 -3.360293,-0.197923 -3.4813,-0.272709 -0.04218,-0.02608 -0.44102,-0.08264 -0.886305,-0.125719 -0.445283,-0.04307 -1.146224,-0.113745 -1.557645,-0.157048 -1.457797,-0.153437 -2.329183,-0.232748 -2.83467,-0.258004 -0.2815,-0.01406 -0.653551,-0.06339 -0.82678,-0.10962 -0.17323,-0.04622 -0.554138,-0.108059 -0.846464,-0.137407 -0.38167,-0.03832 -0.531501,-0.0849 -0.531501,-0.165205 0,-0.06152 0.062,-0.11292 0.137796,-0.114238 0.126669,-0.0022 0.127213,-0.0086 0.0068,-0.07888 -0.111544,-0.0651 -1.30499,0.03552 -1.38733,0.116962 -0.01227,0.01213 0.156034,0.04572 0.37402,0.07464 0.396938,0.05266 0.554144,0.23663 0.258538,0.302563 -0.251808,0.05617 0.456103,0.136841 4.980359,0.567592 5.499967,0.523648 6.537258,0.610894 6.889825,0.579501 0.244336,-0.02176 0.275593,-0.0034 0.275593,0.162058 0,0.15357 0.115565,0.247643 0.652922,0.531501 0.359106,0.189696 0.690697,0.344904 0.736868,0.344904 0.04618,0 -0.09706,-0.162733 -0.318272,-0.361631 z m -6.529243,0.229102 c -0.05684,-0.02274 -0.124756,-0.01994 -0.150921,0.0063 -0.02616,0.02616 0.02033,0.04477 0.103352,0.04136 0.09173,-0.0038 0.110386,-0.02244 0.04756,-0.04756 z m 17.735189,-0.251286 c 0.0234,-0.03786 -0.127118,-0.139363 -0.334491,-0.225543 l -0.377044,-0.156693 -0.210986,0.181483 -0.210987,0.181484 0.294217,0.03082 c 0.570038,0.05972 0.797173,0.05659 0.839291,-0.01156 z m 0.242334,-0.639816 c 0.02677,-0.04331 -0.0066,-0.07873 -0.07409,-0.07873 -0.06751,0 -0.122759,0.03543 -0.122759,0.07873 0,0.04331 0.03335,0.07874 0.07409,0.07874 0.04075,0 0.096,-0.03543 0.122759,-0.07874 z m -7.716605,-0.08325 c -0.173229,-0.03583 -0.669297,-0.06162 -1.102371,-0.05731 -0.63699,0.0064 -0.7122,0.01815 -0.393705,0.06183 0.216537,0.02971 0.712604,0.0555 1.102373,0.05731 0.56934,0.0026 0.646744,-0.0095 0.393703,-0.06183 z m -19.316117,-0.04927 c -0.05684,-0.02274 -0.124756,-0.01994 -0.150921,0.0063 -0.02616,0.02616 0.02034,0.04477 0.103352,0.04136 0.09173,-0.0038 0.110387,-0.02244 0.04757,-0.04756 z m 20.000179,0 c -0.05684,-0.02274 -0.124756,-0.01994 -0.150921,0.0063 -0.02616,0.02616 0.02034,0.04477 0.103352,0.04136 0.09173,-0.0038 0.110387,-0.02244 0.04756,-0.04756 z m 0.477366,-0.0771 c -0.05414,-0.02184 -0.142717,-0.02184 -0.196852,0 -0.05414,0.02184 -0.0098,0.03972 0.09843,0.03972 0.108268,0 0.152559,-0.01788 0.09842,-0.03972 z m -1.615686,-0.08117 c -0.07661,-0.01996 -0.182912,-0.01865 -0.236223,0.0029 -0.05331,0.02157 0.0094,0.03791 0.139295,0.0363 0.129922,-0.0015 0.17354,-0.01924 0.09693,-0.03922 z m 3.210188,-0.177797 c 2.752624,-0.568362 9.228936,-2.100189 8.974497,-2.122716 -0.1223,-0.01083 -10.13056,2.21742 -10.391832,2.313647 -0.285154,0.105024 0.489221,7.09e-4 1.417335,-0.190931 z m -9.079804,0.02109 c -0.05684,-0.02274 -0.124757,-0.01995 -0.150921,0.0063 -0.02616,0.02616 0.02033,0.04478 0.103351,0.04136 0.09173,-0.0038 0.110387,-0.02244 0.04757,-0.04757 z m 7.898691,-0.311915 c 1.507276,-0.308167 8.638662,-1.894837 11.929241,-2.654151 l 2.165373,-0.499667 -0.905518,-0.05025 c -0.498036,-0.02764 -1.925449,-0.05957 -3.172029,-0.07096 -1.871063,-0.0171 -2.27839,-0.0015 -2.334611,0.08921 -0.04682,0.07557 -1.221057,0.300787 -3.757168,0.720613 -2.028985,0.335877 -5.460734,0.965421 -7.626108,1.398988 -2.165375,0.433565 -4.299999,0.852695 -4.743614,0.9314 -0.616206,0.109326 -0.765204,0.158402 -0.6313,0.207937 0.0964,0.03566 1.398342,0.08226 2.893204,0.103551 1.494864,0.02129 3.001399,0.06864 3.347859,0.105183 0.823439,0.0869 1.227601,0.0467 2.834671,-0.281862 z M 25.54048,35.17279 c -0.05684,-0.02274 -0.124757,-0.01994 -0.150922,0.0063 -0.02616,0.02616 0.02033,0.04477 0.103351,0.04136 0.09173,-0.0038 0.110388,-0.02244 0.04758,-0.04757 z M 11.332674,34.964469 c 0.05413,-0.03418 0.09843,-0.113211 0.09843,-0.175616 0,-0.06241 0.02904,-0.113463 0.06452,-0.113463 0.03548,0 0.248451,-0.137231 0.473255,-0.304957 0.224804,-0.167726 0.568734,-0.349754 0.764288,-0.404506 0.195554,-0.05475 0.373948,-0.129312 0.39643,-0.165688 0.02248,-0.03637 0.09334,-0.394708 0.157467,-0.796291 0.144223,-0.903208 0.214249,-1.123158 0.502062,-1.576994 l 0.22777,-0.359155 -0.722024,0.198837 c -0.592395,0.163139 -0.828603,0.190784 -1.315659,0.153982 -0.505143,-0.03817 -0.673106,-0.01601 -1.126742,0.148652 -0.75496,0.274037 -0.9311514,0.377231 -1.2537712,0.734334 -0.5659881,0.626482 -0.5659581,1.456738 7.8e-5,2.096193 0.07667,0.08661 0.3091048,0.266775 0.5165212,0.400358 0.294051,0.189376 0.458827,0.24107 0.748038,0.234671 0.204004,-0.0046 0.415208,-0.03617 0.469342,-0.07036 z m 11.215652,-0.106646 c -0.05684,-0.02274 -0.124755,-0.01994 -0.150921,0.0063 -0.02616,0.02616 0.02033,0.04477 0.103352,0.04136 0.09173,-0.0038 0.110387,-0.02244 0.04758,-0.04756 z m 2.075287,-0.149838 c 0.301272,-0.02964 0.607887,-0.08475 0.681367,-0.122495 0.07347,-0.03775 0.339229,-0.102992 0.590556,-0.144986 1.257543,-0.210135 2.224511,-0.402333 2.54359,-0.505572 0.194884,-0.06306 0.744101,-0.17192 1.220485,-0.241924 0.47638,-0.07 2.0886,-0.371334 3.582709,-0.669629 1.494107,-0.298293 3.655545,-0.688086 4.803192,-0.866207 1.147647,-0.178119 2.139783,-0.335148 2.204744,-0.348955 0.233077,-0.04954 -1.105669,-0.07868 -3.543338,-0.07716 l -2.480338,0.0015 -1.653557,0.286491 c -0.909458,0.157568 -2.645695,0.431445 -3.858303,0.608615 -1.212609,0.17717 -2.486451,0.376274 -2.830758,0.442454 -0.344307,0.06619 -0.875808,0.15106 -1.181113,0.188626 -1.134307,0.139566 -1.835733,0.236162 -2.602362,0.358376 -0.433075,0.06904 -1.021703,0.155533 -1.308063,0.19221 -0.286359,0.03669 -0.65841,0.100673 -0.826779,0.142219 -0.168369,0.04155 -0.616336,0.120826 -0.995483,0.176184 -0.379148,0.05536 -0.680113,0.109899 -0.668809,0.121202 0.0113,0.0113 0.551832,0.07813 1.201174,0.148519 0.649344,0.07039 1.628409,0.179836 2.175698,0.243229 0.547291,0.06339 1.052668,0.09316 1.12306,0.06615 0.0704,-0.02702 0.172726,-0.01198 0.22741,0.0334 0.117968,0.0979 0.847178,0.155912 0.964991,0.07676 0.04519,-0.03036 0.328653,-0.07943 0.629927,-0.109061 z m -6.873557,-0.399708 c -0.05413,-0.02184 -0.142719,-0.02184 -0.196853,0 -0.05414,0.02184 -0.0098,0.03972 0.09843,0.03972 0.108268,0 0.15256,-0.01788 0.09843,-0.03972 z m 35.074275,-0.400611 c -0.01981,-0.07578 -0.03601,-0.01377 -0.03601,0.137796 0,0.151577 0.01621,0.213584 0.03601,0.137797 0.01981,-0.07578 0.01981,-0.199805 0,-0.275593 z m -35.630384,0.08401 c -0.05684,-0.02274 -0.124754,-0.01994 -0.150919,0.0063 -0.02616,0.02616 0.02033,0.04477 0.103351,0.04136 0.09173,-0.0038 0.110386,-0.02244 0.04757,-0.04757 z m 0.516737,-0.07923 c -0.07578,-0.0198 -0.199805,-0.0198 -0.275593,0 -0.07579,0.01981 -0.01377,0.03601 0.137798,0.03601 0.151575,0 0.213584,-0.01621 0.137795,-0.03601 z m 0.470947,-0.07903 c -0.07661,-0.01996 -0.182913,-0.01865 -0.236223,0.0029 -0.05332,0.02157 0.0094,0.03791 0.139296,0.0363 0.129922,-0.0015 0.173539,-0.01925 0.09693,-0.03922 z m -3.650592,-0.267827 c 0.04675,-0.233724 -0.08011,-1.695135 -0.158103,-1.821321 -0.0729,-0.117962 -0.185906,-0.05934 -0.185906,0.09645 0,0.08662 -0.03631,0.157481 -0.0807,0.157481 -0.15517,0 -0.253811,0.438511 -0.247971,1.102372 0.0033,0.368114 0.0076,0.678156 0.0098,0.688984 0.0021,0.01082 0.14121,0.01969 0.309026,0.01969 0.278099,0 0.309436,-0.02158 0.35385,-0.243653 z m 2.333181,0.04334 c 0.844495,-0.108806 1.803029,-0.231691 2.130072,-0.273078 1.28036,-0.162027 4.714865,-0.695015 4.794084,-0.743974 0.04608,-0.02847 0.08378,-0.151651 0.08378,-0.273715 0,-0.122063 0.05193,-0.26503 0.115396,-0.317703 0.06346,-0.05267 0.47981,-0.145896 0.925205,-0.20716 1.323212,-0.182008 2.057382,-0.350202 2.23222,-0.511384 0.188848,-0.174096 0.428,-0.197977 0.428,-0.04273 0,0.05892 -0.08859,0.237659 -0.196852,0.397201 -0.108269,0.159544 -0.196852,0.308253 -0.196852,0.330468 0,0.100387 1.119878,-0.02132 3.813377,-0.41446 1.599322,-0.233433 2.990083,-0.445062 3.09058,-0.470284 0.172465,-0.04328 0.182696,-0.08185 0.182281,-0.686937 -4.72e-4,-0.696874 -0.10314,-1.194098 -0.258879,-1.253863 -0.11012,-0.04226 -6.27917,0.550165 -6.337613,0.60861 -0.02035,0.02035 0.02058,0.180935 0.09095,0.356838 0.169853,0.424503 0.172185,0.946563 0.0042,0.946563 -0.241708,0 -0.37774,-0.240941 -0.394149,-0.698116 -0.02286,-0.636932 -0.01994,-0.625623 -0.174384,-0.674645 -0.0776,-0.02463 -0.239739,-0.239615 -0.360318,-0.477751 l -0.21923,-0.432973 -1.076704,0.006 c -0.592186,0.0033 -1.359866,0.0478 -1.705955,0.099 -0.609981,0.09023 -0.630498,0.100272 -0.669904,0.327772 -0.0495,0.285767 -0.304568,0.372376 -0.369167,0.125349 -0.02363,-0.09038 -0.06543,-0.164329 -0.09288,-0.164329 -0.02745,0 -0.209342,0.146921 -0.404207,0.326493 -0.339667,0.313009 -0.345205,0.488199 -0.0097,0.308673 0.233372,-0.124897 0.954682,0.05461 0.954682,0.237585 0,0.173381 0.06381,0.163949 -3.425228,0.506206 -3.242683,0.31809 -5.108878,0.516099 -5.138875,0.545251 -0.0114,0.01107 0.03918,0.158448 0.112417,0.327501 0.09481,0.218879 0.143068,0.607735 0.167636,1.350685 0.03315,1.002393 0.04109,1.043268 0.202547,1.042072 0.09243,-7.08e-4 0.858997,-0.09028 1.703493,-0.199072 z m 1.825803,0.146526 c -0.05684,-0.02274 -0.124755,-0.01994 -0.150919,0.0063 -0.02616,0.02616 0.02033,0.04477 0.103351,0.04136 0.09173,-0.0038 0.110387,-0.02244 0.04756,-0.04757 z m 34.080031,-0.05212 c 0,-0.01494 -0.07973,-0.09466 -0.177168,-0.177168 l -0.177166,-0.15 0.150001,0.177167 c 0.140963,0.166493 0.204333,0.213013 0.204333,0.150001 z m -1.39765,-0.579594 c -0.09745,-0.01877 -0.256893,-0.01877 -0.354335,0 -0.09745,0.01877 -0.01772,0.03412 0.177167,0.03412 0.194884,0 0.274609,-0.01535 0.177168,-0.03412 z m -6.382932,-0.07696 c -0.05684,-0.02274 -0.124755,-0.01994 -0.150921,0.0063 -0.02616,0.02616 0.02033,0.04477 0.103352,0.04136 0.09173,-0.0038 0.110387,-0.02244 0.04757,-0.04756 z m 5.674263,0.0015 c -0.05414,-0.02184 -0.142717,-0.02184 -0.196852,0 -0.05414,0.02184 -0.0098,0.03972 0.09843,0.03972 0.108267,0 0.15256,-0.01788 0.09843,-0.03972 z m -5.275638,-0.07874 c -0.05414,-0.02184 -0.142717,-0.02184 -0.196852,0 -0.05414,0.02184 -0.0098,0.03972 0.09843,0.03972 0.10827,0 0.152561,-0.01788 0.09843,-0.03972 z m 0.310043,-0.08038 c -0.05684,-0.02274 -0.124755,-0.01994 -0.15092,0.0063 -0.02616,0.02616 0.02033,0.04477 0.103351,0.04136 0.09173,-0.0038 0.110388,-0.02244 0.04756,-0.04756 z m 0.393705,-0.07874 c -0.05684,-0.02274 -0.124757,-0.01994 -0.150922,0.0063 -0.02616,0.02616 0.02034,0.04477 0.103352,0.04136 0.09173,-0.0038 0.110386,-0.02244 0.04757,-0.04756 z m 0.615162,-0.10369 c 0.155874,-0.04992 0.164069,-0.06305 0.03937,-0.06305 -0.08662,0 -0.246066,0.02837 -0.354334,0.06305 -0.155873,0.04991 -0.164071,0.06305 -0.03937,0.06305 0.08662,0 0.246065,-0.02837 0.354334,-0.06305 z m 0.408469,-0.132529 c -0.05684,-0.02274 -0.124756,-0.01994 -0.150922,0.0063 -0.02616,0.02616 0.02034,0.04477 0.103353,0.04136 0.09173,-0.0038 0.110386,-0.02244 0.04757,-0.04757 z m 0.314963,-0.07874 c -0.05684,-0.02274 -0.124756,-0.01994 -0.150921,0.0063 -0.02616,0.02616 0.02033,0.04477 0.103352,0.04136 0.09173,-0.0038 0.110387,-0.02244 0.04756,-0.04756 z m 0.314963,-0.07874 c -0.05684,-0.02274 -0.124756,-0.01995 -0.15092,0.0063 -0.02616,0.02616 0.02034,0.04477 0.103351,0.04136 0.09173,-0.0038 0.110387,-0.02244 0.04756,-0.04757 z m -22.436225,-0.0771 c -0.05413,-0.02184 -0.142718,-0.02184 -0.196851,0 -0.05414,0.02184 -0.0098,0.03972 0.09843,0.03972 0.10827,0 0.152561,-0.01788 0.09843,-0.03972 z m 0.688984,-0.10533 c 0.09551,-0.06172 0.08421,-0.07655 -0.05905,-0.07755 -0.09745,-6.62e-4 -0.177168,0.03423 -0.177168,0.07755 0,0.09865 0.08356,0.09865 0.236224,0 z m 23.582887,-0.246771 c 0.10811,-0.0473 0.07108,-0.05325 -0.118112,-0.01895 -0.151575,0.02748 -0.346459,0.08098 -0.433074,0.118886 -0.108109,0.0473 -0.07108,0.05325 0.118112,0.01895 0.151575,-0.02748 0.346459,-0.08098 0.433074,-0.118888 z m 0.369098,-0.121925 c -0.05684,-0.02274 -0.124756,-0.01995 -0.15092,0.0063 -0.02616,0.02616 0.02033,0.04477 0.103351,0.04136 0.09173,-0.0038 0.110387,-0.02244 0.04756,-0.04757 z m -9.463668,-0.339841 c 0,-0.04331 -0.07086,-0.07874 -0.157481,-0.07874 -0.08662,0 -0.157482,0.03543 -0.157482,0.07874 0,0.04331 0.07086,0.07873 0.157482,0.07873 0.08662,0 0.157481,-0.03543 0.157481,-0.07873 z m -4.015783,-0.06627 c 0,-0.03996 -0.141734,-0.0746 -0.314963,-0.077 -0.173231,-0.0024 -0.314964,0.02193 -0.314964,0.05407 0,0.03213 0.141733,0.06678 0.314964,0.077 0.173229,0.01026 0.314963,-0.0141 0.314963,-0.05407 z M 35.105507,30.71866 c -0.02184,-0.05413 -0.03972,-0.0098 -0.03972,0.09843 0,0.10827 0.01787,0.15256 0.03972,0.09843 0.02184,-0.05414 0.02184,-0.142718 0,-0.196851 z M 13.844433,30.64167 c 0.340004,-0.0043 0.653624,-0.02867 0.696931,-0.05405 0.04331,-0.02538 0.149608,-0.04893 0.236224,-0.05236 0.08662,-0.0034 0.343506,-0.01228 0.570871,-0.01969 0.293441,-0.0095 0.413389,-0.04514 0.413389,-0.122639 0,-0.141735 0.525734,-0.220634 1.328742,-0.199407 0.339929,0.009 0.651807,-0.0046 0.693065,-0.03003 0.04127,-0.02549 0.675089,-0.06638 1.408515,-0.09085 1.180785,-0.0394 1.969125,-0.121053 2.028986,-0.210151 0.01097,-0.01632 0.05779,-0.18028 0.10405,-0.364336 0.08362,-0.332714 0.08286,-0.334649 -0.131538,-0.334649 -0.217343,0 -0.438896,-0.176002 -0.367361,-0.29183 0.04291,-0.06949 -0.862433,-0.07148 -1.048677,-0.0023 -0.06496,0.02413 -1.500013,0.158771 -3.189005,0.29921 -2.614894,0.217426 -3.094476,0.27641 -3.229712,0.397223 -0.08734,0.07803 -0.231887,0.136379 -0.321194,0.129651 -0.180588,-0.0136 -0.815566,0.475172 -0.817791,0.629495 -7.88e-4,0.05414 -0.04362,0.09843 -0.09521,0.09843 -0.05157,0 -0.02501,0.05202 0.05905,0.115608 0.08407,0.06358 0.285722,0.116733 0.448124,0.11811 0.221258,0.0019 0.295279,0.03518 0.295279,0.132819 0,0.119501 0.01241,0.119085 0.149533,-0.005 0.112676,-0.101965 0.301911,-0.137277 0.767723,-0.14324 z m -1.876334,-1.019953 c 0.202687,-0.137762 0.444908,-0.323787 0.538271,-0.41339 0.09336,-0.0896 0.226238,-0.2086 0.295279,-0.264442 0.155439,-0.125724 0.158084,-0.208998 0.0113,-0.355778 -0.06282,-0.06282 -0.137122,-0.215946 -0.165109,-0.340274 -0.02798,-0.124325 -0.29265,-0.84613 -0.58814,-1.604012 -0.295493,-0.757881 -0.844545,-2.175218 -1.220118,-3.149635 -0.375572,-0.974419 -0.715024,-1.805332 -0.754338,-1.846473 -0.03931,-0.04115 -0.07148,-0.13127 -0.07148,-0.200284 0,-0.06901 -0.09745,-0.318246 -0.2165372,-0.553846 -0.188116,-0.37215 -0.253051,-0.434293 -0.4948001,-0.473538 -0.153048,-0.02485 -0.318158,-0.06982 -0.366913,-0.09996 -0.186785,-0.115439 -0.333349,0.0561 -0.490777,0.574394 -0.0898,0.295636 -0.163267,0.625524 -0.163267,0.733082 0,0.272231 0.563735,1.879213 1.025677,2.923791 0.2120891,0.479592 0.4191831,1.024981 0.4602091,1.211979 0.04103,0.186995 0.1929778,0.603299 0.3376692,0.925118 0.210362,0.467881 0.297431,0.585143 0.434529,0.585212 0.390816,1.58e-4 0.656326,0.691624 0.470728,1.225849 -0.0954,0.274626 -0.0911,0.357741 0.03809,0.734188 0.250563,0.730145 0.352871,0.773307 0.919731,0.388019 z m 17.016559,-0.699582 c 0.307905,-0.06058 0.510916,-0.145243 0.55765,-0.232567 0.04041,-0.07551 0.225081,-0.212349 0.410358,-0.30406 0.18528,-0.09171 0.292579,-0.166775 0.238446,-0.16681 -0.05413,-3.4e-5 -0.09843,-0.0556 -0.09843,-0.123479 0,-0.08155 -0.04675,-0.108723 -0.137797,-0.0801 -0.07578,0.02382 -0.409409,0.06056 -0.74138,0.08164 -0.495678,0.03148 -0.639939,0.07202 -0.806947,0.226795 -0.157362,0.145837 -0.320812,0.197899 -0.72259,0.230149 -0.607245,0.04875 -0.707831,0.115913 -0.537581,0.358978 0.113722,0.162363 0.170201,0.173086 0.738622,0.140261 0.338515,-0.01955 0.833357,-0.07841 1.099646,-0.130797 z m 0.184462,-0.67233 c 0.02616,-0.02616 0.09408,-0.02896 0.15092,-0.0063 0.06282,0.02513 0.04415,0.04379 -0.04757,0.04757 -0.08301,0.0034 -0.129513,-0.01519 -0.103352,-0.04136 z m 0.429936,-0.08282 c 0.05331,-0.02157 0.15961,-0.02288 0.236222,-0.0029 0.07661,0.01996 0.03299,0.03761 -0.09693,0.03922 -0.129921,0.0015 -0.192603,-0.01473 -0.139294,-0.0363 z m -15.62717,0.572914 c -0.02861,-0.149633 0.01571,-0.213116 0.219869,-0.314963 0.380429,-0.189783 0.625202,-0.16882 0.625202,0.05354 0,0.09961 -0.04429,0.22831 -0.09842,0.286006 -0.08099,0.08632 -0.05659,0.09772 0.137796,0.06433 0.129924,-0.02231 3.68212,-0.336838 7.893771,-0.698947 7.558727,-0.649885 7.65755,-0.66055 7.65755,-0.826354 0,-0.400661 0.637622,-0.444506 0.694475,-0.04776 0.01923,0.134219 0.0657,0.167295 0.196852,0.140089 0.09442,-0.01959 0.481717,-0.05825 0.860657,-0.08593 0.37894,-0.02768 0.688982,-0.06364 0.688982,-0.07994 0,-0.0163 -0.05956,-0.154537 -0.132364,-0.307201 -0.117944,-0.247333 -0.146092,-0.265145 -0.25839,-0.163517 -0.108154,0.09788 -0.170341,0.09882 -0.438507,0.0067 -0.212252,-0.07297 -0.312482,-0.153972 -0.312482,-0.252543 0,-0.201915 0.471831,-0.245082 0.67446,-0.06171 0.08135,0.07363 -0.01941,-0.170917 -0.223904,-0.543422 -0.385866,-0.702877 -0.537709,-0.835552 -0.5324,-0.465195 0.0048,0.331564 -0.249099,0.312125 -0.809318,-0.06197 -0.515231,-0.344059 -0.633249,-0.590604 -0.309635,-0.646845 0.169069,-0.02937 0.16704,-0.03504 -0.04436,-0.123537 -0.187826,-0.07864 -0.217774,-0.131688 -0.196853,-0.348705 0.03539,-0.367007 0.257601,-0.362574 0.730905,0.01458 0.215196,0.171478 0.399922,0.303121 0.410502,0.29254 0.01059,-0.01059 -0.315675,-0.655386 -0.725012,-1.4329 -0.409337,-0.777515 -0.744654,-1.440913 -0.74515,-1.474218 -4.73e-4,-0.03331 -0.08914,-0.0384 -0.197018,-0.01133 -0.141852,0.0356 -0.210109,0.01276 -0.246678,-0.08254 -0.0725,-0.188947 0.08885,-0.330282 0.236856,-0.207454 0.145588,0.120826 -0.0134,-0.178942 -1.56573,-2.952293 -0.69292,-1.237958 -1.408855,-2.419474 -1.590968,-2.625605 -0.358099,-0.405327 -0.70517,-0.572273 -1.474702,-0.709352 -0.644275,-0.114769 -0.981287,-0.101415 -0.543334,0.02153 l 0.328037,0.09209 1.096939,2.165375 c 0.603316,1.190956 1.757875,3.463489 2.565687,5.050075 0.808985,1.588884 1.468752,2.978291 1.468752,3.09305 0,0.114593 -0.04429,0.222608 -0.09843,0.240036 -0.05413,0.01743 -1.781512,0.106699 -3.838618,0.19838 -2.057104,0.09168 -5.086659,0.235389 -6.732343,0.319353 -1.645685,0.08397 -3.177361,0.153029 -3.403728,0.153482 -0.487826,9.99e-4 -0.510165,-0.02448 -0.983351,-1.12051 -0.707547,-1.638911 -4.017193,-9.731638 -4.327252,-10.581005 -0.326576,-0.894617 -0.330423,-0.916619 -0.179813,-1.028298 0.172921,-0.128223 0.09713,-0.132434 3.248346,0.180503 1.095638,0.108804 2.051114,0.186456 2.123279,0.172558 0.180532,-0.03477 -6.6880993,-0.783838 -7.2322703,-0.788728 -0.498224,-0.0044 -0.816332,0.125194 -0.747455,0.304685 0.02503,0.06522 0.06853,0.478853 0.09666,0.919166 0.05016,0.785112 0.06923,0.847245 0.987571,3.217915 1.0237959,2.6429 1.2564793,3.133887 1.4851813,3.133887 0.09602,0 0.133096,-0.03957 0.105204,-0.11225 -0.0253,-0.06593 0.04064,-0.167102 0.15981,-0.245184 0.238973,-0.156582 0.825976,-0.104305 1.148061,0.102239 0.270894,0.173718 0.629927,0.540111 0.629927,0.642843 0,0.04663 0.03101,0.08481 0.06889,0.08481 0.116106,0 0.164182,0.437855 0.08111,0.738715 -0.167004,0.604838 -1.142916,0.713852 -1.702029,0.190128 -0.143164,-0.134104 -0.09764,0.03565 0.256535,0.956483 0.537037,1.396284 0.583246,1.48734 0.673202,1.326597 0.03705,-0.0662 0.175153,-0.165024 0.306893,-0.219592 0.203138,-0.08414 0.295497,-0.07784 0.607958,0.04149 0.262287,0.100166 0.37719,0.114434 0.398829,0.04952 0.04563,-0.13691 0.207912,-0.110336 0.439728,0.072 0.209963,0.165156 0.27957,0.387988 0.121201,0.387988 -0.04745,0 -0.18548,-0.07064 -0.306732,-0.156982 -0.174909,-0.124546 -0.229003,-0.134721 -0.261801,-0.04924 -0.02274,0.05925 -0.205486,0.132347 -0.406108,0.162432 -0.279337,0.04189 -0.384943,0.09898 -0.450913,0.243771 -0.101817,0.22346 -0.02622,0.339921 0.44095,0.679305 0.385187,0.27983 0.772601,0.298548 0.950449,0.04593 0.113814,-0.161663 0.113813,-0.17947 -3e-5,-0.203491 -0.06862,-0.01448 -0.11347,-0.08494 -0.09967,-0.156578 0.02829,-0.146915 0.298869,-0.231851 0.298869,-0.09381 0,0.04903 -0.04091,0.06387 -0.09091,0.03297 -0.05206,-0.03218 -0.06969,-0.02185 -0.04126,0.02416 0.02731,0.0442 0.139087,0.06325 0.24839,0.04236 0.188571,-0.03605 0.198731,-0.01994 0.198731,0.314906 0,0.712599 -0.492958,0.974455 -1.313177,0.69755 -0.251353,-0.08487 -0.465525,-0.14578 -0.475928,-0.135376 -0.01973,0.01973 0.962821,2.441268 1.043579,2.571938 0.02539,0.04108 0.16317,0.07468 0.306186,0.07468 0.231408,0 0.256083,-0.02062 0.224202,-0.187407 z m -0.473838,-0.65215 c -0.144353,-0.05825 -0.119972,-0.29765 0.04557,-0.447463 0.202391,-0.183162 0.303285,-0.162555 0.362673,0.07407 0.07816,0.311416 -0.117757,0.49061 -0.408243,0.373396 z m 0.965137,-0.15539 c -0.08771,-0.08771 -0.103129,-0.15447 -0.04833,-0.209264 0.09677,-0.09677 0.323362,0.06412 0.323362,0.22959 0,0.145636 -0.117772,0.136932 -0.275031,-0.02032 z m -0.433637,-0.304278 c 0,-0.06496 0.06201,-0.117568 0.137798,-0.116906 0.107839,9.07e-4 0.11446,0.016 0.03046,0.06921 -0.09062,0.05741 -0.09062,0.07465 0,0.11069 0.07483,0.02976 0.06561,0.04456 -0.03046,0.0489 -0.07579,0.0034 -0.137798,-0.04694 -0.137798,-0.111895 z m -0.944889,-2.598446 c 0,-0.06496 0.05314,-0.118112 0.11811,-0.118112 0.06496,0 0.118112,0.05315 0.118112,0.118112 0,0.06496 -0.05315,0.11811 -0.118112,0.11811 -0.06496,0 -0.11811,-0.05315 -0.11811,-0.11811 z m 16.063136,-2.992151 c 0,-0.06561 0.06999,-0.118111 0.157481,-0.118111 0.08749,0 0.157482,0.05249 0.157482,0.118111 0,0.06561 -0.06999,0.118112 -0.157482,0.118112 -0.08749,0 -0.157481,-0.05249 -0.157481,-0.118112 z m -1.62332,-3.22378 c -0.091,-0.237154 0.0064,-0.397921 0.256077,-0.422261 0.207955,-0.02028 0.25354,0.0075 0.297042,0.180788 0.02827,0.11261 0.0305,0.23855 0.005,0.279865 -0.07309,0.118259 -0.509486,0.08824 -0.558079,-0.03839 z M 9.6761708,17.697223 c -0.128618,-0.128617 -0.04834,-0.343774 0.146509,-0.392678 0.2354122,-0.05908 0.3751672,0.04754 0.3355922,0.256027 -0.0281,0.14804 -0.3729612,0.245792 -0.4821012,0.136651 z M 9.1213697,15.961309 c -0.117485,-0.117485 -0.04865,-0.341211 0.104988,-0.341211 0.115486,0 0.157481,0.05249 0.157481,0.196853 0,0.185278 -0.142935,0.263893 -0.262469,0.144358 z M 30.055398,28.785032 c -0.02425,-0.02425 -0.08779,-5.1e-5 -0.141192,0.05375 -0.07719,0.07776 -0.06814,0.08681 0.04408,0.04408 0.07765,-0.02957 0.121357,-0.0736 0.09711,-0.09784 z M 21.92332,28.638935 c -0.05413,-0.02184 -0.142717,-0.02184 -0.196851,0 -0.05413,0.02184 -0.0098,0.03972 0.09843,0.03972 0.108268,0 0.15256,-0.01788 0.09843,-0.03972 z M 32.398404,28.015453 32.61627,27.7729 32.378109,27.80786 c -0.133734,0.01964 -0.238162,0.08282 -0.238162,0.144129 0,0.137246 -0.339915,0.143835 -0.554657,0.01075 -0.113746,-0.0705 -0.174893,-0.07384 -0.215468,-0.01181 -0.03115,0.04765 -0.109804,0.106852 -0.174765,0.131581 -0.06496,0.02473 0.08675,0.04776 0.337119,0.05118 0.33663,0.0046 0.467569,0.03835 0.502586,0.129621 0.02605,0.06786 0.0695,0.09445 0.09657,0.05905 0.02706,-0.03539 0.147251,-0.173499 0.267077,-0.306904 z m -5.868743,0.227648 c -0.07579,-0.0198 -0.199804,-0.0198 -0.275593,0 -0.07579,0.01981 -0.01377,0.03601 0.137795,0.03601 0.151578,0 0.213586,-0.01621 0.137798,-0.03601 z m 4.114209,-0.08186 c -0.06496,-0.02473 -0.144143,-0.08394 -0.175959,-0.13158 -0.03568,-0.05344 -0.05831,-0.03382 -0.05905,0.05118 -8.12e-4,0.09258 0.05694,0.135756 0.175961,0.13158 0.118382,-0.0041 0.137976,-0.02113 0.05905,-0.05119 z m 0.157483,-0.131034 c 0,-0.01702 -0.05499,-0.05204 -0.122202,-0.07784 -0.07007,-0.02689 -0.101679,-0.01369 -0.07409,0.03094 0.04625,0.07482 0.196295,0.110666 0.196295,0.04689 z m -11.686569,-2.17678 c 0.263392,-0.04167 0.989777,-0.07864 1.614188,-0.08218 0.624411,-0.0034 1.57821,-0.03904 2.119553,-0.07891 0.541344,-0.03986 2.206713,-0.122074 3.700822,-0.182683 1.494106,-0.0606 2.725417,-0.113688 2.736244,-0.117952 0.07237,-0.02849 -0.0018,-0.41172 -0.09843,-0.508319 -0.06496,-0.06496 -0.118112,-0.168477 -0.118112,-0.230033 0,-0.06156 -0.1063,-0.258665 -0.236222,-0.438018 -0.129922,-0.179353 -0.236619,-0.352978 -0.237103,-0.385833 -9.05e-4,-0.06119 -0.448537,-0.948418 -1.132043,-2.243745 -0.211686,-0.401174 -0.433146,-0.757741 -0.492131,-0.792373 -0.05899,-0.03463 -0.107245,-0.134604 -0.107245,-0.222162 0,-0.08755 -0.0531,-0.212289 -0.117994,-0.277186 -0.0649,-0.0649 -0.141165,-0.212957 -0.169488,-0.329024 -0.02832,-0.116068 -0.114942,-0.292972 -0.192487,-0.393118 -0.07756,-0.100145 -0.179958,-0.300153 -0.227582,-0.444458 -0.0486,-0.147261 -0.154204,-0.280051 -0.240705,-0.302671 -0.08477,-0.02218 -0.15435,-0.105627 -0.154635,-0.185471 -2.84e-4,-0.07985 -0.07091,-0.251468 -0.156962,-0.38139 -0.08605,-0.129914 -0.156679,-0.295351 -0.156963,-0.367629 -7.09e-4,-0.184829 -0.257709,-0.615527 -0.367617,-0.616125 -0.05033,-2.37e-4 -0.116193,-0.15109 -0.14637,-0.335147 -0.03017,-0.184057 -0.10611,-0.392749 -0.168744,-0.463757 -0.06263,-0.07101 -0.103065,-0.227468 -0.08986,-0.347681 0.02078,-0.188949 -0.02446,-0.243795 -0.333808,-0.404699 -0.282943,-0.147174 -0.53014,-0.195784 -1.181112,-0.232258 -0.452803,-0.02537 -0.92072,-0.09248 -1.039815,-0.149138 -0.13406,-0.06377 -0.216538,-0.07217 -0.216538,-0.02203 0,0.05125 -0.122818,0.06113 -0.334649,0.02688 -0.184056,-0.02974 -0.678814,-0.06349 -1.099463,-0.07496 -0.420647,-0.01147 -0.810416,-0.05736 -0.86615,-0.101965 -0.05574,-0.04461 -0.455667,-0.103573 -0.888742,-0.13104 -1.356994,-0.08606 -1.888363,-0.144306 -1.931471,-0.211705 -0.02294,-0.03585 -0.306398,-0.08199 -0.629928,-0.102557 -0.32353,-0.02055 -1.384292,-0.128549 -2.357248,-0.239987 -0.972948,-0.111426 -2.025128,-0.202602 -2.338168,-0.202602 l -0.569164,0 0.166674,0.413389 c 0.09167,0.227363 0.209237,0.46654 0.261255,0.531501 0.05202,0.06496 0.117725,0.247425 0.14601,0.405477 0.02829,0.158052 0.103637,0.330699 0.167455,0.38366 0.06381,0.05296 0.116028,0.169352 0.116028,0.258646 0,0.158839 0.09701,0.397929 0.549294,1.353814 0.122947,0.259845 0.247148,0.5776 0.276001,0.706124 0.02885,0.128523 0.132419,0.41199 0.230148,0.629927 0.09773,0.217936 0.294974,0.679716 0.438321,1.026175 0.143346,0.34646 0.311422,0.736227 0.373502,0.866149 0.06208,0.129923 0.167356,0.395674 0.233941,0.590557 0.178005,0.520976 0.824863,1.920957 0.914973,1.980261 0.04271,0.02811 0.05633,0.106699 0.03025,0.174644 -0.02608,0.06794 -0.01353,0.144479 0.0279,0.170076 0.04141,0.0256 0.07531,0.110536 0.07531,0.188755 0,0.07822 0.07086,0.232308 0.157481,0.342421 0.08661,0.110113 0.157482,0.270003 0.157482,0.355312 0,0.0853 0.05315,0.199216 0.118111,0.253129 0.06496,0.05392 0.118113,0.175587 0.118113,0.270386 0,0.0948 0.07086,0.24843 0.157481,0.341403 0.08662,0.09297 0.157482,0.217761 0.157482,0.277315 0,0.05955 0.01683,0.125102 0.03737,0.145663 0.06395,0.06395 2.810535,-0.01298 3.315556,-0.09286 z M 8.8875717,19.042925 c 0.161124,-0.0808 0.160897,-0.08347 -0.05347,-0.629926 -0.118402,-0.301833 -0.383457,-0.981685 -0.589011,-1.510785 -0.37665,-0.96951 -0.45631,-1.052159 -0.613595,-0.636621 -0.06474,0.17104 -0.508524,0.40242 -0.683883,0.356563 -0.104413,-0.0273 0.01604,0.363273 0.540699,1.753304 l 0.67504,1.788434 0.281202,-0.519913 c 0.154662,-0.285952 0.354018,-0.556427 0.443014,-0.601056 z m -0.891445,-0.0088 c -0.195914,-0.468873 -0.02214,-0.89432 0.365298,-0.89432 0.25018,0 0.313746,0.114027 0.313746,0.562802 0,0.417719 -0.117155,0.618311 -0.361122,0.618311 -0.153444,0 -0.22511,-0.06464 -0.317922,-0.286776 z m -0.431582,-1.179857 c -0.264024,-0.318128 -0.02857,-1.053056 0.337371,-1.053056 0.256956,0 0.403064,0.685441 0.219299,1.028807 -0.09935,0.185641 -0.411445,0.199234 -0.55667,0.02425 z m -0.584256,-1.764886 c -0.02784,-0.04504 0.04395,-0.156289 0.159537,-0.247208 0.178137,-0.140123 0.202592,-0.205623 0.160514,-0.429914 -0.04132,-0.220254 -0.02595,-0.264808 0.09172,-0.265812 0.106554,-9.07e-4 0.115718,-0.01748 0.03721,-0.06725 -0.07165,-0.04542 -0.08809,-0.151634 -0.0527,-0.340312 0.0283,-0.150852 0.01335,-0.480388 -0.03321,-0.732301 -0.05954,-0.322064 -0.05996,-0.487802 -0.0014,-0.558343 0.05971,-0.07195 0.0471,-0.170234 -0.04458,-0.347537 -0.07031,-0.135969 -0.114931,-0.285934 -0.09916,-0.333257 0.01577,-0.04732 -0.04802,-0.168799 -0.141757,-0.269948 -0.09374,-0.101144 -0.638553,-1.102129 -1.210691,-2.224407 -0.57214,-1.1222789 -1.099706,-2.0938959 -1.172372,-2.1591499 -0.118644,-0.106543 -0.165981,-0.09858 -0.464124,0.07811 -0.431004,0.255422 -0.76339,0.89642 -0.75495,1.4558996 0.0032,0.2105818 0.04926,0.4352753 0.102415,0.4993193 0.05315,0.06404 0.07454,0.174038 0.04752,0.244434 -0.05141,0.133975 0.228797,0.661423 0.351382,0.661423 0.03895,0 0.09419,0.09744 0.122755,0.216538 0.02857,0.119095 0.312707,0.790525 0.631427,1.492065 0.31872,0.701541 0.579491,1.312767 0.579491,1.35828 0,0.04551 0.05078,0.08275 0.112845,0.08275 0.07209,0 0.110641,0.07821 0.106742,0.216537 -0.0073,0.260073 0.314857,0.918924 0.598643,1.224187 0.11261,0.121132 0.355484,0.288662 0.539721,0.372289 0.393882,0.178788 0.398685,0.179849 0.333024,0.07361 z m 20.4352063,-0.23697 c 0,-0.208269 -0.215703,-0.626017 -0.323241,-0.626017 -0.0504,0 -0.06349,-0.08873 -0.03334,-0.225992 0.0412,-0.187569 0.02053,-0.233602 -0.121602,-0.270769 -0.140313,-0.0367 -0.161798,-0.08237 -0.118974,-0.253004 0.04253,-0.169478 0.02119,-0.216351 -0.114713,-0.25189 -0.120954,-0.03163 -0.155566,-0.08728 -0.125586,-0.20193 0.04676,-0.178817 -0.165818,-0.635174 -0.422403,-0.906807 -0.09415,-0.09968 -0.151702,-0.232055 -0.127868,-0.294163 0.06784,-0.176771 -0.650788,-1.669316 -0.825764,-1.715073 -0.08937,-0.02337 -0.148736,-0.108537 -0.148736,-0.21339 0,-0.262615 -0.184919,-0.07569 -0.522766,0.528439 l -0.280802,0.502121 0.452977,1.001616 c 0.249138,0.55089 0.483091,1.035279 0.519897,1.076421 0.113453,0.126825 0.07565,0.201088 -0.149621,0.29392 -0.21193,0.08734 -0.20816,0.09057 0.177166,0.152066 0.216538,0.03456 0.548752,0.117542 0.738254,0.184411 0.189503,0.06688 0.442054,0.121578 0.561229,0.121578 0.298749,0 0.456074,0.1966 0.325122,0.406285 -0.08514,0.136327 -0.07665,0.162918 0.06379,0.199643 0.08911,0.0233 0.162013,0.08972 0.162013,0.147589 0,0.155403 0.172483,0.506337 0.248863,0.506337 0.03635,0 0.0661,-0.07263 0.0661,-0.161391 z m -3.405541,-0.916519 c -0.07579,-0.0198 -0.199807,-0.0198 -0.275593,0 -0.07579,0.01981 -0.01377,0.03601 0.137795,0.03601 0.151576,0 0.213585,-0.01621 0.137798,-0.03601 z m -0.710167,-0.07903 c -0.07661,-0.01996 -0.182913,-0.01865 -0.236222,0.003 -0.05332,0.02157 0.0094,0.03791 0.139295,0.0363 0.129922,-0.0015 0.173539,-0.01925 0.09693,-0.03922 z m -0.628428,-0.07845 c -0.07579,-0.0198 -0.199805,-0.0198 -0.275593,0 -0.07579,0.01981 -0.01377,0.03601 0.137796,0.03601 0.151577,0 0.213585,-0.01621 0.137797,-0.03601 z m -0.708668,-0.07873 c -0.07579,-0.01981 -0.199805,-0.01981 -0.275594,0 -0.07578,0.0198 -0.01377,0.03601 0.137798,0.03601 0.151576,0 0.213585,-0.01621 0.137796,-0.03601 z m -0.629928,-0.07874 c -0.07579,-0.01981 -0.199804,-0.01981 -0.275593,0 -0.07578,0.01981 -0.01377,0.03601 0.137798,0.03601 0.151576,0 0.213583,-0.01621 0.137795,-0.03601 z m -0.708666,-0.07874 c -0.07579,-0.0198 -0.199805,-0.0198 -0.275594,0 -0.07579,0.01981 -0.01377,0.03601 0.137796,0.03601 0.151577,0 0.213585,-0.01621 0.137798,-0.03601 z m -0.710168,-0.07903 c -0.07661,-0.01996 -0.182912,-0.01865 -0.236222,0.003 -0.05331,0.02157 0.0094,0.03791 0.139295,0.0363 0.129922,-0.0015 0.17354,-0.01925 0.09693,-0.03922 z m 3.603336,-0.02327 c 0.02758,-0.04463 -0.004,-0.05784 -0.07409,-0.03094 -0.136413,0.05235 -0.161372,0.108786 -0.04811,0.108786 0.04075,0 0.09574,-0.03503 0.122201,-0.07784 z m -4.231764,-0.05518 c -0.07579,-0.01981 -0.199805,-0.01981 -0.275592,0 -0.07579,0.01981 -0.01377,0.03601 0.137796,0.03601 0.151575,0 0.213585,-0.01621 0.137796,-0.03601 z m -0.708667,-0.07874 c -0.07578,-0.0198 -0.199806,-0.0198 -0.275593,0 -0.07578,0.01981 -0.01377,0.03602 0.137796,0.03602 0.151576,0 0.213584,-0.01621 0.137797,-0.03602 z m 6.061547,-2.91e-4 c -0.0766,-0.01996 -0.182912,-0.01865 -0.236223,0.003 -0.05331,0.02157 0.0094,0.03791 0.139296,0.03629 0.129922,-0.0015 0.173539,-0.01925 0.09693,-0.03922 z m -6.770215,-0.07845 c -0.07579,-0.01981 -0.199804,-0.01981 -0.275593,0 -0.07579,0.01981 -0.01378,0.03601 0.137796,0.03601 0.151577,0 0.213585,-0.01621 0.137797,-0.03601 z m 6.102417,0.0021 c -0.05413,-0.02184 -0.142717,-0.02184 -0.196853,0 -0.05413,0.02184 -0.0098,0.03972 0.09843,0.03972 0.108269,0 0.15256,-0.01788 0.09843,-0.03972 z m -6.772632,-0.08228 c -0.09794,-0.01884 -0.239681,-0.01812 -0.314963,0.0015 -0.07529,0.01971 0.0049,0.03512 0.178084,0.03425 0.173229,-8.74e-4 0.234826,-0.017 0.136879,-0.03583 z m 6.180577,0.0011 c -0.07661,-0.01996 -0.182912,-0.01865 -0.236223,0.0029 -0.05331,0.02157 0.0094,0.0379 0.139295,0.0363 0.129922,-0.0016 0.17354,-0.01925 0.09693,-0.03922 z m -6.888327,-0.07974 c -0.09744,-0.01876 -0.256892,-0.01876 -0.354333,0 -0.09745,0.01877 -0.01772,0.03413 0.177165,0.03413 0.194885,0 0.274609,-0.01535 0.177168,-0.03413 z m 6.258401,9.98e-4 c -0.07661,-0.01996 -0.182914,-0.01865 -0.236224,0.0029 -0.05331,0.02157 0.0094,0.0379 0.139296,0.0363 0.129922,-0.0016 0.173539,-0.01926 0.09693,-0.03922 z m -0.629928,-0.07874 c -0.07661,-0.01996 -0.182912,-0.01865 -0.236223,0.0029 -0.05331,0.02157 0.0094,0.0379 0.139295,0.0363 0.129922,-0.0016 0.17354,-0.01925 0.09693,-0.03922 z m -0.629927,-0.07874 c -0.07661,-0.01996 -0.182913,-0.01865 -0.236223,0.0029 -0.05331,0.02157 0.0094,0.0379 0.139294,0.0363 0.129924,-0.0016 0.173542,-0.01926 0.09693,-0.03922 z m -0.628428,-0.07838 c -0.07578,-0.01981 -0.199805,-0.01981 -0.275593,0 -0.07579,0.01981 -0.01377,0.03601 0.137796,0.03601 0.151577,0 0.213584,-0.01621 0.137797,-0.03601 z m -0.669298,-0.07661 c -0.05414,-0.02184 -0.142718,-0.02184 -0.196852,0 -0.05414,0.02184 -0.0098,0.03972 0.09843,0.03972 0.108269,0 0.152561,-0.01788 0.09843,-0.03972 z m -0.629926,-0.07874 c -0.05413,-0.02184 -0.142719,-0.02184 -0.196853,0 -0.05413,0.02184 -0.0098,0.03972 0.09843,0.03972 0.10827,0 0.152561,-0.01788 0.09843,-0.03972 z m -1.93065,-0.238613 c -0.07661,-0.01996 -0.182912,-0.01865 -0.236223,0.0029 -0.05331,0.02157 0.0094,0.0379 0.139296,0.0363 0.129921,-0.0016 0.173539,-0.01925 0.09693,-0.03922 z m -1.514263,-0.185278 c -0.216537,-0.03373 -0.500005,-0.0594 -0.629927,-0.05705 -0.197107,0.0035 -0.18407,0.01361 0.07874,0.06067 0.17323,0.03102 0.456697,0.05668 0.629928,0.05705 0.299,6.22e-4 0.29501,-0.0024 -0.07874,-0.06067 z m -1.044235,-0.130808 c -0.09794,-0.01884 -0.23968,-0.01812 -0.314964,0.0016 -0.07529,0.01971 0.0049,0.03512 0.178086,0.03425 0.173229,-8.74e-4 0.234825,-0.01699 0.136878,-0.03583 z m -0.555189,-0.07684 c -0.05684,-0.02275 -0.124756,-0.01994 -0.15092,0.0063 -0.02616,0.02617 0.02034,0.04478 0.103351,0.04136 0.09173,-0.0038 0.110387,-0.02244 0.04756,-0.04758 z m -1.832366,-0.21066 c -0.01805,-0.01553 -0.174542,-0.04995 -0.347772,-0.07651 -0.214487,-0.03288 -0.277285,-0.02426 -0.196852,0.02702 0.107582,0.06859 0.621063,0.11525 0.544624,0.04949 z m -0.802029,-0.10515 c -0.07661,-0.01996 -0.182914,-0.01866 -0.236224,0.0029 -0.05331,0.02157 0.0094,0.0379 0.139296,0.0363 0.129922,-0.0016 0.173539,-0.01925 0.09693,-0.03922 z m -1.218986,-0.158485 c -0.09745,-0.01877 -0.256892,-0.01877 -0.354334,0 -0.09745,0.01876 -0.01772,0.03413 0.177167,0.03413 0.194884,0 0.274609,-0.01535 0.177167,-0.03413 z m -0.7095844,-0.07886 c -0.09794,-0.01884 -0.2396808,-0.01812 -0.3149648,0.0016 -0.07529,0.01971 0.0049,0.03512 0.178086,0.03425 0.1732298,-8.74e-4 0.2348242,-0.01699 0.1368788,-0.03583 z m -0.6299279,-0.07874 c -0.09795,-0.01884 -0.23968,-0.01812 -0.314963,0.0015 -0.07528,0.01971 0.0048,0.03512 0.178085,0.03424 0.17323,-8.74e-4 0.234825,-0.01699 0.136878,-0.03583 z"
       style="fill:#ffffff;fill-opacity:1;stroke:#ffffff;stroke-opacity:1"
       inkscape:connector-curvature="0" />
    <path
       id="path2843"
       d="m 15.4476,24.788048 c -0.982622,-2.176605 -2.76237,-6.38384 -2.927466,-6.920382 -0.09642,-0.313359 -0.477479,-1.243218 -0.846794,-2.066352 l -0.671482,-1.496607 1.225955,0.13482 c 0.674275,0.07415 3.323412,0.356772 5.886971,0.628048 6.800565,0.719636 6.071058,0.50112 6.810242,2.039939 0.351355,0.731444 1.459362,2.835971 2.462239,4.676726 1.002876,1.840755 1.791348,3.377807 1.75216,3.415671 -0.09036,0.0873 -10.248029,0.578603 -11.962661,0.578603 l -1.282021,0 -0.447143,-0.990466 z"
       style="fill:#282828;fill-opacity:1;fill-rule:nonzero;stroke:#ffffff;stroke-width:0;stroke-linejoin:round;stroke-miterlimit:4;stroke-opacity:1;stroke-dasharray:none"
       inkscape:connector-curvature="0" />
    <path
       id="path2845"
       d="m 6.2913907,15.582539 c -0.19779,-0.224311 -0.593498,-0.932203 -0.879352,-1.573093 -0.285853,-0.64089 -0.821953,-1.816337 -1.191333,-2.612104 -0.369379,-0.795768 -0.671599,-1.5851985 -0.671599,-1.7542903 0,-0.3725376 0.654547,-1.3433526 0.905721,-1.3433526 0.09908,0 0.774803,1.090914 1.501616,2.4242539 1.053641,1.932907 1.321477,2.637563 1.321477,3.476702 0,1.726418 -0.305455,2.154285 -0.98653,1.381884 z"
       style="fill:#282828;fill-opacity:1;fill-rule:nonzero;stroke:#ffffff;stroke-width:0;stroke-linejoin:round;stroke-miterlimit:4;stroke-opacity:1;stroke-dasharray:none"
       inkscape:connector-curvature="0" />
    <path
       id="path2847"
       d="m 9.8854246,34.392316 c -0.8690129,-0.809608 -0.5744629,-2.063533 0.5880384,-2.503339 0.357388,-0.135209 1.210147,-0.303117 1.89502,-0.37313 1.003736,-0.102608 1.221066,-0.06434 1.120656,0.197323 -0.06851,0.178539 -0.19093,0.678363 -0.272041,1.110718 -0.114422,0.609926 -0.380763,0.927014 -1.188417,1.414855 -1.248412,0.754068 -1.480826,0.770722 -2.1432564,0.153573 z"
       style="fill:#282828;fill-opacity:1;fill-rule:nonzero;stroke:#ffffff;stroke-width:0;stroke-linejoin:round;stroke-miterlimit:4;stroke-opacity:1;stroke-dasharray:none"
       inkscape:connector-curvature="0" />
    <path
       id="path2849"
       d="m 15.115487,33.177878 c -0.198329,-0.740061 -0.180551,-2.039263 0.0279,-2.03884 0.443137,8.99e-4 7.225785,-0.731019 7.690678,-0.829904 0.2884,-0.06134 0.524364,-0.214409 0.524364,-0.340145 0,-0.125736 -0.235964,-0.229257 -0.524364,-0.230047 -1.08393,-0.003 0.678355,-0.652298 2.202497,-0.81153 1.356977,-0.141768 1.492245,-0.113612 1.787774,0.372121 0.175846,0.289021 0.403531,0.817726 0.505967,1.174899 l 0.186248,0.649406 -1.84601,0.396688 c -1.181565,0.253905 -1.84601,0.508227 -1.84601,0.706575 0,0.170438 -0.07865,0.311042 -0.174788,0.312453 -0.09613,0.0014 -1.957627,0.2632 -4.136653,0.581754 -2.179025,0.318555 -4.028287,0.579583 -4.109471,0.580062 -0.08118,4.8e-4 -0.210843,-0.235092 -0.288131,-0.523492 z"
       style="fill:#282828;fill-opacity:1;fill-rule:nonzero;stroke:#ffffff;stroke-width:0;stroke-linejoin:round;stroke-miterlimit:4;stroke-opacity:1;stroke-dasharray:none"
       inkscape:connector-curvature="0" />
    <path
       id="path2851"
       d="m 14.820955,28.184536 c -0.154799,-0.616765 -0.90627,-0.924143 -1.352973,-0.553412 -0.246028,0.204185 -0.367444,0.103569 -0.567483,-0.470262 -0.218762,-0.627541 -0.203599,-0.710496 0.108011,-0.59092 0.569899,0.218691 1.299226,-0.289101 1.216815,-0.847205 -0.08538,-0.578237 -0.655032,-0.850629 -0.655032,-0.31322 0,0.457744 -0.548445,0.481821 -0.914984,0.04017 -0.20947,-0.252395 -0.205757,-0.370327 0.01597,-0.507363 0.161182,-0.09962 0.328988,-0.0582 0.37962,0.0937 0.0637,0.191098 0.193776,0.1692 0.436452,-0.07348 0.522024,-0.522024 0.135249,-0.86933 -0.862192,-0.774209 -0.845329,0.08061 -0.908617,0.03902 -1.24551,-0.818629 -0.335,-0.852825 -0.331121,-0.897334 0.06908,-0.79268 0.631106,0.165038 1.18936,-0.244052 1.18936,-0.871566 0,-0.662802 -1.086691,-1.601175 -1.615522,-1.395025 -0.200975,0.07834 -0.461529,0.160893 -0.579008,0.183441 -0.291782,0.056 -2.1686453,-4.727994 -2.3627763,-6.022554 l -0.156633,-1.044501 1.191716,0 c 1.0059943,0 1.1917153,0.06748 1.1917153,0.433014 0,0.509989 4.73883,12.089714 5.092109,12.442993 0.268217,0.268217 14.361034,-0.323501 14.652762,-0.615229 0.09058,-0.09057 -0.959036,-2.415007 -2.332468,-5.165405 -1.373432,-2.750398 -2.497149,-5.052528 -2.497149,-5.115845 0,-0.06332 0.139029,-0.115121 0.308952,-0.115121 0.639712,0 2.586603,2.80247 2.067175,2.975613 -0.499908,0.166636 -0.299362,0.7532 0.257519,0.7532 0.405101,0 0.661494,0.257917 1.048729,1.054963 0.55948,1.151579 0.649511,1.741647 0.265736,1.741647 -0.135743,0 -0.178843,0.109966 -0.09578,0.244368 0.104019,0.168305 0.24916,0.162924 0.466301,-0.01729 0.249301,-0.206901 0.415642,-0.06491 0.79493,0.678552 0.577314,1.131628 0.582607,1.191824 0.104816,1.191824 -0.291016,0 -0.34028,0.143321 -0.220296,0.64089 0.17408,0.721896 0.717339,1.223517 1.325077,1.223517 0.575023,0 0.744973,0.384325 0.259188,0.586126 -0.34385,0.142839 -0.298743,0.219853 0.292651,0.499683 0.693566,0.328174 0.689975,0.330004 -0.44935,0.22908 -0.631675,-0.05596 -1.313348,-0.0064 -1.514829,0.110127 -0.201481,0.116526 -3.69962,0.503028 -7.773643,0.858892 l -7.407314,0.647026 -0.131744,-0.524912 z M 10.254173,17.43238 c 0.05074,-0.152211 -0.0738,-0.276748 -0.2767474,-0.276748 -0.2029478,0 -0.3689968,0.166049 -0.3689968,0.368997 0,0.411551 0.5017022,0.339879 0.6457442,-0.09225 z M 9.3753787,15.757327 c 0,-0.128178 -0.104873,-0.233051 -0.233051,-0.233051 -0.128178,0 -0.233051,0.104873 -0.233051,0.233051 0,0.128178 0.104873,0.233051 0.233051,0.233051 0.128178,0 0.233051,-0.104873 0.233051,-0.233051 z"
       style="fill:#282828;fill-opacity:1;fill-rule:nonzero;stroke:#ffffff;stroke-width:0;stroke-linejoin:round;stroke-miterlimit:4;stroke-opacity:1;stroke-dasharray:none"
       inkscape:connector-curvature="0" />
    <path
       id="path2853"
       d="m 11.269638,29.330058 c -0.120778,-0.225675 -0.167189,-0.684467 -0.103137,-1.019537 0.08108,-0.424158 -0.03153,-0.747094 -0.370726,-1.063101 -0.544863,-0.507618 -2.0612873,-4.171072 -2.2479743,-5.430771 -0.06649,-0.448623 -0.03019,-0.950321 0.08067,-1.114885 0.469609,-0.697152 1.0150621,0.122848 2.3551653,3.540611 1.829968,4.667098 1.823039,4.634785 1.095949,5.111193 -0.553477,0.362652 -0.604062,0.361184 -0.809943,-0.02351 z"
       style="fill:#282828;fill-opacity:1;fill-rule:nonzero;stroke:#ffffff;stroke-width:0;stroke-linejoin:round;stroke-miterlimit:4;stroke-opacity:1;stroke-dasharray:none"
       inkscape:connector-curvature="0" />
    <path
       id="path2855"
       d="m 25.777763,14.413716 c -0.143412,-0.09417 -0.526421,-0.69806 -0.851131,-1.341976 -0.492549,-0.976751 -0.54163,-1.237427 -0.296185,-1.573093 0.161808,-0.221285 0.342874,-0.402337 0.402368,-0.402337 0.106149,0 1.170662,2.286227 1.437799,3.087924 0.140682,0.422197 -0.218296,0.541095 -0.692851,0.229482 l 0,0 z"
       style="fill:#282828;fill-opacity:1;fill-rule:nonzero;stroke:#ffffff;stroke-width:0;stroke-linejoin:round;stroke-miterlimit:4;stroke-opacity:1;stroke-dasharray:none"
       inkscape:connector-curvature="0" />
    <path
       id="path2857"
       d="M 29.908539,35.14667 C 28.730277,35.10873 27.26569,35.05331 26.6539,35.023524 l -1.112345,-0.05416 0.947553,-0.194746 c 2.662813,-0.547274 8.205709,-1.592333 11.535429,-2.174892 2.061958,-0.360754 3.913201,-0.710841 4.113875,-0.77797 0.262043,-0.08766 0.738034,-0.121988 1.689116,-0.121821 1.362526,2.4e-4 4.432548,0.09118 4.393581,0.13015 -0.0527,0.0527 -14.190696,3.171119 -14.89402,3.285179 -0.430035,0.06974 -0.893115,0.120858 -1.029069,0.113596 -0.135953,-0.0073 -1.21122,-0.04425 -2.389481,-0.08219 z"
       style="fill:#282828;fill-opacity:1;fill-rule:nonzero;stroke:#ffffff;stroke-width:0;stroke-linejoin:round;stroke-miterlimit:4;stroke-opacity:1;stroke-dasharray:none"
       inkscape:connector-curvature="0" />
    <path
       id="path2859"
       d="m 23.069678,34.741749 c -0.226589,-0.03704 -1.227699,-0.148133 -2.22469,-0.246869 -0.996991,-0.09874 -1.883815,-0.20572 -1.97072,-0.237742 -0.166094,-0.0612 1.835817,-0.406036 4.560239,-0.785516 0.835105,-0.11632 3.504733,-0.532851 5.932506,-0.925624 l 4.414134,-0.714133 3.089847,-0.02123 3.089847,-0.02123 -2.348284,0.401975 c -2.55467,0.437303 -8.548111,1.557502 -9.703508,1.813626 -1.476947,0.327403 -4.122298,0.827458 -4.303798,0.813553 -0.06798,-0.0052 -0.308985,-0.03978 -0.535573,-0.07682 z"
       style="fill:#282828;fill-opacity:1;fill-rule:nonzero;stroke:#ffffff;stroke-width:0;stroke-linejoin:round;stroke-miterlimit:4;stroke-opacity:1;stroke-dasharray:none"
       inkscape:connector-curvature="0" />
    <path
       id="path2861"
       d="m 27.434248,31.605307 c 0.106713,-0.18787 0.173685,-0.394582 0.148828,-0.459359 -0.03104,-0.08088 0.0035,-0.109386 0.110185,-0.091 0.129557,0.02233 0.159659,-0.03281 0.181125,-0.331763 0.01416,-0.197198 -0.01409,-0.472822 -0.06278,-0.612496 -0.05628,-0.161438 -0.05953,-0.271878 -0.0089,-0.303155 0.08164,-0.05045 2.910939,-0.349104 5.015866,-0.529452 1.148059,-0.09837 1.182056,-0.09666 1.26777,0.0635 0.119636,0.223542 0.192339,1.579432 0.08814,1.643829 -0.166368,0.102821 -6.130754,0.961478 -6.678596,0.961478 l -0.255638,0 0.194022,-0.341582 0,0 z"
       style="fill:#282828;fill-opacity:1;fill-rule:nonzero;stroke:#ffffff;stroke-width:0;stroke-linejoin:round;stroke-miterlimit:4;stroke-opacity:1;stroke-dasharray:none"
       inkscape:connector-curvature="0" />
    <path
       id="path2863"
       d="m 12.935811,30.712294 c -0.02846,-0.04606 -0.139229,-0.08374 -0.246143,-0.08374 -0.269251,0 -0.455053,-0.08141 -0.455053,-0.199389 0,-0.185794 0.457862,-0.538882 0.967126,-0.745814 0.444342,-0.180553 0.89374,-0.24242 3.600751,-0.495706 3.659592,-0.342415 3.859783,-0.348524 4.083694,-0.124613 0.09063,0.09063 0.225044,0.164792 0.298685,0.164792 0.106848,0 0.12318,0.05357 0.08085,0.265212 -0.02917,0.145866 -0.08354,0.295709 -0.120815,0.332984 -0.07856,0.07856 -1.360334,0.186026 -3.628801,0.304238 -1.225113,0.06384 -1.630861,0.112529 -1.736802,0.208404 -0.07734,0.06999 -0.298707,0.127251 -0.502528,0.129982 -0.515074,0.0069 -2.08106,0.198745 -2.19447,0.268837 -0.05211,0.0322 -0.118031,0.02087 -0.146495,-0.02519 l 0,0 z"
       style="fill:#282828;fill-opacity:1;fill-rule:nonzero;stroke:#ffffff;stroke-width:0;stroke-linejoin:round;stroke-miterlimit:4;stroke-opacity:1;stroke-dasharray:none"
       inkscape:connector-curvature="0" />
    <path
       id="path2865"
       d="m 27.203206,28.925705 c -0.160736,-0.160736 -0.02137,-0.266749 0.418846,-0.31862 0.260577,-0.0307 0.622089,-0.139963 0.80336,-0.242798 0.347756,-0.197281 1.549474,-0.366896 1.633717,-0.230589 0.02442,0.03952 -0.139509,0.208514 -0.364291,0.375553 -0.303609,0.225617 -0.540536,0.325104 -0.921455,0.386924 -0.583133,0.09464 -1.488051,0.111656 -1.570177,0.02953 z m 2.102813,-0.660522 c -0.05948,-0.0238 -0.130546,-0.02088 -0.157926,0.0065 -0.02738,0.02738 0.02129,0.04685 0.108145,0.04328 0.09599,-0.004 0.115511,-0.02348 0.04978,-0.04978 l 0,0 z m 0.499525,-0.08068 c -0.05665,-0.02286 -0.149343,-0.02286 -0.20599,0 -0.05665,0.02286 -0.0103,0.04156 0.102995,0.04156 0.113294,0 0.159642,-0.0187 0.102995,-0.04156 z"
       style="fill:#282828;fill-opacity:1;fill-rule:nonzero;stroke:#ffffff;stroke-width:0;stroke-linejoin:round;stroke-miterlimit:4;stroke-opacity:1;stroke-dasharray:none"
       inkscape:connector-curvature="0" />
    <path
       id="path2867"
       d="m 27.972235,40.047223 c -0.517026,-0.03914 -2.067315,-0.312018 -3.408229,-0.599901 -0.62163,-0.133458 -1.434626,-0.28356 -1.806658,-0.33356 -0.372032,-0.05 -1.102015,-0.199873 -1.622186,-0.333054 -0.52017,-0.13318 -1.029995,-0.242146 -1.132944,-0.242146 -0.261767,0 -0.233474,-0.132532 0.04934,-0.231122 0.252889,-0.08816 0.589119,-0.402384 0.58485,-0.546576 -0.0014,-0.0481 -0.10031,-0.158746 -0.219745,-0.245874 -0.167502,-0.122192 -0.475475,-0.18153 -1.346888,-0.259506 -0.621352,-0.0556 -1.208474,-0.143233 -1.304715,-0.194739 -0.140642,-0.07527 -0.4219,-0.556536 -0.4219,-0.721923 0,-0.07161 1.525162,0.07869 1.627524,0.160387 0.05676,0.0453 0.213565,0.06029 0.348457,0.03332 0.312079,-0.06242 3.17878,0.234395 3.832932,0.396852 0.271906,0.06753 1.032008,0.163551 1.689116,0.213387 1.710542,0.129728 2.472107,0.214389 2.801461,0.31143 0.158612,0.04673 1.435943,0.127635 2.838513,0.17978 l 2.550127,0.09481 0.331988,0.377158 c 0.329023,0.37379 0.340066,0.408037 0.402981,1.249764 0.01294,0.173183 -0.03888,0.213595 -0.397093,0.309675 -1.295991,0.347605 -2.053464,0.438266 -3.543024,0.424058 -0.81572,-0.0078 -1.649978,-0.02678 -1.853908,-0.04222 z"
       style="fill:#282828;fill-opacity:1;fill-rule:nonzero;stroke:#ffffff;stroke-width:0;stroke-linejoin:round;stroke-miterlimit:4;stroke-opacity:1;stroke-dasharray:none"
       inkscape:connector-curvature="0" />
    <path
       id="path2869"
       d="m 38.052343,41.380007 c -0.06493,-0.183056 -0.05857,-0.432329 0.02418,-0.947553 0.127961,-0.796691 0.1097,-0.905144 -0.152395,-0.905131 -0.168601,9e-6 -3.28529,1.033181 -4.829102,1.600831 -0.57739,0.212303 -0.692407,0.224007 -2.636669,0.26831 -1.841835,0.04197 -2.125892,0.02971 -3.021695,-0.130452 -2.470707,-0.441733 -8.27177,-1.719915 -8.842745,-1.948374 -0.237376,-0.09498 -0.361696,-0.201334 -0.396244,-0.338982 -0.02769,-0.110319 -0.02704,-0.223883 0.0014,-0.252365 0.02848,-0.02848 0.746689,0.101735 1.596016,0.28937 2.436306,0.538233 5.915129,1.192893 7.270749,1.368241 2.643745,0.341966 5.096572,0.197759 6.880059,-0.404493 0.317224,-0.107121 1.00317,-0.312511 1.524324,-0.456422 1.303542,-0.359959 6.542556,-2.031147 6.910337,-2.204322 0.448999,-0.211417 0.403375,-0.426276 -0.136193,-0.641368 -0.373005,-0.148695 -0.417344,-0.188674 -0.308984,-0.278605 0.07834,-0.06502 0.126514,-0.241735 0.126514,-0.46412 0,-0.317072 -0.02483,-0.365354 -0.212023,-0.412337 -0.116612,-0.02927 -0.181499,-0.08225 -0.144193,-0.117726 0.167578,-0.159381 3.748737,-0.986371 4.605096,-1.063446 1.259555,-0.113364 2.047478,-0.330126 2.533814,-0.697068 0.249155,-0.187986 0.777908,-0.378783 1.044918,-0.37705 0.102219,6.63e-4 0.103956,0.01324 0.01004,0.07272 -0.136456,0.08643 -0.0518,0.255138 0.128025,0.255138 0.08993,0 0.114759,-0.05194 0.08296,-0.173523 -0.04379,-0.167467 -0.02472,-0.171943 0.546563,-0.128237 1.071588,0.08198 1.551302,0.193722 1.769823,0.412242 0.272863,0.272863 0.200069,0.544278 -0.207125,0.772271 -0.700982,0.392488 -3.706604,1.465923 -10.32552,3.687679 -2.769106,0.9295 -3.227843,1.107574 -3.346088,1.298897 -0.03494,0.05653 -0.140981,0.566621 -0.23565,1.13353 -0.155705,0.932415 -0.18053,1.007047 -0.260239,0.782341 l 0,0 z"
       style="fill:#282828;fill-opacity:1;fill-rule:nonzero;stroke:#ffffff;stroke-width:0;stroke-linejoin:round;stroke-miterlimit:4;stroke-opacity:1;stroke-dasharray:none"
       inkscape:connector-curvature="0" />
    <path
       id="path2871"
       d="m 15.583825,41.60781 c -0.02207,-0.07931 -0.06318,-0.385201 -0.09136,-0.679766 l -0.05124,-0.535573 0.415397,-0.231342 0.415397,-0.231342 0,0.815486 c 0,0.793911 -0.0056,0.818017 -0.209867,0.911109 -0.292983,0.133492 -0.431573,0.119418 -0.478323,-0.04857 z"
       style="fill:#282828;fill-opacity:1;fill-rule:nonzero;stroke:#ffffff;stroke-width:0;stroke-linejoin:round;stroke-miterlimit:4;stroke-opacity:1;stroke-dasharray:none"
       inkscape:connector-curvature="0" />
    <path
       id="path2873"
       d="m 14.502564,38.421016 c -0.281534,-0.07957 -0.341384,-0.138554 -0.426247,-0.420089 -0.171096,-0.567619 -0.145995,-0.698303 0.134125,-0.698303 0.202229,0 0.274279,0.05638 0.408674,0.319821 0.103178,0.202246 0.240104,0.339134 0.372456,0.372352 0.258943,0.06499 0.269363,0.238557 0.0239,0.398206 -0.149955,0.09753 -0.247994,0.102887 -0.512913,0.02801 l 0,0 z"
       style="fill:#282828;fill-opacity:1;fill-rule:nonzero;stroke:#ffffff;stroke-width:0;stroke-linejoin:round;stroke-miterlimit:4;stroke-opacity:1;stroke-dasharray:none"
       inkscape:connector-curvature="0" />
    <path
       id="path2875"
       d="m 15.30166,37.6593 c -0.05786,-0.02326 -0.178484,-0.185947 -0.268056,-0.361522 -0.191172,-0.374727 -0.31508,-0.452929 -0.8431,-0.532103 -0.466956,-0.07002 -0.522642,-0.134288 -0.347694,-0.401292 0.122789,-0.187399 0.1216,-0.204367 -0.01717,-0.245195 -0.082,-0.02413 0.05484,-0.02349 0.304086,0.0014 0.451799,0.04513 0.720328,0.176347 0.514974,0.251643 -0.05665,0.02077 -0.102995,0.108832 -0.102995,0.195691 0,0.117215 0.05841,0.15807 0.226589,0.158488 0.225025,5.6e-4 0.275589,0.05398 0.720913,0.761599 0.144261,0.229232 0.0869,0.281622 -0.187542,0.171286 z"
       style="fill:#282828;fill-opacity:1;fill-rule:nonzero;stroke:#ffffff;stroke-width:0;stroke-linejoin:round;stroke-miterlimit:4;stroke-opacity:1;stroke-dasharray:none"
       inkscape:connector-curvature="0" />
    <path
       id="path2877"
       d="m 12.078087,39.701397 c -0.128471,-0.251697 -0.15528,-0.875721 -0.06117,-1.423865 0.05188,-0.302179 0.117444,-0.572534 0.145699,-0.600789 0.09262,-0.09261 0.339974,0.644433 0.399843,1.191403 0.03224,0.294566 0.08334,0.591252 0.113541,0.659303 0.04008,0.0903 -0.02411,0.148465 -0.237582,0.215282 -0.246839,0.07726 -0.30309,0.07081 -0.360328,-0.04133 z"
       style="fill:#282828;fill-opacity:1;fill-rule:nonzero;stroke:#ffffff;stroke-width:0;stroke-linejoin:round;stroke-miterlimit:4;stroke-opacity:1;stroke-dasharray:none"
       inkscape:connector-curvature="0" />
    <path
       id="path2879"
       d="m 14.132355,44.175836 c -0.561587,-0.444848 -1.620441,-1.987034 -1.468562,-2.138913 0.08916,-0.08916 1.282045,0.515627 1.411232,0.715482 0.13203,0.204254 0.492281,1.51955 0.450048,1.643145 -0.01351,0.03955 -0.190237,-0.05932 -0.392718,-0.219714 l 0,0 z"
       style="fill:#282828;fill-opacity:1;fill-rule:nonzero;stroke:#ffffff;stroke-width:0;stroke-linejoin:round;stroke-miterlimit:4;stroke-opacity:1;stroke-dasharray:none"
       inkscape:connector-curvature="0" />
    <path
       id="path2881"
       d="m 15.710323,43.357187 c -0.208941,-0.816622 -0.208997,-0.863527 -0.001,-0.864746 0.105566,-6.18e-4 0.274589,-0.02328 0.375608,-0.05036 l 0.18367,-0.04923 -0.130654,0.441738 c -0.07186,0.242956 -0.17858,0.533742 -0.237158,0.646192 l -0.106504,0.204453 -0.08393,-0.328047 z"
       style="fill:#282828;fill-opacity:1;fill-rule:nonzero;stroke:#ffffff;stroke-width:0;stroke-linejoin:round;stroke-miterlimit:4;stroke-opacity:1;stroke-dasharray:none"
       inkscape:connector-curvature="0" />
    <path
       id="path2883"
       d="m 34.516261,39.039806 c -0.03346,-0.16239 -0.07176,-0.406488 -0.08512,-0.542442 -0.01336,-0.135953 -0.05989,-0.414039 -0.1034,-0.617969 -0.04351,-0.20393 -0.06304,-0.386984 -0.04339,-0.406788 0.04315,-0.0435 0.736938,-0.230378 2.364648,-0.636952 l 1.21993,-0.304718 1.457937,0.180731 c 1.705757,0.21145 1.940462,0.218582 2.069674,0.06289 0.08117,-0.09781 0.130204,-0.0847 0.31139,0.08321 0.118276,0.109615 0.199966,0.209745 0.181533,0.222511 -0.06556,0.04541 -1.278677,0.414459 -1.842462,0.560507 -0.370216,0.0959 -0.606444,0.12069 -0.66748,0.07003 -0.05196,-0.04312 -0.262508,-0.101435 -0.467888,-0.129586 -0.370547,-0.05079 -0.374167,-0.04892 -0.470707,0.243603 -0.09721,0.294544 -0.09838,0.29513 -1.430979,0.713091 -0.73353,0.230067 -1.581001,0.503539 -1.883269,0.607715 l -0.549579,0.18941 -0.06084,-0.295253 0,0 z"
       style="fill:#282828;fill-opacity:1;fill-rule:nonzero;stroke:#ffffff;stroke-width:0;stroke-linejoin:round;stroke-miterlimit:4;stroke-opacity:1;stroke-dasharray:none"
       inkscape:connector-curvature="0" />
    <path
       id="path2885"
       d="m 38.821847,41.941228 c -0.103546,-0.02677 -0.13215,-0.08142 -0.09203,-0.175833 0.03202,-0.07534 0.09327,-0.303837 0.136108,-0.507767 0.183262,-0.872331 0.212774,-0.88057 0.221347,-0.0618 0.0046,0.441848 -0.0194,0.799059 -0.05339,0.793802 -0.03399,-0.0053 -0.129407,-0.02704 -0.21204,-0.04841 z"
       style="fill:#282828;fill-opacity:1;fill-rule:nonzero;stroke:#ffffff;stroke-width:0;stroke-linejoin:round;stroke-miterlimit:4;stroke-opacity:1;stroke-dasharray:none"
       inkscape:connector-curvature="0" />
    <path
       id="path2887"
       d="m 31.680051,36.971363 c 0.428888,-0.268317 0.659167,-0.503028 0.659167,-0.671853 0,-0.116563 0.06397,-0.150429 0.284166,-0.150429 1.102104,0 5.267155,-0.854905 10.427304,-2.140274 1.427509,-0.355586 3.559503,-0.874513 4.737765,-1.153172 1.178262,-0.278659 2.216159,-0.528316 2.30644,-0.554793 0.146992,-0.04311 0.151873,-0.03335 0.04671,0.09336 -0.292511,0.352454 -0.732238,0.484214 -7.173311,2.149418 -1.472827,0.380768 -3.196728,0.842148 -3.83089,1.025289 -0.634163,0.183141 -1.275602,0.332983 -1.425422,0.332983 -0.149819,0 -0.372522,0.05063 -0.494895,0.112521 -0.281667,0.142445 -2.201832,0.660108 -3.229948,0.870772 -0.430519,0.08821 -1.190621,0.184286 -1.689117,0.213493 l -0.906355,0.0531 0.288386,-0.180418 z"
       style="fill:#282828;fill-opacity:1;fill-rule:nonzero;stroke:#ffffff;stroke-width:0;stroke-linejoin:round;stroke-miterlimit:4;stroke-opacity:1;stroke-dasharray:none"
       inkscape:connector-curvature="0" />
    <path
       id="path2889"
       d="m 27.107078,36.842231 c -0.906355,-0.106633 -2.49502,-0.271412 -3.530366,-0.366176 -1.035346,-0.09476 -1.973983,-0.207101 -2.085861,-0.249636 -0.111877,-0.04254 -0.414199,-0.07895 -0.671826,-0.08093 -0.257627,-0.002 -0.635264,-0.04169 -0.839194,-0.08826 -0.20393,-0.04657 -0.834611,-0.11343 -1.401514,-0.148583 -1.020063,-0.06325 -1.694495,-0.244467 -1.850743,-0.497281 -0.09783,-0.158289 -0.03269,-0.162319 0.657663,-0.04068 0.36206,0.06379 0.943184,0.116714 1.291388,0.117605 0.714425,0.0018 5.991883,0.423503 7.811322,0.624131 1.150402,0.126854 1.218214,0.145043 1.874507,0.502789 0.37451,0.204145 0.680928,0.38671 0.680928,0.405699 0,0.04741 -0.06752,0.04118 -1.936304,-0.17868 l 0,0 z"
       style="fill:#282828;fill-opacity:1;fill-rule:nonzero;stroke:#ffffff;stroke-width:0;stroke-linejoin:round;stroke-miterlimit:4;stroke-opacity:1;stroke-dasharray:none"
       inkscape:connector-curvature="0" />
    <path
       id="path2891"
       d="m 29.340116,35.89625 -0.321235,-0.241545 0.341834,0 c 0.324885,0 0.341834,0.01226 0.341834,0.247188 0,0.135953 -0.0093,0.244649 -0.0206,0.241545 -0.01133,-0.0031 -0.165155,-0.114338 -0.341834,-0.247188 l 0,0 z"
       style="fill:#282828;fill-opacity:1;fill-rule:nonzero;stroke:#ffffff;stroke-width:0;stroke-linejoin:round;stroke-miterlimit:4;stroke-opacity:1;stroke-dasharray:none"
       inkscape:connector-curvature="0" />
    <path
       id="path2893"
       d="m 28.676472,36.235622 c -0.224459,-0.132127 -0.434365,-0.311212 -0.466457,-0.397965 -0.05061,-0.136821 -0.176759,-0.165333 -0.951425,-0.215048 -0.984691,-0.06319 -5.856543,-0.514222 -9.009073,-0.834046 -1.110285,-0.112638 -2.045345,-0.204844 -2.077911,-0.204901 -0.03257,-5.7e-5 -0.03844,-0.05423 -0.01306,-0.120383 0.03074,-0.08012 -0.04578,-0.160409 -0.229175,-0.240466 l -0.27533,-0.120187 0.473777,-0.0067 c 0.359427,-0.0051 0.473776,0.02177 0.473776,0.11132 0,0.06492 0.06489,0.136928 0.144193,0.160012 0.365773,0.106465 2.066873,0.316071 4.099197,0.505094 1.223579,0.113803 2.595471,0.26231 3.048649,0.330017 0.909163,0.135832 2.810426,0.284261 3.707816,0.289464 0.347577,0.002 0.634108,0.04687 0.721062,0.112872 0.07936,0.06024 0.237475,0.09172 0.351369,0.06994 0.162841,-0.03113 0.196473,-0.01194 0.157426,0.08981 -0.02878,0.075 0.0441,0.252314 0.173385,0.421812 0.27004,0.35404 0.205768,0.363709 -0.328223,0.04937 z"
       style="fill:#282828;fill-opacity:1;fill-rule:nonzero;stroke:#ffffff;stroke-width:0;stroke-linejoin:round;stroke-miterlimit:4;stroke-opacity:1;stroke-dasharray:none"
       inkscape:connector-curvature="0" />
    <path
       id="path2895"
       d="m 13.902121,33.015175 c 0.0299,-0.524334 0.082,-0.788127 0.17622,-0.892244 0.07358,-0.0813 0.133776,-0.191248 0.133776,-0.244327 0,-0.05308 0.03204,-0.09651 0.0712,-0.09651 0.09546,0 0.175991,0.627379 0.175991,1.371033 l 0,0.606469 -0.299814,0 -0.299815,0 0.04245,-0.744424 z"
       style="fill:#282828;fill-opacity:1;fill-rule:nonzero;stroke:#ffffff;stroke-width:0;stroke-linejoin:round;stroke-miterlimit:4;stroke-opacity:1;stroke-dasharray:none"
       inkscape:connector-curvature="0" />
    <path
       id="path2897"
       d="m 13.495049,28.795245 c -0.08864,-0.11693 -0.436475,-0.956736 -0.436475,-1.053822 0,-0.14771 0.322524,0.03544 0.345552,0.196222 0.04659,0.325308 0.560803,0.233577 0.560803,-0.100042 0,-0.08811 0.07064,-0.134104 0.20599,-0.134104 0.113294,0 0.205989,0.04549 0.205989,0.101096 0,0.0556 0.0927,0.161832 0.20599,0.236065 0.218998,0.143493 0.283184,0.305259 0.09201,0.2319 -0.06269,-0.02405 -0.248077,0.0123 -0.411979,0.08078 -0.23199,0.09693 -0.298004,0.171076 -0.298004,0.334708 0,0.16639 -0.04083,0.210194 -0.195901,0.210194 -0.107745,0 -0.231036,-0.04635 -0.273979,-0.102995 z"
       style="fill:#282828;fill-opacity:1;fill-rule:nonzero;stroke:#ffffff;stroke-width:0;stroke-linejoin:round;stroke-miterlimit:4;stroke-opacity:1;stroke-dasharray:none"
       inkscape:connector-curvature="0" />
    <path
       id="path2899"
       d="m 7.5486167,18.393171 c -0.323037,-0.883471 -0.58734,-1.643573 -0.58734,-1.689117 0,-0.04554 0.07701,-0.08281 0.17113,-0.08281 0.09412,0 0.285534,-0.114404 0.425361,-0.254231 0.306256,-0.306256 0.277917,-0.339387 0.781109,0.913172 0.38264,0.952478 0.409225,1.056056 0.233655,0.910346 -0.18472,-0.153305 -0.480523,-0.06798 -0.618339,0.17835 -0.110913,0.198247 -0.111222,0.262983 -0.0028,0.576771 0.09935,0.287408 0.164526,0.358332 0.348771,0.379532 0.124624,0.01434 0.226589,0.04003 0.226589,0.05709 0,0.04484 -0.341593,0.617206 -0.368351,0.617206 -0.01237,0 -0.286794,-0.72284 -0.609831,-1.60631 z m 0.549724,-0.470067 c 0.121287,-0.121288 0.130157,-0.759862 0.01358,-0.977689 -0.11415,-0.21329 -0.370035,-0.201779 -0.528003,0.02375 -0.151778,0.216694 -0.170156,0.813172 -0.02939,0.953938 0.127096,0.127096 0.416718,0.127096 0.543814,0 l 0,0 z"
       style="fill:#282828;fill-opacity:1;fill-rule:nonzero;stroke:#ffffff;stroke-width:0;stroke-linejoin:round;stroke-miterlimit:4;stroke-opacity:1;stroke-dasharray:none"
       inkscape:connector-curvature="0" />
    <path
       id="path2901"
       d="m 17.966636,38.03702 c -0.071,-0.239097 -0.129099,-0.441397 -0.129099,-0.449554 0,-0.02634 1.436421,0.2121 1.60672,0.266707 0.117188,0.03758 -0.01373,0.09822 -0.453177,0.209929 -0.339883,0.0864 -0.680379,0.213462 -0.756657,0.282364 -0.127407,0.115087 -0.14919,0.08992 -0.267787,-0.309446 l 0,0 z"
       style="fill:#282828;fill-opacity:1;fill-rule:nonzero;stroke:#ffffff;stroke-width:0;stroke-linejoin:round;stroke-miterlimit:4;stroke-opacity:1;stroke-dasharray:none"
       inkscape:connector-curvature="0" />
    <path
       id="path2903"
       d="m 12.816388,33.697802 c 0.109186,-0.124624 0.226883,-0.261813 0.26155,-0.304865 0.03467,-0.04305 0.06303,0.01588 0.06303,0.130967 0,0.144265 -0.06517,0.238938 -0.209867,0.304865 -0.312859,0.142548 -0.3336,0.118868 -0.114715,-0.130967 z"
       style="fill:#282828;fill-opacity:1;fill-rule:nonzero;stroke:#ffffff;stroke-width:0;stroke-linejoin:round;stroke-miterlimit:4;stroke-opacity:1;stroke-dasharray:none"
       inkscape:connector-curvature="0" />
    <path
       id="path2905"
       d="m 10.858723,30.984587 c 0.288677,-0.119676 0.309397,-0.150016 0.264391,-0.387135 l -0.04883,-0.257283 0.252636,0.287732 0.252636,0.287733 -0.393433,0.102058 c -0.540457,0.140198 -0.70524,0.123535 -0.327397,-0.0331 z"
       style="fill:#282828;fill-opacity:1;fill-rule:nonzero;stroke:#ffffff;stroke-width:0;stroke-linejoin:round;stroke-miterlimit:4;stroke-opacity:1;stroke-dasharray:none"
       inkscape:connector-curvature="0" />
    <path
       id="path2907"
       d="m 10.34729,27.014062 c -0.180792,-0.253898 -0.6213172,-1.402359 -0.5610382,-1.462638 0.02004,-0.02004 0.1195038,0.159357 0.2210372,0.398655 0.101533,0.239297 0.291975,0.611764 0.423204,0.827704 0.13123,0.21594 0.238599,0.410601 0.238599,0.432579 0,0.116981 -0.174539,0.01051 -0.321802,-0.1963 z"
       style="fill:#282828;fill-opacity:1;fill-rule:nonzero;stroke:#ffffff;stroke-width:0;stroke-linejoin:round;stroke-miterlimit:4;stroke-opacity:1;stroke-dasharray:none"
       inkscape:connector-curvature="0" />
  </g>
</svg>
